<svg width="22" height="22" viewBox="0 0 22 22" fill="none" xmlns="http://www.w3.org/2000/svg">
<path fill-rule="evenodd" clip-rule="evenodd" d="M1.92179 1.49137C0.43042 2.98274 0.43042 5.38305 0.43042 10.1837V11.0323C0.43042 15.833 0.43042 18.2333 1.92179 19.7247C3.41316 21.216 5.81347 21.216 10.6141 21.216H11.4627C16.2634 21.216 18.6637 21.216 20.1551 19.7247C21.6464 18.2333 21.6464 15.833 21.6464 11.0323V10.1837C21.6464 5.38305 21.6464 2.98274 20.1551 1.49137C18.6637 0 16.2634 0 11.4627 0H10.6141C5.81347 0 3.41316 0 1.92179 1.49137ZM4.01066 6.45325C4.12557 11.9694 6.88363 15.2844 11.7191 15.2844H11.9932V12.1285C13.7701 12.3053 15.1136 13.6048 15.6529 15.2844H18.1635C17.474 12.7738 15.6617 11.386 14.5302 10.8556C15.6617 10.2014 17.2529 8.6102 17.633 6.45325H15.3522C14.8572 8.20357 13.3899 9.79475 11.9932 9.94503V6.45325H9.7124V12.5705C8.29802 12.2169 6.51237 10.502 6.43281 6.45325H4.01066Z" fill="#0050CF"/>
</svg>
