<svg width="22" height="22" viewBox="0 0 22 22" fill="none" xmlns="http://www.w3.org/2000/svg">
<path d="M12.8683 12.6538C11.2013 14.3738 11.08 16.5182 10.9361 21.216C15.3157 21.216 18.3389 21.2009 19.8998 19.6854C21.4153 18.1245 21.4304 14.9573 21.4304 10.7217C16.7326 10.8732 14.5883 10.9869 12.8683 12.6538ZM0.214417 10.7217C0.214417 14.9573 0.229571 18.1245 1.745 19.6854C3.30589 21.2009 6.32917 21.216 10.7088 21.216C10.5572 16.5182 10.4436 14.3738 8.77659 12.6538C7.05658 10.9869 4.91225 10.8656 0.214417 10.7217ZM10.7088 0C6.33675 0 3.30589 0.0151543 1.745 1.53058C0.229571 3.09148 0.214417 6.25872 0.214417 10.4943C4.91225 10.3428 7.05658 10.2291 8.77659 8.56218C10.4436 6.84216 10.5648 4.69783 10.7088 0ZM12.8683 8.56218C11.2013 6.84216 11.08 4.69783 10.9361 0C15.3157 0 18.3389 0.0151543 19.8998 1.53058C21.4153 3.09148 21.4304 6.25872 21.4304 10.4943C16.7326 10.3428 14.5883 10.2291 12.8683 8.56218Z" fill="#0050CF"/>
</svg>
