<svg width="22" height="22" viewBox="0 0 22 22" fill="none" xmlns="http://www.w3.org/2000/svg">
<path d="M10.994 0C8.18121 0 5.48114 1.11832 3.4938 3.10699C1.50441 5.09644 0.386537 7.79453 0.385986 10.608C0.385986 13.4203 1.5048 16.1204 3.4938 18.109C5.48114 20.0977 8.18121 21.216 10.994 21.216C13.8068 21.216 16.5068 20.0977 18.4942 18.109C20.4832 16.1204 21.602 13.4203 21.602 10.608C21.602 7.79572 20.4832 5.09565 18.4942 3.10699C16.5068 1.11832 13.8068 0 10.994 0Z" fill="#0050CF"/>
<path d="M5.18744 10.4959C8.28033 9.14873 10.3423 8.26048 11.3732 7.83135C14.3203 6.60596 14.9319 6.39314 15.3313 6.38593C15.4192 6.38452 15.6148 6.40623 15.7424 6.50941C15.8485 6.59643 15.8783 6.71411 15.8932 6.79674C15.9065 6.87928 15.9247 7.06741 15.9098 7.21426C15.7507 8.89165 15.0595 12.9621 14.7081 14.8409C14.5606 15.6359 14.2672 15.9024 13.9838 15.9284C13.3672 15.9851 12.8998 15.5213 12.3031 15.1303C11.3699 14.5182 10.8428 14.1373 9.93618 13.5401C8.88864 12.8499 9.56821 12.4705 10.1649 11.8506C10.3207 11.6884 13.0357 9.21951 13.0871 8.99558C13.0937 8.96757 13.1003 8.86314 13.0374 8.80812C12.976 8.75292 12.8849 8.77182 12.8186 8.78673C12.7241 8.80795 11.234 9.79383 8.34332 11.7442C7.92066 12.0349 7.53777 12.1767 7.19301 12.1692C6.8151 12.1611 6.0858 11.955 5.5438 11.779C4.8808 11.563 4.35206 11.4488 4.39847 11.082C4.42167 10.8911 4.68522 10.6957 5.18744 10.4959Z" fill="white"/>
</svg>
