<svg width="14" height="22" viewBox="0 0 14 22" fill="none" xmlns="http://www.w3.org/2000/svg">
<path d="M5.97191 14.9437C4.3272 14.7722 2.84425 14.3671 1.57461 13.3741C1.41707 13.2506 1.25443 13.1315 1.11066 12.9935C0.554946 12.4598 0.498952 11.8485 0.938682 11.2186C1.31486 10.6795 1.94635 10.5353 2.60272 10.8449C2.72982 10.9049 2.85092 10.9797 2.9669 11.0602C5.33309 12.686 8.58363 12.7309 10.9587 11.1333C11.194 10.9528 11.4455 10.8058 11.7371 10.7307C12.3039 10.5851 12.8325 10.7933 13.1367 11.2893C13.4842 11.8556 13.4798 12.4085 13.0516 12.8482C12.3948 13.5223 11.6049 14.0101 10.7272 14.3505C9.89726 14.6722 8.98825 14.8342 8.08857 14.9417C8.22433 15.0895 8.28832 15.1622 8.3732 15.2475C9.59485 16.4749 10.8218 17.6972 12.0395 18.9284C12.4543 19.3479 12.541 19.8681 12.3126 20.356C12.0628 20.8893 11.5038 21.2402 10.9556 21.2026C10.6083 21.1786 10.3374 21.0058 10.0968 20.7633C9.17489 19.8357 8.23566 18.9251 7.33243 17.9799C7.06957 17.705 6.94314 17.757 6.71116 17.9956C5.78371 18.9504 4.84115 19.8905 3.89303 20.8253C3.46729 21.2451 2.96068 21.3206 2.46696 21.0809C1.94213 20.8264 1.60816 20.2907 1.63394 19.7523C1.65172 19.3881 1.83081 19.11 2.08078 18.8604C3.28976 17.6532 4.4954 16.4429 5.7015 15.2337C5.78126 15.1533 5.8557 15.068 5.97191 14.9437Z" fill="#0050CF"/>
<path d="M6.97236 10.7387C4.03823 10.7287 1.63227 8.29635 1.64938 5.35756C1.66627 2.38633 4.07378 -0.00807815 7.03679 0.000143178C10.0058 0.0081423 12.3889 2.43699 12.374 5.4391C12.3589 8.37189 9.93625 10.749 6.97236 10.7387ZM9.63895 5.36467C9.63384 3.90549 8.47175 2.74384 7.01546 2.74251C5.54696 2.74095 4.37442 3.92371 4.38575 5.39622C4.39664 6.84984 5.56873 8.00327 7.02902 7.99794C8.48486 7.99283 9.64384 6.82362 9.63895 5.36467Z" fill="#0050CF"/>
</svg>
