<svg width="24" height="22" viewBox="0 0 24 22" fill="none" xmlns="http://www.w3.org/2000/svg">
<path d="M16.5476 3.36194H0V21.216H4.60565V15.4074H13.431L17.4577 21.216H22.6148L18.1746 15.3807C19.5537 15.1666 20.5464 14.6579 21.1532 13.855C21.7598 13.052 22.0633 11.7671 22.0633 10.054V8.71557C22.0633 7.69835 21.9531 6.89537 21.76 6.27972C21.5669 5.66408 21.2359 5.12865 20.7671 4.64686C20.2706 4.19181 19.7192 3.87062 19.0572 3.65654C18.3953 3.46921 17.5678 3.36194 16.5476 3.36194ZM15.8029 11.4728H4.60565V7.29678H15.8029C16.4371 7.29678 16.8784 7.40375 17.099 7.59124C17.3197 7.77857 17.4577 8.12651 17.4577 8.63519V10.1342C17.4577 10.6695 17.3197 11.0174 17.099 11.2047C16.8784 11.3921 16.4372 11.4724 15.8029 11.4724V11.4728Z" fill="#0050CF"/>
<path d="M21.6867 3.05607C22.5302 3.05607 23.2145 2.37197 23.2145 1.52804C23.2145 0.684102 22.5302 0 21.6867 0C20.8426 0 20.1584 0.684102 20.1584 1.52804C20.1584 2.37197 20.8426 3.05607 21.6867 3.05607Z" fill="#0050CF"/>
</svg>
