<svg width="117.000000" height="117.000000" viewBox="0 0 117 117" fill="none" xmlns="http://www.w3.org/2000/svg" xmlns:xlink="http://www.w3.org/1999/xlink">
	<desc>
			Created with Pixso.
	</desc>
	<defs/>
	<circle id="Ellipse 36" cx="58.059082" cy="58.000000" r="58.059082" fill="#0050CF" fill-opacity="1.000000"/>
	<path id="Vector" d="M59.88 19.52C81.17 19.52 98.44 36.92 98.44 58.38C98.44 79.83 81.17 97.23 59.88 97.23C38.58 97.23 21.32 79.83 21.32 58.38C21.32 58.15 21.32 57.93 21.33 57.7C21.68 78.11 38.21 94.54 58.54 94.54C79.1 94.54 95.77 77.75 95.77 57.03C95.77 36.54 79.46 19.89 59.21 19.53C59.43 19.53 59.65 19.52 59.88 19.52Z" fill="#B3B3B3" fill-opacity="1.000000" fill-rule="evenodd"/>
	<path id="Vector" d="M58.54 19.52C79.1 19.52 95.77 36.32 95.77 57.03C95.77 77.75 79.1 94.54 58.54 94.54C37.98 94.54 21.32 77.75 21.32 57.03C21.32 56.81 21.32 56.59 21.33 56.37C21.68 76.04 37.61 91.89 57.23 91.89C77.06 91.89 93.13 75.69 93.13 55.7C93.13 35.94 77.41 19.88 57.88 19.53C58.1 19.53 58.32 19.52 58.54 19.52Z" fill="#FFFFFF" fill-opacity="1.000000" fill-rule="evenodd"/>
	<path id="Vector" d="M104.5 33.83C61.87 23.3 15.27 43.21 4.91 60.92C-0.87 70.81 4.59 82.04 28.97 85.87C25.75 81.36 22.4 76.16 21.08 70.71C-0.31 65.19 38.18 46.37 43.8 44.48C64.56 37.53 82.18 31.31 104.5 33.83L104.5 33.83Z" fill="#FFFFFF" fill-opacity="1.000000" fill-rule="evenodd"/>
	<path id="Vector" d="M104.5 33.83C61.87 23.3 15.27 43.21 4.91 60.92C-0.87 70.81 4.59 82.04 28.97 85.87C25.75 81.36 26.84 82.78 23.94 77.97C20.66 78.19 14.4 75.96 11.55 72.78C7.27 68.01 8.84 63.97 12.71 59.93C32.47 39.32 83.69 28.57 104.5 33.83Z" fill="#3A97CD" fill-opacity="1.000000" fill-rule="evenodd"/>
	<path id="Vector" d="M76.25 47.49C76.38 47.71 76.41 48.04 76.47 48.33C76.66 48.52 77.02 48.55 77.25 48.7C77.03 48.84 76.74 48.9 76.5 49.02C76.39 49.3 76.41 49.71 76.22 49.91C76.21 49.59 76.08 49.4 76.06 49.09C75.87 48.89 75.53 48.85 75.26 48.72C75.47 48.57 75.77 48.51 76.02 48.4C76.11 48.11 76.16 47.78 76.25 47.49Z" fill="#FFFFFF" fill-opacity="1.000000" fill-rule="evenodd"/>
	<path id="Vector" d="M70.94 48.9C70.83 49.07 70.75 49.27 70.62 49.43L44.64 49.43C44.57 49.24 44.38 49.06 44.34 48.92C47.32 48.89 50.44 48.97 53.37 48.92C55.72 48.89 59.18 48.9 62 48.9L70.94 48.9L70.94 48.9Z" fill="#FFFFFF" fill-opacity="1.000000" fill-rule="evenodd"/>
	<path id="Vector" d="M44.67 49.59C53.29 49.62 62.04 49.53 70.61 49.64C70.69 50.04 70.42 50.02 70.14 50.02L57.45 50.02C56.34 50.02 55.04 50 54.26 50C53.52 50 52.59 50 51.43 50L44.65 50C44.63 49.91 44.66 49.8 44.65 49.66C44.65 49.63 44.65 49.59 44.67 49.59L44.67 49.59Z" fill="#FFFFFF" fill-opacity="1.000000" fill-rule="evenodd"/>
	<path id="Vector" d="M44.97 52.09L44.97 52.61C42.45 52.6 40.72 52.64 38.38 52.64L31.49 52.64C31.48 52.49 31.35 52.23 31.47 52.11C35.97 52.06 40.38 52.1 44.97 52.09Z" fill="#FFFFFF" fill-opacity="1.000000" fill-rule="evenodd"/>
	<path id="Vector" d="M70.37 52.09C74.96 52.09 79.48 52.1 83.81 52.09C83.86 52.23 83.82 52.46 83.83 52.64C79.29 52.63 74.85 52.61 70.32 52.59L70.32 52.16C70.34 52.14 70.34 52.09 70.37 52.09L70.37 52.09Z" fill="#FFFFFF" fill-opacity="1.000000" fill-rule="evenodd"/>
	<path id="Vector" d="M70.35 52.76C74.83 52.77 79.29 52.78 83.74 52.8C83.7 52.91 83.59 52.95 83.58 53.08C83.48 53.11 83.54 53.31 83.49 53.33C83.47 53.34 83.47 53.27 83.44 53.28C83.36 53.33 83.37 53.34 83.28 53.35C82.37 53.45 81.06 53.35 80.18 53.35C76.84 53.35 73.58 53.32 70.32 53.33L70.32 52.83C70.32 52.79 70.32 52.76 70.35 52.76L70.35 52.76Z" fill="#FFFFFF" fill-opacity="1.000000" fill-rule="evenodd"/>
	<path id="Vector" d="M44.97 52.79C45 52.91 45 53.11 45 53.31L31.9 53.31C31.76 53.16 31.6 53.02 31.51 52.81C32.96 52.78 34.54 52.85 35.94 52.81C37.11 52.78 38.86 52.79 40.32 52.79L44.97 52.79L44.97 52.79Z" fill="#FFFFFF" fill-opacity="1.000000" fill-rule="evenodd"/>
	<path id="Vector" d="M31.87 53.46L44.99 53.46L44.99 53.94C40.65 53.96 36.2 54.02 31.89 54C31.79 53.93 31.88 53.67 31.85 53.53C31.85 53.49 31.84 53.46 31.87 53.46L31.87 53.46Z" fill="#FFFFFF" fill-opacity="1.000000" fill-rule="evenodd"/>
	<path id="Vector" d="M70.35 53.49C74.97 53.48 78.97 53.5 83.42 53.51L83.42 53.99C81.09 53.99 78.91 53.99 76.67 53.99C75.45 53.99 74.89 53.97 73.68 53.97L70.32 53.97L70.32 53.56C70.32 53.52 70.32 53.49 70.35 53.49Z" fill="#FFFFFF" fill-opacity="1.000000" fill-rule="evenodd"/>
	<path id="Vector" d="M70.35 54.13L78.7 54.13C79.92 54.13 81.65 54.17 83.36 54.15C83.06 54.46 83.15 55.2 83.15 55.84C83.15 58.66 83.2 61.66 83.17 64.49C79.02 64.5 74.51 64.49 70.31 64.49C70.27 61.31 70.33 57.64 70.33 54.2C70.33 54.16 70.32 54.13 70.35 54.13L70.35 54.13ZM73.43 57.35C73.29 57.34 72.98 57.35 72.77 57.35C72.73 57.7 72.73 58.22 72.77 58.58C73 58.53 73.32 58.58 73.55 58.53C73.49 58.23 73.67 57.54 73.43 57.35ZM71.95 57.35C71.92 57.36 71.89 57.38 71.88 57.41C71.84 57.75 71.84 58.24 71.88 58.58L72.59 58.58L72.59 57.35C72.38 57.34 72.08 57.35 71.95 57.35ZM72.75 58.71L72.75 59.95L73.5 59.95C73.6 59.63 73.52 59.13 73.55 58.74C73.36 58.66 73.03 58.74 72.75 58.71ZM71.86 58.76C71.87 59.15 71.83 59.59 71.88 59.95L72.59 59.95L72.59 58.71C72.35 58.74 72.02 58.66 71.86 58.76ZM72.54 61.11C72.36 61.17 72.04 61.09 71.86 61.16L71.86 62.32C72.08 62.38 72.34 62.31 72.59 62.32C72.56 61.93 72.65 61.42 72.54 61.11ZM72.75 61.13L72.75 62.32C73.02 62.31 73.34 62.35 73.55 62.27C73.54 61.88 73.54 61.48 73.55 61.18C73.34 61.06 73.08 61.16 72.75 61.13ZM72.54 62.46C72.37 62.51 72.09 62.46 71.88 62.48C71.84 62.83 71.84 63.34 71.88 63.69C72.07 63.74 72.36 63.7 72.59 63.71C72.56 63.31 72.65 62.78 72.54 62.46L72.54 62.46ZM72.77 62.46C72.72 62.83 72.76 63.3 72.75 63.71C72.99 63.7 73.29 63.74 73.5 63.69C73.59 63.38 73.54 62.75 73.52 62.48C73.31 62.43 73.02 62.47 72.77 62.46L72.77 62.46Z" fill="#FFFFFF" fill-opacity="1.000000" fill-rule="evenodd"/>
	<path id="Vector" d="M45.2 63.22C53.23 63.22 61.41 63.22 69.5 63.22C69.59 63.22 69.76 63.21 69.89 63.22C69.96 63.23 70.18 63.17 70.11 63.38C70.18 63.6 69.94 63.54 69.86 63.54C69 63.61 68.01 63.54 67.12 63.54C59.87 63.54 52.36 63.58 45.18 63.5L45.18 63.29C45.17 63.26 45.17 63.23 45.2 63.22L45.2 63.22Z" fill="#FFFFFF" fill-opacity="1.000000" fill-rule="evenodd"/>
	<path id="Vector" d="M48.06 65.55C48.03 66.01 48.04 66.52 48.04 67.01L47.05 67.01C47.07 66.53 47.02 65.99 47.08 65.55C47.37 65.48 47.73 65.49 48.06 65.55Z" fill="#FFFFFF" fill-opacity="1.000000" fill-rule="evenodd"/>
	<path id="Vector" d="M49.03 65.53C49.08 65.85 49.04 66.58 49.06 66.99C48.81 67.05 48.47 67 48.19 67.02C48.18 66.46 48.21 66.04 48.21 65.53C48.5 65.52 48.78 65.5 49.03 65.53L49.03 65.53Z" fill="#FFFFFF" fill-opacity="1.000000" fill-rule="evenodd"/>
	<path id="Vector" d="M53 65.54C52.99 66.03 53.03 66.58 52.98 67.04L52.02 67.04C52.04 66.55 51.99 65.99 52.05 65.54C52.3 65.52 52.74 65.51 53 65.54L53 65.54Z" fill="#FFFFFF" fill-opacity="1.000000" fill-rule="evenodd"/>
	<path id="Vector" d="M53.17 65.5C53.53 65.53 53.72 65.49 54.06 65.53C54.11 65.98 54.07 66.54 54.08 67.03L53.17 67.03L53.17 65.5Z" fill="#FFFFFF" fill-opacity="1.000000" fill-rule="evenodd"/>
	<path id="Vector" d="M62.04 65.53C62.05 66.02 62.01 66.64 62.06 67.02C61.8 67.07 61.45 67.02 61.15 67.04L61.15 65.53C61.42 65.52 61.67 65.51 62.04 65.53Z" fill="#FFFFFF" fill-opacity="1.000000" fill-rule="evenodd"/>
	<path id="Vector" d="M63.18 65.56C63.13 65.92 63.17 66.64 63.16 67.04L62.22 67.04C62.24 66.55 62.19 65.99 62.25 65.54C62.58 65.53 62.81 65.48 63.18 65.56Z" fill="#FFFFFF" fill-opacity="1.000000" fill-rule="evenodd"/>
	<path id="Vector" d="M67.11 65.53L67.11 67.06C66.8 67.05 66.43 67.09 66.15 67.04C66.17 66.54 66.12 65.99 66.18 65.53C66.48 65.51 66.73 65.52 67.11 65.53Z" fill="#FFFFFF" fill-opacity="1.000000" fill-rule="evenodd"/>
	<path id="Vector" d="M68.17 65.53L68.17 67.05L67.26 67.05C67.24 66.46 67.29 66.06 67.28 65.5C67.69 65.52 67.84 65.5 68.17 65.53Z" fill="#FFFFFF" fill-opacity="1.000000" fill-rule="evenodd"/>
	<path id="Vector" d="M42.59 66C42.66 66.36 42.58 66.77 42.59 67.16C42.39 67.21 42.09 67.17 41.84 67.18C41.85 66.87 41.82 66.2 41.84 66.02C41.86 66.01 41.86 66 41.89 66L42.59 66Z" fill="#FFFFFF" fill-opacity="1.000000" fill-rule="evenodd"/>
	<path id="Vector" d="M43.47 66.01C43.53 66.34 43.48 66.78 43.5 67.15C43.19 67.14 43.09 67.18 42.79 67.17C42.72 66.76 42.82 66.45 42.79 65.99C43.01 66 43.29 65.96 43.47 66.01L43.47 66.01Z" fill="#FFFFFF" fill-opacity="1.000000" fill-rule="evenodd"/>
	<path id="Vector" d="M72.56 66C72.55 66.47 72.57 66.85 72.58 67.21C72.37 67.25 72.01 67.23 71.85 67.21C71.89 66.82 71.77 66.27 71.92 66L72.56 66Z" fill="#FFFFFF" fill-opacity="1.000000" fill-rule="evenodd"/>
	<path id="Vector" d="M73.52 66.03C73.51 66.25 73.55 66.97 73.5 67.22C73.29 67.27 73.01 67.19 72.75 67.22C72.73 66.93 72.69 66.39 72.75 65.99C72.99 66.01 73.35 65.94 73.52 66.03Z" fill="#FFFFFF" fill-opacity="1.000000" fill-rule="evenodd"/>
	<path id="Vector" d="M48.01 67.19C48.05 67.63 48.05 68.23 48.01 68.67C47.75 68.71 47.34 68.71 47.08 68.67C47.02 68.22 47.07 67.67 47.05 67.19L48.01 67.19Z" fill="#FFFFFF" fill-opacity="1.000000" fill-rule="evenodd"/>
	<path id="Vector" d="M49.03 67.2C49.07 67.64 49.07 68.22 49.03 68.66C48.79 68.71 48.46 68.67 48.19 68.68L48.19 67.18C48.46 67.19 48.79 67.15 49.03 67.2L49.03 67.2Z" fill="#FFFFFF" fill-opacity="1.000000" fill-rule="evenodd"/>
	<path id="Vector" d="M53 67.2C53 67.69 53.01 68.34 52.98 68.66C52.72 68.7 52.31 68.7 52.05 68.66C51.99 68.22 52.04 67.68 52.02 67.2L53 67.2Z" fill="#FFFFFF" fill-opacity="1.000000" fill-rule="evenodd"/>
	<path id="Vector" d="M54.07 67.2L54.07 68.64C53.84 68.73 53.45 68.66 53.15 68.68C53.09 68.04 53.17 67.77 53.15 67.2L54.07 67.2Z" fill="#FFFFFF" fill-opacity="1.000000" fill-rule="evenodd"/>
	<path id="Vector" d="M62.06 67.21C62.05 67.69 62.09 68.23 62.04 68.67L61.17 68.67C61.12 68.22 61.17 67.68 61.15 67.19C61.45 67.21 61.8 67.16 62.06 67.21Z" fill="#FFFFFF" fill-opacity="1.000000" fill-rule="evenodd"/>
	<path id="Vector" d="M63.14 67.2C63.18 67.62 63.16 68.32 63.16 68.64C62.95 68.72 62.49 68.69 62.25 68.66C62.19 68.22 62.24 67.68 62.22 67.2L63.14 67.2Z" fill="#FFFFFF" fill-opacity="1.000000" fill-rule="evenodd"/>
	<path id="Vector" d="M67.11 67.23C67.1 67.7 67.14 68.23 67.09 68.67C66.83 68.71 66.43 68.7 66.18 68.67C66.12 68.23 66.17 67.7 66.15 67.23L67.11 67.23Z" fill="#FFFFFF" fill-opacity="1.000000" fill-rule="evenodd"/>
	<path id="Vector" d="M68.18 67.23C68.17 67.71 68.21 68.25 68.16 68.69L67.27 68.69L67.27 67.23L68.18 67.23Z" fill="#FFFFFF" fill-opacity="1.000000" fill-rule="evenodd"/>
	<path id="Vector" d="M43.48 67.34C43.51 67.71 43.51 68.24 43.48 68.61C43.29 68.62 42.94 68.61 42.77 68.61C42.78 68.19 42.74 67.7 42.79 67.31C43.02 67.32 43.29 67.29 43.48 67.34L43.48 67.34Z" fill="#FFFFFF" fill-opacity="1.000000" fill-rule="evenodd"/>
	<path id="Vector" d="M42.6 67.34L42.6 68.62C42.34 68.6 42.04 68.63 41.85 68.62C41.85 68.27 41.85 67.69 41.85 67.34L42.6 67.34Z" fill="#FFFFFF" fill-opacity="1.000000" fill-rule="evenodd"/>
	<path id="Vector" d="M72.58 67.39L72.58 68.62C72.43 68.62 72.03 68.62 71.88 68.62C71.87 68.34 71.78 67.64 71.92 67.36C72.12 67.39 72.35 67.39 72.58 67.39Z" fill="#FFFFFF" fill-opacity="1.000000" fill-rule="evenodd"/>
	<path id="Vector" d="M73.48 67.4C73.52 67.74 73.52 68.34 73.48 68.61C73.29 68.63 72.99 68.6 72.73 68.61L72.73 67.38C73.01 67.38 73.29 67.37 73.48 67.4Z" fill="#FFFFFF" fill-opacity="1.000000" fill-rule="evenodd"/>
	<path id="Vector" d="M58.7 69.17L58.7 69.65C57.8 69.66 57.34 69.61 56.49 69.62C56.5 69.48 56.46 69.28 56.51 69.17C57.11 69.14 57.89 69.18 58.7 69.17Z" fill="#FFFFFF" fill-opacity="1.000000" fill-rule="evenodd"/>
	<path id="Vector" d="M42.57 69.68C42.56 70.1 42.6 70.58 42.55 70.96L41.87 70.96C41.84 70.58 41.81 69.99 41.87 69.68C42.04 69.67 42.33 69.69 42.57 69.68Z" fill="#FFFFFF" fill-opacity="1.000000" fill-rule="evenodd"/>
	<path id="Vector" d="M43.49 69.73C43.48 70.13 43.52 70.58 43.47 70.94C43.23 70.93 42.92 70.95 42.74 70.94C42.76 70.53 42.71 70.06 42.76 69.69C43.04 69.71 43.35 69.63 43.49 69.73Z" fill="#FFFFFF" fill-opacity="1.000000" fill-rule="evenodd"/>
	<path id="Vector" d="M72.6 69.68C72.61 69.96 72.59 70.52 72.6 70.94L71.87 70.94C71.82 70.51 71.84 70.03 71.87 69.7C72.06 69.66 72.44 69.69 72.6 69.68Z" fill="#FFFFFF" fill-opacity="1.000000" fill-rule="evenodd"/>
	<path id="Vector" d="M73.51 69.73C73.51 69.98 73.54 70.59 73.49 70.94L72.76 70.94C72.77 70.53 72.73 70.06 72.78 69.69C73.04 69.72 73.38 69.62 73.51 69.73Z" fill="#FFFFFF" fill-opacity="1.000000" fill-rule="evenodd"/>
	<path id="Vector" d="M57.5 69.84L57.5 72.17C57.31 72.2 56.82 72.21 56.56 72.17C56.54 71.45 56.49 70.52 56.52 69.84L57.5 69.84Z" fill="#FFFFFF" fill-opacity="1.000000" fill-rule="evenodd"/>
	<path id="Vector" d="M58.63 69.84C58.61 70.6 58.66 71.53 58.6 72.17C58.37 72.21 57.98 72.21 57.74 72.17C57.72 71.58 57.73 70.63 57.76 69.84L58.63 69.84Z" fill="#FFFFFF" fill-opacity="1.000000" fill-rule="evenodd"/>
	<path id="Vector" d="M48.01 70.16C48 70.65 48.04 71.2 47.99 71.65C47.67 71.64 47.34 71.66 47.05 71.62C47.07 71.14 47.02 70.6 47.08 70.16C47.35 70.15 47.7 70.16 48.01 70.16Z" fill="#FFFFFF" fill-opacity="1.000000" fill-rule="evenodd"/>
	<path id="Vector" d="M49.03 71.64L48.16 71.64C48.18 71.16 48.13 70.61 48.19 70.16C48.21 70.15 48.23 70.13 48.23 70.16C48.42 70.19 48.9 70.07 49.05 70.23C49.17 70.27 48.97 70.29 49.05 70.39C49.04 70.81 49.08 71.32 49.03 71.64Z" fill="#FFFFFF" fill-opacity="1.000000" fill-rule="evenodd"/>
	<path id="Vector" d="M52.98 70.16L52.98 71.67C52.74 71.68 52.34 71.66 52.02 71.67C52.04 71.17 51.99 70.62 52.05 70.16C52.25 70.15 52.73 70.16 52.98 70.16Z" fill="#FFFFFF" fill-opacity="1.000000" fill-rule="evenodd"/>
	<path id="Vector" d="M54.05 70.16C54.1 70.62 54.05 71.17 54.07 71.67C53.81 71.72 53.45 71.68 53.16 71.69C53.1 71.23 53.15 70.66 53.13 70.16C53.37 70.16 53.77 70.16 54.05 70.16Z" fill="#FFFFFF" fill-opacity="1.000000" fill-rule="evenodd"/>
	<path id="Vector" d="M62.07 70.17C62.03 70.72 62.13 71.25 62.06 71.76L61.17 71.76C61.13 71.29 61.16 70.62 61.15 70.19C61.29 70.12 61.82 70.19 62.07 70.17Z" fill="#FFFFFF" fill-opacity="1.000000" fill-rule="evenodd"/>
	<path id="Vector" d="M63.16 70.19C63.14 70.6 63.22 71.31 63.11 71.72C62.92 71.83 62.52 71.74 62.25 71.77C62.29 71.23 62.15 70.64 62.27 70.17C62.54 70.19 62.95 70.12 63.16 70.19Z" fill="#FFFFFF" fill-opacity="1.000000" fill-rule="evenodd"/>
	<path id="Vector" d="M67.09 70.16C67.08 70.69 67.12 71.27 67.07 71.76L66.18 71.76C66.14 71.28 66.13 70.56 66.18 70.16C66.37 70.16 66.84 70.16 67.09 70.16Z" fill="#FFFFFF" fill-opacity="1.000000" fill-rule="evenodd"/>
	<path id="Vector" d="M68.16 70.17C68.2 70.65 68.2 71.28 68.16 71.76L67.25 71.76C67.26 71.23 67.22 70.64 67.27 70.14C67.53 70.2 68 70.14 68.16 70.17Z" fill="#FFFFFF" fill-opacity="1.000000" fill-rule="evenodd"/>
	<path id="Vector" d="M42.59 71.13C42.6 71.58 42.55 71.83 42.56 72.27C42.32 72.24 42 72.32 41.86 72.24C41.83 71.96 41.89 71.39 41.83 71.15C42.09 71.12 42.32 71.07 42.59 71.13Z" fill="#FFFFFF" fill-opacity="1.000000" fill-rule="evenodd"/>
	<path id="Vector" d="M42.73 71.1L43.48 71.1L43.48 72.24C43.31 72.3 42.94 72.26 42.75 72.27C42.69 72 42.75 71.48 42.73 71.1Z" fill="#FFFFFF" fill-opacity="1.000000" fill-rule="evenodd"/>
	<path id="Vector" d="M71.85 71.1L72.6 71.1C72.59 71.53 72.61 72.06 72.58 72.27C72.42 72.26 71.99 72.3 71.87 72.24C71.82 71.91 71.86 71.48 71.85 71.1L71.85 71.1Z" fill="#FFFFFF" fill-opacity="1.000000" fill-rule="evenodd"/>
	<path id="Vector" d="M72.75 71.1L73.53 71.1C73.49 71.42 73.49 72.02 73.53 72.2C73.41 72.34 72.97 72.25 72.73 72.24C72.75 71.88 72.76 71.5 72.75 71.1Z" fill="#FFFFFF" fill-opacity="1.000000" fill-rule="evenodd"/>
	<path id="Vector" d="M48.01 71.83C47.99 72.27 47.99 72.78 47.99 73.29C47.69 73.29 47.31 73.3 47.08 73.29C47.02 72.85 47.07 72.31 47.05 71.83C47.39 71.73 47.64 71.82 48.01 71.83Z" fill="#FFFFFF" fill-opacity="1.000000" fill-rule="evenodd"/>
	<path id="Vector" d="M49.04 71.81C49.08 72.02 49.06 72.3 49.06 72.57C49.06 72.83 49.07 73.11 49.06 73.25C48.9 73.36 48.4 73.27 48.17 73.3C48.1 72.82 48.2 72.32 48.17 71.81L49.04 71.81L49.04 71.81Z" fill="#FFFFFF" fill-opacity="1.000000" fill-rule="evenodd"/>
	<path id="Vector" d="M52.98 71.83L52.98 73.29C52.74 73.29 52.33 73.28 52.02 73.29L52.02 71.83L52.98 71.83Z" fill="#FFFFFF" fill-opacity="1.000000" fill-rule="evenodd"/>
	<path id="Vector" d="M53.13 71.83C53.35 71.85 53.71 71.86 54.07 71.85L54.07 73.26C53.87 73.36 53.27 73.2 53.16 73.36C53.1 72.89 53.15 72.33 53.13 71.83Z" fill="#FFFFFF" fill-opacity="1.000000" fill-rule="evenodd"/>
	<path id="Vector" d="M62.09 71.92L62.09 73.29C61.78 73.29 61.38 73.3 61.15 73.29C61.14 72.92 61.15 72.37 61.15 71.92L62.09 71.92Z" fill="#FFFFFF" fill-opacity="1.000000" fill-rule="evenodd"/>
	<path id="Vector" d="M63.16 71.92C63.16 72.36 63.16 72.9 63.16 73.27C62.95 73.33 62.56 73.27 62.25 73.29L62.25 71.92L63.16 71.92Z" fill="#FFFFFF" fill-opacity="1.000000" fill-rule="evenodd"/>
	<path id="Vector" d="M67.09 71.92C67.09 72.39 67.05 72.81 67.06 73.29C66.84 73.29 66.4 73.32 66.15 73.27C66.15 72.91 66.15 72.36 66.15 71.92L67.09 71.92Z" fill="#FFFFFF" fill-opacity="1.000000" fill-rule="evenodd"/>
	<path id="Vector" d="M68.17 71.92L68.17 73.27C67.9 73.31 67.46 73.29 67.22 73.29C67.21 72.8 67.21 72.33 67.24 71.92L68.17 71.92Z" fill="#FFFFFF" fill-opacity="1.000000" fill-rule="evenodd"/>
	<path id="Vector" d="M57.5 72.4L57.5 73.93C57.22 73.96 56.77 73.98 56.56 73.93C56.51 73.47 56.56 72.9 56.54 72.4L57.5 72.4Z" fill="#FFFFFF" fill-opacity="1.000000" fill-rule="evenodd"/>
	<path id="Vector" d="M58.62 72.39C58.63 72.61 58.62 72.91 58.62 73.21C58.62 73.5 58.66 73.8 58.57 73.97C58.35 73.91 57.94 73.96 57.75 73.94C57.65 73.52 57.74 72.91 57.71 72.42C57.97 72.36 58.32 72.41 58.62 72.39L58.62 72.39Z" fill="#FFFFFF" fill-opacity="1.000000" fill-rule="evenodd"/>
	<path id="Vector" d="M45.11 64.85C45.21 65.46 45.16 66.36 45.16 67.2C45.16 69.8 45.13 72.24 45.13 74.82C47.41 74.86 50.19 74.84 52.66 74.84C52.98 74.84 53.51 74.92 53.74 74.84C53.91 74.78 53.77 74.7 53.94 74.63C54.28 74.51 54.79 74.71 55.08 74.66C55.1 73.03 55.1 71.94 55.11 70.34C55.11 69.74 54.99 68.8 55.26 67.97C55.59 66.98 56.79 66.02 58.34 66.44C59.03 66.63 59.44 67.08 59.74 67.56C60.09 68.14 60.08 68.78 60.08 69.66L60.08 74.63C60.36 74.79 61.28 74.48 61.47 74.7C61.5 74.73 61.41 74.86 61.54 74.84C63.14 74.84 64.55 74.84 65.9 74.84C67.46 74.84 68.89 74.85 70.16 74.84C70.2 71.96 70.1 67.99 70.21 64.96C70.23 64.95 70.25 64.93 70.26 64.96C70.46 64.8 70.75 64.87 70.98 64.87C74.98 64.87 79.18 64.85 83.17 64.89C83.25 68 83.23 72.31 83.19 74.93C76.58 74.99 69.66 74.98 62.86 74.98C62.46 74.98 61.77 74.88 61.52 74.98C61.44 75.01 61.37 75.18 61.31 75.25C60.69 76 59.01 76.25 57.61 76.25C56.02 76.25 54.43 75.96 53.8 74.98C46.59 74.96 39.31 75.01 32.13 74.95C32.07 71.82 32.12 68.11 32.15 64.89C36.42 64.82 40.85 64.91 45.11 64.85L45.11 64.85ZM55.95 67.58C55.89 67.68 55.79 67.82 55.73 67.99C55.63 68.24 55.58 68.54 55.63 68.7C55.64 68.72 55.7 68.7 55.72 68.7C55.72 67.65 56.48 67.01 57.46 66.95C58.11 66.9 59.09 67.25 59.34 67.85C59.47 68.03 59.44 68.45 59.53 68.7C59.56 68.69 59.59 68.71 59.6 68.68C59.66 68.55 59.57 68.23 59.56 68.23C59.39 67.19 58.09 66.64 56.93 66.93C56.56 67.02 56.22 67.25 55.95 67.58L55.95 67.58ZM32.29 65.26C32.25 68.46 32.24 71.71 32.24 74.84C33.05 74.83 33.98 74.87 34.8 74.86C35.54 74.85 36.88 74.84 37.99 74.84C40.27 74.84 42.7 74.84 44.97 74.84C45.01 71.55 45.02 68.51 45.02 65.19L32.31 65.19C32.29 65.19 32.29 65.22 32.29 65.26ZM70.32 65.26C70.31 66.85 70.3 68.27 70.3 69.8C70.3 71.47 70.33 72.46 70.3 74.84C74.48 74.82 79.02 74.86 83.1 74.77C83.03 71.73 83.12 68.23 83.05 65.19L70.35 65.19C70.32 65.19 70.32 65.22 70.32 65.26ZM59.3 67.15C58.91 66.77 58.24 66.4 57.46 66.47C56.17 66.57 55.39 67.43 55.24 68.7C55.39 68.7 55.43 68.73 55.54 68.7C55.31 66.17 59.92 66.1 59.69 68.7C59.79 68.73 59.83 68.69 59.96 68.7C59.95 68.11 59.69 67.52 59.3 67.15ZM59.28 67.98C59.27 67.98 59.19 67.82 59.19 67.81C58.58 66.84 56.81 66.79 56.09 67.79C56 67.91 55.89 68.09 55.86 68.25C55.84 68.33 55.82 68.57 55.84 68.68C55.84 68.71 55.9 68.7 55.93 68.7C56.01 68.36 56.09 68.01 56.31 67.77C57.19 66.78 59.28 67.22 59.33 68.7C59.37 68.69 59.4 68.72 59.41 68.68C59.47 68.5 59.3 68.15 59.28 67.98ZM58.77 67.71C58.68 67.66 58.68 67.66 58.68 67.65C58.68 67.65 58.66 67.64 58.59 67.58C58.41 67.42 58.02 67.33 57.8 67.31C56.93 67.22 56.08 67.81 56.06 68.7C56.24 68.69 56.33 68.72 56.47 68.7C56.54 68.1 56.98 67.67 57.51 67.63C57.58 67.85 57.51 68.38 57.52 68.61C57.52 68.66 57.5 68.69 57.55 68.7C57.58 68.7 57.57 68.7 57.59 68.7C57.66 68.47 57.57 67.93 57.64 67.63C58.19 67.7 58.7 68.08 58.71 68.7L59.19 68.7C59.15 68.29 59.03 67.89 58.77 67.71ZM55.24 68.86C55.24 70.59 55.24 72.44 55.24 74.09C55.34 74.11 55.42 74.08 55.56 74.09C55.53 72.33 55.57 70.6 55.54 68.86L55.24 68.86ZM55.65 68.86C55.66 70.12 55.63 73.28 55.65 74.07C55.65 74.12 55.75 74.08 55.75 74.06C55.77 72.57 55.79 70.64 55.74 69.14C55.74 69.1 55.73 69.01 55.73 68.94C55.73 68.9 55.75 68.87 55.7 68.86L55.65 68.86ZM55.86 68.86L55.86 68.93C55.89 70.13 55.82 71.43 55.81 72.7C55.81 73.02 55.81 73.55 55.82 73.86C55.81 73.97 55.8 74.08 55.93 74.09C56.06 74.11 55.97 73.67 55.97 73.54C55.97 72.05 56.02 70.56 55.97 69.14C55.97 69.07 56.03 68.89 55.9 68.86L55.86 68.86L55.86 68.86ZM56.06 68.93L56.06 73.56C56.06 73.67 55.99 74.11 56.18 74.09C56.33 74.07 56.28 74.02 56.29 73.88C56.3 73.79 56.29 73.68 56.29 73.56C56.29 72.01 56.27 70.39 56.31 68.95C57.17 68.97 58.09 68.92 58.92 68.98C58.88 70.48 58.94 72.05 58.89 73.56C58.89 73.73 58.79 74.06 58.98 74.09C59.21 74.12 59.14 73.78 59.14 73.58C59.14 71.98 59.19 70.33 59.17 68.86L56.09 68.86C56.06 68.87 56.06 68.9 56.06 68.93ZM59.28 68.86L59.28 68.93C59.26 70.4 59.23 72 59.23 73.52C59.23 73.66 59.17 74.1 59.3 74.09C59.44 74.07 59.39 73.69 59.39 73.52C59.39 72.03 59.45 70.56 59.39 69.14C59.39 69.06 59.45 68.89 59.33 68.86L59.28 68.86L59.28 68.86ZM59.49 68.86L59.49 73.49C59.49 73.69 59.43 73.93 59.55 74.09C59.59 72.56 59.66 70.72 59.6 69.14C59.6 69.07 59.66 68.89 59.53 68.86L59.49 68.86ZM59.69 68.93C59.69 70.42 59.69 72.1 59.69 73.61C59.69 73.77 59.59 74.15 59.9 74.09C60 72.42 59.91 70.57 59.94 68.86L59.71 68.86C59.69 68.87 59.69 68.9 59.69 68.93ZM56.38 74.09L58.78 74.09C58.84 72.45 58.8 70.72 58.85 69.07C58.09 69.01 57.18 69.05 56.38 69.04C56.35 69.05 56.38 73.65 56.38 74.09ZM55.24 74.29C55.27 74.49 55.48 74.59 55.65 74.68C56.69 75.24 58.56 75.24 59.6 74.7C59.78 74.61 60.01 74.48 59.94 74.25C58.42 74.22 56.65 74.18 55.24 74.29ZM55.17 74.84C56.11 75.83 58.88 75.85 59.96 74.98C59.94 74.87 59.94 74.74 59.94 74.61C58.84 75.4 56.24 75.41 55.24 74.52C55.2 74.64 55.28 74.76 55.17 74.84ZM54.01 74.84C54.01 74.91 54.01 75.03 54.03 75.11C54.16 75.5 54.88 75.72 55.38 75.87C56.99 76.33 59.62 76.25 60.81 75.55C61.03 75.42 61.38 75.18 61.24 74.82C60.97 74.85 60.6 74.7 60.28 74.79C60.18 74.83 60.11 74.95 60.03 75.02C59.02 75.88 56.7 75.92 55.52 75.23C55.35 75.13 55.17 74.87 54.97 74.79C54.78 74.72 54.39 74.8 54.06 74.77C54.02 74.78 54.03 74.82 54.01 74.84Z" fill="#FFFFFF" fill-opacity="1.000000" fill-rule="evenodd"/>
	<path id="Vector" d="M71.07 48.2C71.15 48.37 71.11 48.54 71.05 48.68C70.97 48.81 70.79 48.75 70.68 48.75C67.44 48.77 64.15 48.75 60.85 48.75C59.77 48.75 58.49 48.75 57.63 48.77C53.58 48.86 48.57 48.74 44.22 48.72L44.22 48.29C48.3 48.2 54.52 48.24 53.78 48.18C59.14 48.16 65.45 48.11 71.07 48.2L71.07 48.2Z" fill="#FFFFFF" fill-opacity="1.000000" fill-rule="evenodd"/>
	<path id="Vector" d="M44.76 50.16L61.1 50.16C62.31 50.16 62.76 50.18 63.88 50.18L70.41 50.18C70.37 50.44 70.22 50.5 70.18 50.73C70.1 51.19 70.18 51.76 70.18 52.28C70.18 55.67 70.13 59.46 70.11 62.87C68.04 62.89 65.71 62.85 63.81 62.87C61.8 62.88 59.87 62.87 57.77 62.87C53.17 62.87 49.01 62.88 45.17 62.87C45.16 59.32 45.13 55.08 45.13 51.55C45.13 51.29 45.17 50.97 45.13 50.8C45.1 50.7 45.08 50.74 45.01 50.66C44.91 50.53 44.88 50.34 44.74 50.23C44.74 50.19 44.74 50.16 44.76 50.16L44.76 50.16ZM46.77 52.67C46.71 53.14 46.76 53.9 46.75 54.49L47.68 54.49C47.72 53.93 47.72 53.21 47.68 52.65C47.38 52.66 47.03 52.62 46.77 52.67ZM47.84 54.49C48.08 54.5 48.47 54.49 48.78 54.49L48.78 52.67C48.52 52.62 48.18 52.65 47.89 52.65C47.78 53.17 47.87 53.89 47.84 54.49ZM48.94 52.65L48.94 54.49C49.27 54.49 49.52 54.52 49.8 54.49C49.8 53.9 49.81 53.19 49.8 52.67C49.56 52.62 49.22 52.66 48.94 52.65ZM51.4 52.65C51.3 53.17 51.39 53.89 51.36 54.49C51.56 54.53 51.98 54.51 52.29 54.52C52.34 53.95 52.3 53.28 52.31 52.67C52.06 52.61 51.62 52.67 51.4 52.65ZM52.47 52.65C52.5 53.38 52.41 53.84 52.47 54.52L53.32 54.52C53.36 53.95 53.36 53.22 53.32 52.65L52.47 52.65ZM53.5 52.69C53.52 53.29 53.47 53.95 53.52 54.52L54.41 54.52C54.45 53.94 54.45 53.22 54.41 52.65C54.12 52.67 53.72 52.59 53.5 52.69ZM56.01 52.65C55.92 53.17 55.96 53.95 55.99 54.52L56.9 54.52C56.95 53.95 56.91 53.28 56.92 52.67C56.66 52.62 56.31 52.66 56.01 52.65ZM57.13 52.65C57.02 53.18 57.11 53.91 57.08 54.52L57.95 54.52C57.93 53.9 57.98 53.22 57.93 52.65L57.13 52.65L57.13 52.65ZM58.13 52.65C58.06 53.38 58.1 53.74 58.11 54.52L59.02 54.52C59.06 53.95 59.06 53.23 59.02 52.67C58.77 52.62 58.42 52.66 58.13 52.65ZM60.78 52.69C60.8 53.11 60.73 54.1 60.8 54.52C61.08 54.52 61.41 54.53 61.65 54.52C61.68 53.94 61.68 53.22 61.65 52.65C61.37 52.67 60.98 52.59 60.78 52.69ZM61.85 52.67C61.85 52.61 61.79 52.68 61.81 52.71L61.81 54.52C62.13 54.54 62.34 54.53 62.74 54.54C62.78 53.96 62.78 53.22 62.74 52.65C62.45 52.66 62.11 52.62 61.85 52.67L61.85 52.67ZM62.9 52.69C62.92 53.29 62.87 53.95 62.92 54.52C63.16 54.56 63.55 54.55 63.79 54.52C63.83 53.95 63.83 53.23 63.79 52.67C63.55 52.64 63.11 52.6 62.9 52.69ZM65.43 52.71C65.45 53.32 65.4 53.97 65.46 54.54L66.37 54.54C66.4 53.96 66.41 53.24 66.37 52.67C66.12 52.62 65.79 52.66 65.5 52.65C65.47 52.66 65.45 52.68 65.43 52.71ZM66.57 52.65C66.5 53.09 66.52 53.93 66.55 54.54L67.42 54.54L67.42 52.67C67.18 52.62 66.85 52.66 66.57 52.65L66.57 52.65ZM67.58 54.54L68.49 54.54C68.54 53.96 68.5 53.28 68.51 52.67C68.24 52.63 67.91 52.65 67.6 52.65C67.51 53.12 67.56 53.96 67.58 54.54L67.58 54.54ZM46.75 54.65L46.75 56.41C46.98 56.5 47.37 56.44 47.68 56.46C47.72 56.01 47.7 55.26 47.71 54.65L46.75 54.65ZM47.84 54.65C47.86 55.25 47.81 55.9 47.87 56.46C48.16 56.44 48.5 56.48 48.75 56.43C48.81 55.89 48.76 55.25 48.78 54.68C48.51 54.62 48.15 54.67 47.84 54.65L47.84 54.65ZM48.94 54.65L48.94 56.46L49.78 56.46C49.83 55.9 49.79 55.25 49.8 54.65L48.94 54.65ZM51.38 54.65C51.33 55.2 51.37 55.85 51.36 56.43C51.55 56.48 51.99 56.45 52.29 56.46C52.33 55.91 52.33 55.2 52.29 54.65L51.38 54.65ZM52.5 54.65C52.41 55.16 52.45 55.91 52.47 56.46C52.71 56.44 53.02 56.46 53.32 56.46C53.36 55.91 53.36 55.2 53.32 54.65L52.5 54.65ZM53.55 54.65C53.44 55.16 53.53 55.85 53.5 56.43C53.76 56.47 54.16 56.47 54.41 56.43C54.45 55.89 54.45 55.19 54.41 54.65L53.55 54.65ZM56.01 54.65C55.92 55.16 55.96 55.91 55.99 56.46C56.28 56.44 56.64 56.48 56.9 56.43C56.94 56.08 56.92 55.27 56.92 54.68C56.66 54.63 56.31 54.66 56.01 54.65L56.01 54.65ZM57.13 54.65C57.1 54.66 57.08 54.68 57.08 54.72C57.09 55.29 57.02 55.89 57.08 56.43C57.32 56.48 57.65 56.44 57.93 56.46C57.98 55.91 57.93 55.26 57.95 54.68C57.65 54.65 57.57 54.67 57.13 54.65L57.13 54.65ZM58.11 54.68C58.08 55.29 58.09 55.76 58.11 56.46C58.41 56.43 58.81 56.51 59.05 56.41L59.05 54.68L58.11 54.68ZM60.78 54.68C60.77 55.09 60.78 55.93 60.78 56.41C60.99 56.5 61.36 56.43 61.65 56.46C61.7 55.91 61.65 55.26 61.67 54.68L60.78 54.68ZM61.83 54.68C61.79 55.21 61.79 55.9 61.83 56.43C62.09 56.48 62.44 56.44 62.74 56.46C62.78 55.91 62.78 55.22 62.74 54.68L61.83 54.68ZM62.95 54.68C62.85 55.17 62.9 55.92 62.92 56.46C63.21 56.44 63.55 56.48 63.79 56.43C63.83 55.9 63.83 55.21 63.79 54.68L62.95 54.68ZM65.48 54.68C65.39 55.16 65.43 55.91 65.46 56.43C65.71 56.47 66.11 56.47 66.37 56.43C66.36 55.81 66.38 55.25 66.39 54.7C66.13 54.65 65.78 54.69 65.48 54.68ZM66.57 54.68C66.48 55.17 66.53 55.92 66.55 56.46L67.4 56.46C67.43 55.91 67.43 55.22 67.4 54.68L66.57 54.68ZM67.6 54.68C67.51 55.16 67.56 56 67.58 56.46C67.88 56.44 68.23 56.48 68.49 56.43C68.54 55.9 68.5 55.27 68.51 54.7C68.25 54.65 67.9 54.68 67.6 54.68L67.6 54.68ZM46.77 58.9C46.72 59.34 46.76 59.88 46.75 60.36C47.07 60.38 47.38 60.4 47.68 60.36L47.68 58.9C47.43 58.85 46.96 58.88 46.77 58.9ZM47.87 58.87C47.76 59.28 47.85 59.88 47.82 60.36C48.03 60.38 48.46 60.4 48.78 60.36C48.76 59.88 48.81 59.35 48.75 58.92C48.54 58.82 48.09 58.91 47.87 58.87ZM48.94 58.87L48.94 60.38C49.25 60.36 49.56 60.4 49.8 60.36C49.79 59.87 49.83 59.32 49.78 58.87L48.94 58.87ZM51.36 58.9L51.36 60.36C51.57 60.37 51.98 60.41 52.29 60.36L52.29 58.9C52.01 58.86 51.59 58.87 51.36 58.9ZM52.45 58.92L52.45 60.36C52.66 60.38 53.14 60.4 53.34 60.36C53.33 59.87 53.37 59.32 53.32 58.87C53.02 58.89 52.62 58.84 52.45 58.92ZM53.52 58.92C53.47 59.35 53.52 59.89 53.5 60.36C53.79 60.39 54.12 60.39 54.44 60.36C54.42 59.88 54.47 59.34 54.41 58.9C54.21 58.89 53.82 58.82 53.52 58.92ZM56.01 58.87C55.91 59.28 55.99 59.88 55.96 60.36C56.16 60.38 56.57 60.4 56.9 60.36C56.89 59.88 56.93 59.34 56.88 58.9C56.63 58.84 56.29 58.89 56.01 58.87ZM57.13 58.87C56.97 59.24 57.1 59.88 57.06 60.36C57.27 60.4 57.62 60.37 57.93 60.38C57.97 59.93 57.96 59.32 57.93 58.87L57.13 58.87ZM59 58.94C58.89 58.8 58.42 58.91 58.13 58.87C58.05 59.49 58.1 59.85 58.11 60.36C58.32 60.4 58.76 60.39 59.05 60.36C59.01 59.9 59.11 59.32 59 58.94ZM60.87 58.87C60.82 58.88 60.83 58.94 60.78 58.94C60.76 59.36 60.75 60 60.78 60.36C61.05 60.38 61.35 60.4 61.67 60.36L61.67 58.9C61.48 58.84 61.12 58.91 60.87 58.87ZM61.85 58.9C61.76 59.29 61.8 59.93 61.83 60.36C62.15 60.4 62.4 60.37 62.74 60.38C62.79 59.93 62.75 59.38 62.76 58.9C62.5 58.87 62.15 58.86 61.85 58.9ZM62.95 58.87C62.87 59.28 62.95 59.85 62.92 60.36C63.09 60.38 63.53 60.4 63.81 60.36C63.8 59.88 63.84 59.34 63.79 58.9C63.53 58.83 63.12 58.91 62.95 58.87ZM65.5 58.87C65.35 59.24 65.47 59.88 65.43 60.36C65.66 60.39 66.15 60.39 66.37 60.36C66.35 59.88 66.4 59.34 66.35 58.9C66.11 58.84 65.71 58.89 65.5 58.87ZM66.53 58.92C66.54 59.56 66.5 59.74 66.51 60.36C66.84 60.4 67.17 60.38 67.42 60.36L67.42 58.9C67.18 58.89 66.81 58.82 66.53 58.92ZM67.58 58.87C67.55 59.27 67.54 59.92 67.58 60.38C67.88 60.36 68.15 60.4 68.51 60.36C68.5 59.88 68.54 59.34 68.49 58.9C68.21 58.85 67.75 58.89 67.58 58.87L67.58 58.87ZM46.75 60.52L46.75 62.02C46.91 62.1 47.36 62.06 47.66 62.07C47.68 61.61 47.73 60.94 47.64 60.52C47.42 60.51 47.03 60.52 46.75 60.52ZM47.84 60.52C47.8 60.98 47.8 61.6 47.84 62.07C48.14 62.06 48.49 62.1 48.75 62.05C48.81 61.58 48.76 61.02 48.78 60.52C48.47 60.52 48.08 60.51 47.84 60.52ZM48.94 60.52L48.94 62.07C49.22 62.05 49.56 62.1 49.8 62.05C49.81 61.62 49.8 61.02 49.8 60.52C49.6 60.51 49.14 60.52 48.94 60.52ZM52.45 60.54C52.48 61.06 52.38 61.56 52.45 62.05C52.7 62.08 53.1 62.08 53.34 62.05L53.34 60.52C53.13 60.53 52.63 60.48 52.45 60.54L52.45 60.54ZM53.52 60.52C53.47 60.98 53.52 61.54 53.5 62.05C53.76 62.08 54.16 62.08 54.41 62.05C54.47 61.58 54.42 61.02 54.44 60.52C54.21 60.51 53.75 60.52 53.52 60.52ZM57.08 60.52C57.05 60.97 57.04 61.66 57.08 62.05C57.32 62.1 57.65 62.05 57.93 62.07C57.98 61.6 57.94 61.03 57.95 60.52C57.66 60.52 57.3 60.51 57.08 60.52L57.08 60.52ZM60.8 60.52C60.73 60.93 60.78 61.55 60.78 62.02C60.99 62.12 61.38 62.04 61.67 62.07L61.67 60.52C61.37 60.53 61.03 60.5 60.8 60.52ZM62.74 60.52C62.52 60.51 62.12 60.52 61.83 60.52C61.77 61.1 61.85 61.52 61.83 62.05C62.1 62.09 62.46 62.06 62.76 62.07C62.75 61.56 62.79 60.99 62.74 60.52L62.74 60.52ZM62.92 60.54L62.92 62.07C63.21 62.06 63.54 62.1 63.79 62.05C63.84 61.58 63.8 61.02 63.81 60.52C63.53 60.54 63.1 60.48 62.92 60.54L62.92 60.54ZM65.46 60.52C65.42 60.97 65.42 61.59 65.46 62.05C65.7 62.08 66.1 62.08 66.35 62.05C66.33 61.53 66.41 61.09 66.35 60.52C66.05 60.52 65.68 60.51 65.46 60.52ZM66.53 60.52C66.49 60.98 66.49 61.59 66.53 62.05C66.77 62.1 67.11 62.05 67.4 62.07C67.42 61.61 67.46 60.94 67.37 60.52C67.18 60.51 66.8 60.52 66.53 60.52ZM51.36 60.52C51.36 61.02 51.35 61.61 51.36 62.05C51.55 62.09 51.97 62.06 52.27 62.07C52.32 61.59 52.28 61.03 52.29 60.52L51.36 60.52ZM55.96 60.52C55.98 61.03 55.94 61.6 55.99 62.07C56.28 62.05 56.62 62.1 56.88 62.05C56.91 61.65 56.9 61.1 56.9 60.52L55.96 60.52L55.96 60.52ZM58.11 60.52C58.09 61.16 58.09 61.41 58.11 62.07C58.4 62.04 58.8 62.12 59.02 62.02C59.08 61.58 59.03 60.92 59.05 60.52L58.11 60.52ZM67.6 60.52C67.52 60.89 67.55 61.59 67.58 62.07C67.88 62.06 68.23 62.09 68.49 62.05C68.54 61.58 68.5 61.02 68.51 60.52L67.6 60.52L67.6 60.52Z" fill="#FFFFFF" fill-opacity="1.000000" fill-rule="evenodd"/>
	<path id="Vector" d="M44.99 54.1C44.97 57.69 45.02 60.93 45.01 64.48C40.32 64.47 36.28 64.53 32.12 64.46C32.04 62.14 32.08 59.6 32.08 57.16C32.08 56.34 32.15 55.48 32.08 54.72C32.06 54.51 31.96 54.41 31.94 54.19C36.2 54.15 40.66 54.13 44.99 54.1ZM41.95 57.34C41.67 57.41 41.91 58.26 41.84 58.55C42.03 58.6 42.32 58.56 42.55 58.57L42.55 57.36C42.34 57.35 42.11 57.3 41.95 57.34ZM42.78 57.34C42.74 57.35 42.72 57.38 42.71 57.41C42.72 57.79 42.68 58.23 42.73 58.57L43.48 58.57C43.47 58.18 43.51 57.74 43.46 57.39C43.31 57.3 43 57.36 42.78 57.34ZM41.84 58.73C41.86 59.09 41.8 59.59 41.84 59.92C42.03 59.97 42.32 59.93 42.55 59.94L42.55 58.71C42.32 58.72 42.03 58.68 41.84 58.73ZM42.73 58.71C42.69 59.07 42.69 59.58 42.73 59.94C42.98 59.92 43.31 59.99 43.48 59.9L43.48 58.73C43.27 58.69 42.98 58.72 42.73 58.71ZM41.84 61.15C41.83 61.51 41.83 61.98 41.84 62.34C42.03 62.39 42.32 62.34 42.53 62.38C42.58 62.01 42.53 61.54 42.55 61.13C42.38 61.15 41.98 61.08 41.84 61.15L41.84 61.15ZM42.73 61.15C42.69 61.51 42.69 62.02 42.73 62.38C43 62.36 43.3 62.43 43.48 62.36L43.48 61.15C43.31 61.11 42.89 61.1 42.73 61.15ZM41.86 62.5C41.8 62.88 41.82 63.34 41.86 63.71L42.55 63.71L42.55 62.52C42.3 62.53 42.12 62.48 41.86 62.5ZM42.73 62.52C42.69 62.86 42.69 63.36 42.73 63.71C42.98 63.69 43.31 63.75 43.48 63.66L43.48 62.57C43.25 62.54 42.99 62.52 42.73 62.52Z" fill="#FFFFFF" fill-opacity="1.000000" fill-rule="evenodd"/>
	<path id="Vector" d="M48.68 64.19L48.68 64.37L48.66 64.37C48.65 64.33 48.64 64.3 48.63 64.28C48.61 64.26 48.6 64.25 48.57 64.24C48.56 64.23 48.54 64.23 48.51 64.23L48.46 64.23L48.46 64.74C48.46 64.78 48.46 64.8 48.46 64.81C48.47 64.82 48.47 64.82 48.49 64.83C48.5 64.84 48.51 64.84 48.53 64.84L48.55 64.84L48.55 64.86L48.2 64.86L48.2 64.84L48.23 64.84C48.24 64.84 48.26 64.84 48.27 64.83C48.28 64.83 48.29 64.82 48.29 64.81C48.3 64.8 48.3 64.78 48.3 64.74L48.3 64.23L48.25 64.23C48.2 64.23 48.17 64.24 48.15 64.26C48.12 64.28 48.11 64.32 48.1 64.37L48.08 64.37L48.08 64.19L48.68 64.19Z" fill="#FFFFFF" fill-opacity="1.000000" fill-rule="evenodd"/>
	<path id="Vector" d="M48.99 64.23L48.99 64.5L49 64.5C49.05 64.5 49.08 64.49 49.1 64.46C49.11 64.43 49.13 64.39 49.13 64.34L49.15 64.34L49.15 64.69L49.13 64.69C49.13 64.65 49.12 64.62 49.11 64.6C49.09 64.57 49.08 64.56 49.06 64.55C49.05 64.54 49.02 64.54 48.99 64.54L48.99 64.73C48.99 64.76 48.99 64.78 48.99 64.79C49 64.8 49 64.81 49.01 64.81C49.02 64.82 49.03 64.82 49.05 64.82L49.09 64.82C49.16 64.82 49.21 64.81 49.24 64.78C49.28 64.75 49.31 64.7 49.32 64.65L49.34 64.65L49.31 64.86L48.74 64.86L48.74 64.84L48.76 64.84C48.78 64.84 48.79 64.84 48.8 64.83C48.81 64.83 48.82 64.82 48.82 64.81C48.83 64.8 48.83 64.78 48.83 64.74L48.83 64.3C48.83 64.27 48.83 64.25 48.83 64.25C48.82 64.24 48.82 64.23 48.81 64.22C48.8 64.21 48.78 64.21 48.76 64.21L48.74 64.21L48.74 64.19L49.29 64.19L49.29 64.39L49.28 64.39C49.27 64.34 49.25 64.3 49.24 64.28C49.22 64.26 49.19 64.25 49.16 64.24C49.14 64.23 49.11 64.23 49.06 64.23L48.99 64.23Z" fill="#FFFFFF" fill-opacity="1.000000" fill-rule="evenodd"/>
	<path id="Vector" d="M49.81 64.47L50 64.74C50.03 64.79 50.05 64.81 50.06 64.82C50.07 64.83 50.09 64.84 50.11 64.84L50.11 64.86L49.78 64.86L49.78 64.84C49.81 64.84 49.82 64.83 49.83 64.83C49.84 64.82 49.84 64.82 49.84 64.81C49.84 64.8 49.84 64.8 49.84 64.79C49.83 64.78 49.82 64.76 49.81 64.74L49.71 64.59L49.61 64.72C49.58 64.75 49.56 64.78 49.56 64.79C49.56 64.8 49.56 64.81 49.57 64.82C49.58 64.83 49.59 64.83 49.61 64.84C49.61 64.84 49.63 64.84 49.65 64.84L49.65 64.86L49.39 64.86L49.39 64.84C49.42 64.84 49.44 64.83 49.46 64.82C49.48 64.8 49.51 64.77 49.55 64.72L49.69 64.56L49.52 64.31C49.49 64.27 49.47 64.24 49.47 64.24C49.46 64.23 49.45 64.22 49.44 64.22C49.43 64.21 49.42 64.21 49.41 64.21L49.41 64.19L49.74 64.19L49.74 64.21L49.72 64.21C49.7 64.21 49.69 64.21 49.68 64.22C49.67 64.22 49.67 64.23 49.67 64.24C49.67 64.25 49.67 64.25 49.67 64.26L49.71 64.31L49.79 64.43L49.86 64.35C49.9 64.3 49.91 64.27 49.91 64.26C49.91 64.25 49.91 64.24 49.91 64.23C49.9 64.22 49.89 64.22 49.89 64.21C49.88 64.21 49.86 64.21 49.84 64.21L49.84 64.19L50.09 64.19L50.09 64.21C50.07 64.21 50.05 64.21 50.04 64.21C50.03 64.22 50.02 64.23 50 64.24C49.99 64.25 49.97 64.27 49.94 64.31L49.81 64.47L49.81 64.47Z" fill="#FFFFFF" fill-opacity="1.000000" fill-rule="evenodd"/>
	<path id="Vector" d="M50.38 64.54L50.38 64.74C50.38 64.78 50.39 64.8 50.39 64.81C50.39 64.82 50.4 64.82 50.41 64.83C50.42 64.84 50.44 64.84 50.46 64.84L50.48 64.84L50.48 64.86L50.13 64.86L50.13 64.84L50.15 64.84C50.17 64.84 50.19 64.84 50.2 64.83C50.21 64.83 50.21 64.82 50.22 64.81C50.22 64.8 50.22 64.78 50.22 64.74L50.22 64.3C50.22 64.27 50.22 64.25 50.22 64.24C50.22 64.23 50.21 64.22 50.2 64.22C50.19 64.21 50.17 64.21 50.15 64.21L50.13 64.21L50.13 64.19L50.48 64.19L50.48 64.21L50.46 64.21C50.44 64.21 50.42 64.21 50.41 64.22C50.4 64.22 50.4 64.23 50.39 64.24C50.39 64.25 50.38 64.27 50.38 64.3L50.38 64.49L50.62 64.49L50.62 64.3C50.62 64.27 50.62 64.25 50.62 64.24C50.61 64.23 50.61 64.22 50.59 64.22C50.58 64.21 50.57 64.21 50.55 64.21L50.53 64.21L50.53 64.19L50.88 64.19L50.88 64.21L50.85 64.21C50.84 64.21 50.82 64.21 50.81 64.22C50.8 64.22 50.79 64.23 50.79 64.24C50.78 64.25 50.78 64.27 50.78 64.3L50.78 64.74C50.78 64.78 50.78 64.8 50.79 64.81C50.79 64.82 50.8 64.82 50.81 64.83C50.82 64.84 50.84 64.84 50.85 64.84L50.88 64.84L50.88 64.86L50.53 64.86L50.53 64.84L50.55 64.84C50.57 64.84 50.58 64.84 50.6 64.83C50.6 64.83 50.61 64.82 50.62 64.81C50.62 64.8 50.62 64.78 50.62 64.74L50.62 64.54L50.38 64.54L50.38 64.54Z" fill="#FFFFFF" fill-opacity="1.000000" fill-rule="evenodd"/>
	<path id="Vector" d="M51.29 64.19C51.39 64.19 51.48 64.22 51.55 64.28C51.61 64.35 51.65 64.43 51.65 64.53C51.65 64.61 51.62 64.69 51.57 64.75C51.51 64.84 51.41 64.88 51.29 64.88C51.17 64.88 51.08 64.84 51.02 64.76C50.96 64.7 50.94 64.62 50.94 64.53C50.94 64.43 50.97 64.35 51.04 64.28C51.11 64.22 51.19 64.19 51.29 64.19L51.29 64.19ZM51.29 64.22C51.23 64.22 51.19 64.25 51.15 64.31C51.13 64.37 51.12 64.44 51.12 64.53C51.12 64.65 51.14 64.73 51.18 64.79C51.2 64.83 51.24 64.84 51.29 64.84C51.33 64.84 51.36 64.84 51.38 64.82C51.41 64.8 51.43 64.77 51.45 64.72C51.46 64.67 51.47 64.61 51.47 64.54C51.47 64.45 51.46 64.38 51.45 64.34C51.43 64.3 51.41 64.27 51.38 64.25C51.36 64.23 51.33 64.22 51.29 64.22Z" fill="#FFFFFF" fill-opacity="1.000000" fill-rule="evenodd"/>
	<path id="Vector" d="M52.35 64.21C52.32 64.21 52.29 64.21 52.28 64.22C52.27 64.24 52.27 64.26 52.27 64.29L52.27 64.75C52.27 64.79 52.27 64.81 52.28 64.82C52.29 64.83 52.32 64.84 52.35 64.84L52.35 64.86L52.02 64.86L52.02 64.84C52.05 64.84 52.06 64.84 52.08 64.83C52.09 64.83 52.09 64.82 52.1 64.81C52.1 64.8 52.11 64.78 52.11 64.76L52.11 64.23L51.95 64.23L51.95 64.43C51.95 64.52 51.94 64.58 51.94 64.62C51.94 64.67 51.92 64.71 51.91 64.75C51.89 64.79 51.86 64.82 51.83 64.84C51.8 64.86 51.77 64.87 51.74 64.87C51.7 64.87 51.68 64.86 51.66 64.84C51.64 64.82 51.64 64.8 51.64 64.78C51.64 64.76 51.64 64.74 51.65 64.73C51.66 64.71 51.68 64.71 51.7 64.71C51.74 64.71 51.76 64.73 51.76 64.78C51.76 64.8 51.77 64.81 51.79 64.81C51.81 64.81 51.83 64.79 51.85 64.77C51.88 64.74 51.89 64.7 51.9 64.65C51.91 64.6 51.91 64.53 51.91 64.44L51.91 64.31C51.91 64.28 51.91 64.25 51.9 64.24C51.9 64.23 51.89 64.22 51.88 64.22C51.87 64.21 51.84 64.21 51.81 64.21L51.81 64.19L52.35 64.19L52.35 64.21L52.35 64.21Z" fill="#FFFFFF" fill-opacity="1.000000" fill-rule="evenodd"/>
	<path id="Vector" d="M52.78 64.19C52.89 64.19 52.97 64.22 53.04 64.28C53.11 64.35 53.14 64.43 53.14 64.53C53.14 64.61 53.11 64.69 53.07 64.75C53 64.84 52.91 64.88 52.79 64.88C52.67 64.88 52.57 64.84 52.51 64.76C52.46 64.7 52.43 64.62 52.43 64.53C52.43 64.43 52.46 64.35 52.53 64.28C52.6 64.22 52.68 64.19 52.78 64.19ZM52.79 64.22C52.72 64.22 52.68 64.25 52.65 64.31C52.62 64.37 52.61 64.44 52.61 64.53C52.61 64.65 52.63 64.73 52.67 64.79C52.7 64.83 52.73 64.84 52.78 64.84C52.82 64.84 52.85 64.84 52.87 64.82C52.9 64.8 52.92 64.77 52.94 64.72C52.95 64.67 52.96 64.61 52.96 64.54C52.96 64.45 52.95 64.38 52.94 64.34C52.92 64.3 52.9 64.27 52.87 64.25C52.85 64.23 52.82 64.22 52.79 64.22L52.79 64.22Z" fill="#FFFFFF" fill-opacity="1.000000" fill-rule="evenodd"/>
	<path id="Vector" d="M53.2 64.19L53.79 64.19L53.79 64.37L53.77 64.37C53.76 64.33 53.75 64.29 53.74 64.28C53.73 64.26 53.71 64.25 53.69 64.24C53.68 64.24 53.64 64.23 53.59 64.23L53.45 64.23L53.45 64.75C53.45 64.79 53.46 64.81 53.47 64.83C53.48 64.84 53.5 64.84 53.53 64.84L53.55 64.84L53.55 64.86L53.2 64.86L53.2 64.84L53.22 64.84C53.25 64.84 53.26 64.84 53.28 64.82C53.29 64.81 53.29 64.79 53.29 64.75L53.29 64.29C53.29 64.26 53.29 64.24 53.28 64.23C53.27 64.21 53.25 64.21 53.22 64.21L53.2 64.21L53.2 64.19L53.2 64.19Z" fill="#FFFFFF" fill-opacity="1.000000" fill-rule="evenodd"/>
	<path id="Vector" d="M54.34 64.3C54.34 64.26 54.33 64.24 54.32 64.23C54.31 64.21 54.29 64.21 54.26 64.21L54.24 64.21L54.24 64.19L54.6 64.19L54.6 64.21L54.57 64.21C54.54 64.21 54.52 64.21 54.51 64.22C54.5 64.24 54.5 64.26 54.5 64.3L54.5 64.74C54.5 64.79 54.5 64.81 54.51 64.82C54.52 64.84 54.54 64.84 54.57 64.84L54.6 64.84L54.6 64.86L54.24 64.86L54.24 64.84L54.26 64.84C54.29 64.84 54.31 64.83 54.32 64.82C54.33 64.81 54.34 64.78 54.34 64.74L54.34 64.38L54.1 64.75C54.1 64.78 54.1 64.81 54.11 64.82C54.12 64.83 54.14 64.84 54.18 64.84L54.2 64.84L54.2 64.86L53.84 64.86L53.84 64.84L53.86 64.84C53.89 64.84 53.91 64.83 53.92 64.82C53.93 64.81 53.94 64.78 53.94 64.74L53.94 64.3C53.94 64.26 53.94 64.24 53.93 64.22C53.92 64.21 53.9 64.21 53.86 64.21L53.84 64.21L53.84 64.19L54.2 64.19L54.2 64.21L54.18 64.21C54.15 64.21 54.13 64.21 54.12 64.23C54.1 64.24 54.1 64.26 54.1 64.3L54.1 64.67L54.34 64.3Z" fill="#FFFFFF" fill-opacity="1.000000" fill-rule="evenodd"/>
	<path id="Vector" d="M55 64.19L55.32 64.19L55.32 64.21C55.28 64.21 55.25 64.21 55.24 64.22C55.23 64.23 55.23 64.25 55.23 64.28L55.23 64.76C55.23 64.78 55.23 64.8 55.23 64.81C55.23 64.82 55.24 64.83 55.25 64.83C55.26 64.84 55.28 64.84 55.3 64.84C55.3 64.84 55.31 64.84 55.32 64.84L55.32 64.86L54.97 64.86L54.97 64.84C55 64.84 55.02 64.84 55.03 64.83C55.04 64.83 55.05 64.82 55.06 64.81C55.06 64.8 55.07 64.79 55.07 64.77L55.07 64.55C54.99 64.59 54.92 64.61 54.85 64.61C54.82 64.61 54.79 64.61 54.77 64.59C54.74 64.58 54.72 64.57 54.71 64.55C54.7 64.52 54.7 64.49 54.7 64.45L54.7 64.3C54.7 64.26 54.69 64.23 54.68 64.22C54.66 64.21 54.64 64.21 54.61 64.21L54.61 64.19L54.93 64.19L54.93 64.21C54.9 64.21 54.89 64.21 54.88 64.22C54.86 64.23 54.86 64.25 54.86 64.28L54.86 64.46C54.86 64.48 54.86 64.49 54.86 64.5C54.87 64.51 54.87 64.52 54.89 64.53C54.9 64.54 54.92 64.54 54.94 64.54C54.98 64.54 55.02 64.53 55.07 64.51L55.07 64.3C55.07 64.27 55.06 64.25 55.06 64.24C55.06 64.23 55.05 64.22 55.04 64.22C55.03 64.21 55.02 64.21 55 64.21L55 64.19L55 64.19Z" fill="#FFFFFF" fill-opacity="1.000000" fill-rule="evenodd"/>
	<path id="Vector" d="M55.61 64.23L55.61 64.5L55.63 64.5C55.67 64.5 55.7 64.49 55.72 64.46C55.74 64.43 55.75 64.39 55.76 64.34L55.78 64.34L55.78 64.69L55.76 64.69C55.75 64.65 55.74 64.62 55.73 64.6C55.72 64.57 55.7 64.56 55.69 64.55C55.67 64.54 55.65 64.54 55.61 64.54L55.61 64.73C55.61 64.76 55.62 64.78 55.62 64.79C55.62 64.8 55.63 64.81 55.64 64.81C55.65 64.82 55.66 64.82 55.68 64.82L55.72 64.82C55.78 64.82 55.83 64.81 55.87 64.78C55.91 64.75 55.93 64.7 55.95 64.65L55.97 64.65L55.94 64.86L55.36 64.86L55.36 64.84L55.38 64.84C55.4 64.84 55.42 64.84 55.43 64.83C55.44 64.83 55.44 64.82 55.45 64.81C55.45 64.8 55.45 64.78 55.45 64.74L55.45 64.3C55.45 64.27 55.45 64.25 55.45 64.25C55.45 64.24 55.44 64.23 55.43 64.22C55.42 64.21 55.4 64.21 55.38 64.21L55.36 64.21L55.36 64.19L55.92 64.19L55.92 64.39L55.9 64.39C55.89 64.34 55.88 64.3 55.86 64.28C55.84 64.26 55.82 64.25 55.79 64.24C55.77 64.23 55.73 64.23 55.68 64.23L55.61 64.23Z" fill="#FFFFFF" fill-opacity="1.000000" fill-rule="evenodd"/>
	<path id="Vector" d="M56.69 64.19L56.69 64.42L56.67 64.42C56.66 64.36 56.63 64.31 56.59 64.28C56.55 64.25 56.51 64.23 56.46 64.23C56.42 64.23 56.38 64.24 56.34 64.27C56.31 64.29 56.28 64.32 56.27 64.36C56.25 64.41 56.24 64.47 56.24 64.53C56.24 64.59 56.24 64.64 56.26 64.69C56.27 64.74 56.3 64.78 56.33 64.8C56.36 64.83 56.4 64.84 56.45 64.84C56.5 64.84 56.53 64.83 56.57 64.81C56.6 64.8 56.64 64.76 56.68 64.72L56.68 64.78C56.64 64.82 56.6 64.84 56.56 64.86C56.52 64.88 56.47 64.89 56.42 64.89C56.35 64.89 56.29 64.87 56.23 64.85C56.18 64.82 56.13 64.78 56.1 64.72C56.07 64.67 56.06 64.61 56.06 64.55C56.06 64.49 56.07 64.43 56.11 64.37C56.14 64.31 56.19 64.27 56.24 64.24C56.3 64.21 56.36 64.19 56.42 64.19C56.47 64.19 56.52 64.2 56.57 64.22C56.6 64.23 56.62 64.24 56.63 64.24C56.64 64.24 56.65 64.23 56.66 64.23C56.66 64.22 56.67 64.21 56.67 64.19L56.69 64.19L56.69 64.19Z" fill="#FFFFFF" fill-opacity="1.000000" fill-rule="evenodd"/>
	<path id="Vector" d="M56.77 64.2L57.12 64.2L57.12 64.21L57.11 64.21C57.07 64.21 57.05 64.22 57.04 64.23C57.03 64.24 57.02 64.27 57.02 64.3L57.02 64.5C57.07 64.5 57.1 64.5 57.11 64.5C57.13 64.49 57.14 64.48 57.15 64.47C57.16 64.45 57.17 64.43 57.19 64.38C57.2 64.33 57.21 64.3 57.22 64.27C57.23 64.25 57.25 64.23 57.27 64.21C57.29 64.2 57.32 64.19 57.35 64.19C57.38 64.19 57.41 64.2 57.43 64.22C57.45 64.23 57.46 64.26 57.46 64.28C57.46 64.3 57.45 64.32 57.44 64.33C57.42 64.34 57.41 64.35 57.39 64.35C57.35 64.35 57.33 64.33 57.33 64.28C57.33 64.26 57.32 64.25 57.31 64.25C57.29 64.25 57.28 64.26 57.27 64.28C57.26 64.29 57.25 64.32 57.23 64.37C57.22 64.41 57.21 64.44 57.2 64.46C57.2 64.48 57.18 64.5 57.17 64.51C57.19 64.52 57.2 64.53 57.22 64.54C57.23 64.54 57.24 64.56 57.25 64.57C57.26 64.58 57.28 64.62 57.31 64.67L57.37 64.79C57.38 64.81 57.4 64.83 57.41 64.83C57.43 64.84 57.44 64.85 57.46 64.85L57.46 64.87L57.24 64.87L57.1 64.61C57.09 64.58 57.08 64.56 57.07 64.56C57.06 64.55 57.05 64.55 57.02 64.55L57.02 64.77C57.02 64.8 57.03 64.83 57.04 64.83C57.06 64.84 57.08 64.85 57.12 64.85L57.12 64.87L56.77 64.87L56.77 64.85C56.81 64.85 56.83 64.84 56.84 64.83C56.86 64.82 56.86 64.8 56.86 64.76L56.86 64.31C56.86 64.27 56.86 64.25 56.85 64.23C56.84 64.22 56.82 64.21 56.78 64.21L56.77 64.21L56.77 64.2L56.77 64.2Z" fill="#FFFFFF" fill-opacity="1.000000" fill-rule="evenodd"/>
	<path id="Vector" d="M57.99 64.3C57.99 64.26 57.99 64.24 57.98 64.23C57.97 64.21 57.95 64.21 57.92 64.21L57.89 64.21L57.89 64.19L58.25 64.19L58.25 64.21L58.23 64.21C58.2 64.21 58.18 64.21 58.17 64.22C58.16 64.24 58.15 64.26 58.15 64.3L58.15 64.74C58.15 64.79 58.16 64.81 58.17 64.82C58.18 64.83 58.2 64.84 58.23 64.84L58.25 64.84L58.25 64.86L57.89 64.86L57.89 64.84L57.92 64.84C57.95 64.84 57.97 64.83 57.98 64.82C57.99 64.81 57.99 64.78 57.99 64.74L57.99 64.38L57.76 64.75C57.76 64.78 57.76 64.81 57.77 64.82C57.77 64.83 57.8 64.84 57.83 64.84L57.85 64.84L57.85 64.86L57.5 64.86L57.5 64.84L57.52 64.84C57.55 64.84 57.57 64.83 57.58 64.82C57.59 64.81 57.59 64.78 57.59 64.74L57.59 64.3C57.59 64.26 57.59 64.24 57.58 64.22C57.57 64.21 57.55 64.21 57.52 64.21L57.5 64.21L57.5 64.19L57.85 64.19L57.85 64.21L57.83 64.21C57.8 64.21 57.78 64.21 57.77 64.23C57.76 64.24 57.76 64.26 57.76 64.3L57.76 64.67L57.99 64.3Z" fill="#FFFFFF" fill-opacity="1.000000" fill-rule="evenodd"/>
	<path id="Vector" d="M58.65 64.14C58.58 64.14 58.53 64.13 58.5 64.11C58.47 64.09 58.46 64.07 58.46 64.04C58.46 64.03 58.46 64.02 58.47 64.01C58.48 64 58.49 64 58.51 64C58.53 64 58.55 64.02 58.57 64.05C58.58 64.07 58.59 64.08 58.6 64.09C58.61 64.1 58.63 64.1 58.65 64.1C58.67 64.1 58.69 64.1 58.7 64.09C58.71 64.08 58.72 64.07 58.73 64.05C58.75 64.01 58.77 64 58.79 64C58.81 64 58.82 64 58.83 64.01C58.84 64.02 58.84 64.03 58.84 64.05C58.84 64.07 58.83 64.1 58.8 64.11C58.77 64.13 58.72 64.14 58.65 64.14L58.65 64.14ZM58.77 64.31C58.77 64.28 58.76 64.25 58.76 64.24C58.75 64.23 58.73 64.22 58.69 64.22L58.67 64.22L58.67 64.2L59.03 64.2L59.03 64.22L59.01 64.22C58.98 64.22 58.95 64.22 58.94 64.24C58.93 64.25 58.93 64.28 58.93 64.32L58.93 64.76C58.93 64.8 58.93 64.82 58.94 64.84C58.96 64.85 58.98 64.85 59.01 64.85L59.03 64.85L59.03 64.87L58.67 64.87L58.67 64.85L58.69 64.85C58.72 64.85 58.74 64.85 58.75 64.83C58.76 64.82 58.77 64.8 58.77 64.76L58.77 64.39L58.53 64.76C58.53 64.8 58.54 64.82 58.54 64.83C58.55 64.85 58.57 64.85 58.61 64.85L58.63 64.85L58.63 64.87L58.27 64.87L58.27 64.85L58.3 64.85C58.33 64.85 58.35 64.85 58.36 64.83C58.37 64.82 58.37 64.8 58.37 64.76L58.37 64.32C58.37 64.28 58.37 64.25 58.36 64.24C58.35 64.22 58.33 64.22 58.3 64.22L58.27 64.22L58.27 64.2L58.63 64.2L58.63 64.22L58.61 64.22C58.58 64.22 58.56 64.23 58.55 64.24C58.54 64.25 58.53 64.28 58.53 64.32L58.53 64.68L58.77 64.31Z" fill="#FFFFFF" fill-opacity="1.000000" fill-rule="evenodd"/>
	<path id="Vector" d="M59.82 64.19L60.04 64.19L60.04 64.21C60.02 64.21 60 64.22 59.98 64.23C59.97 64.25 59.95 64.28 59.92 64.32L59.72 64.73C59.68 64.8 59.66 64.84 59.63 64.85C59.61 64.87 59.58 64.87 59.55 64.87C59.51 64.87 59.49 64.86 59.47 64.84C59.45 64.82 59.44 64.8 59.44 64.78C59.44 64.76 59.45 64.74 59.46 64.73C59.47 64.72 59.49 64.71 59.51 64.71C59.52 64.71 59.54 64.72 59.55 64.73C59.55 64.73 59.56 64.75 59.56 64.78C59.57 64.8 59.58 64.82 59.6 64.82C59.62 64.82 59.64 64.8 59.66 64.75L59.67 64.73L59.43 64.3C59.41 64.26 59.4 64.24 59.38 64.23C59.37 64.21 59.34 64.21 59.32 64.21L59.32 64.19L59.65 64.19L59.65 64.21L59.64 64.21C59.6 64.21 59.58 64.22 59.58 64.23C59.58 64.24 59.58 64.25 59.59 64.27L59.76 64.57L59.88 64.32C59.9 64.29 59.91 64.26 59.91 64.25C59.91 64.24 59.9 64.23 59.89 64.22C59.88 64.21 59.86 64.21 59.82 64.21L59.82 64.19L59.82 64.19Z" fill="#FFFFFF" fill-opacity="1.000000" fill-rule="evenodd"/>
	<path id="Vector" d="M60.32 64.54L60.32 64.74C60.32 64.78 60.33 64.8 60.33 64.81C60.33 64.82 60.34 64.82 60.35 64.83C60.36 64.84 60.38 64.84 60.4 64.84L60.42 64.84L60.42 64.86L60.07 64.86L60.07 64.84L60.09 64.84C60.11 64.84 60.13 64.84 60.14 64.83C60.15 64.83 60.15 64.82 60.16 64.81C60.16 64.8 60.16 64.78 60.16 64.74L60.16 64.3C60.16 64.27 60.16 64.25 60.16 64.24C60.15 64.23 60.15 64.22 60.14 64.22C60.13 64.21 60.11 64.21 60.09 64.21L60.07 64.21L60.07 64.19L60.42 64.19L60.42 64.21L60.4 64.21C60.38 64.21 60.36 64.21 60.35 64.22C60.34 64.22 60.33 64.23 60.33 64.24C60.33 64.25 60.32 64.27 60.32 64.3L60.32 64.49L60.56 64.49L60.56 64.3C60.56 64.27 60.56 64.25 60.56 64.24C60.55 64.23 60.54 64.22 60.53 64.22C60.52 64.21 60.51 64.21 60.49 64.21L60.47 64.21L60.47 64.19L60.82 64.19L60.82 64.21L60.79 64.21C60.77 64.21 60.76 64.21 60.75 64.22C60.74 64.22 60.73 64.23 60.73 64.24C60.72 64.25 60.72 64.27 60.72 64.3L60.72 64.74C60.72 64.78 60.72 64.8 60.73 64.81C60.73 64.82 60.74 64.82 60.75 64.83C60.76 64.84 60.78 64.84 60.79 64.84L60.82 64.84L60.82 64.86L60.47 64.86L60.47 64.84L60.49 64.84C60.51 64.84 60.52 64.84 60.54 64.83C60.54 64.83 60.55 64.82 60.56 64.81C60.56 64.8 60.56 64.78 60.56 64.74L60.56 64.54L60.32 64.54L60.32 64.54Z" fill="#FFFFFF" fill-opacity="1.000000" fill-rule="evenodd"/>
	<path id="Vector" d="M61.33 64.3C61.33 64.26 61.33 64.24 61.32 64.23C61.31 64.21 61.29 64.21 61.25 64.21L61.23 64.21L61.23 64.19L61.59 64.19L61.59 64.21L61.57 64.21C61.54 64.21 61.52 64.21 61.51 64.22C61.5 64.24 61.49 64.26 61.49 64.3L61.49 64.74C61.49 64.79 61.5 64.81 61.51 64.82C61.52 64.84 61.54 64.84 61.57 64.84L61.59 64.84L61.59 64.86L61.23 64.86L61.23 64.84L61.25 64.84C61.29 64.84 61.31 64.83 61.32 64.82C61.33 64.81 61.33 64.78 61.33 64.74L61.33 64.38L61.09 64.75C61.09 64.78 61.1 64.81 61.11 64.82C61.11 64.83 61.14 64.84 61.17 64.84L61.19 64.84L61.19 64.86L60.84 64.86L60.84 64.84L60.86 64.84C60.89 64.84 60.91 64.83 60.92 64.82C60.93 64.81 60.93 64.78 60.93 64.74L60.93 64.3C60.93 64.26 60.93 64.24 60.92 64.22C60.91 64.21 60.89 64.21 60.86 64.21L60.84 64.21L60.84 64.19L61.19 64.19L61.19 64.21L61.17 64.21C61.14 64.21 61.12 64.21 61.11 64.23C61.1 64.24 61.09 64.26 61.09 64.3L61.09 64.67L61.33 64.3L61.33 64.3Z" fill="#FFFFFF" fill-opacity="1.000000" fill-rule="evenodd"/>
	<path id="Vector" d="M62.06 64.5C62.12 64.52 62.16 64.54 62.19 64.56C62.23 64.59 62.25 64.63 62.25 64.67C62.25 64.72 62.23 64.77 62.18 64.8C62.14 64.84 62.06 64.86 61.97 64.86L61.63 64.86L61.63 64.84C61.66 64.84 61.68 64.84 61.69 64.83C61.7 64.83 61.71 64.82 61.71 64.81C61.72 64.8 61.72 64.78 61.72 64.74L61.72 64.31C61.72 64.27 61.72 64.25 61.71 64.24C61.71 64.23 61.7 64.22 61.69 64.21C61.68 64.21 61.66 64.21 61.63 64.21L61.63 64.19L61.95 64.19C62.03 64.19 62.08 64.2 62.11 64.21C62.14 64.22 62.17 64.24 62.19 64.27C62.21 64.3 62.22 64.33 62.22 64.36C62.22 64.39 62.2 64.42 62.18 64.44C62.16 64.47 62.11 64.49 62.06 64.5L62.06 64.5ZM61.88 64.49C61.92 64.49 61.96 64.48 61.98 64.47C62 64.46 62.02 64.45 62.03 64.43C62.04 64.41 62.05 64.39 62.05 64.36C62.05 64.33 62.04 64.3 62.03 64.28C62.02 64.26 62 64.25 61.98 64.24C61.96 64.23 61.92 64.23 61.88 64.23L61.88 64.49ZM61.88 64.53L61.88 64.77C61.88 64.78 61.88 64.8 61.89 64.81C61.9 64.82 61.91 64.82 61.93 64.82C61.95 64.82 61.98 64.81 62 64.8C62.02 64.79 62.04 64.77 62.05 64.75C62.06 64.73 62.07 64.71 62.07 64.68C62.07 64.65 62.06 64.62 62.05 64.6C62.04 64.57 62.02 64.55 61.99 64.54C61.96 64.53 61.93 64.53 61.88 64.53L61.88 64.53Z" fill="#FFFFFF" fill-opacity="1.000000" fill-rule="evenodd"/>
	<path id="Vector" d="M62.55 64.23L62.55 64.5L62.57 64.5C62.61 64.5 62.64 64.49 62.66 64.46C62.68 64.43 62.69 64.39 62.7 64.34L62.72 64.34L62.72 64.69L62.7 64.69C62.69 64.65 62.68 64.62 62.67 64.6C62.66 64.57 62.64 64.56 62.63 64.55C62.61 64.54 62.59 64.54 62.55 64.54L62.55 64.73C62.55 64.76 62.56 64.78 62.56 64.79C62.56 64.8 62.57 64.81 62.58 64.81C62.59 64.82 62.6 64.82 62.62 64.82L62.66 64.82C62.72 64.82 62.77 64.81 62.81 64.78C62.85 64.75 62.87 64.71 62.89 64.65L62.91 64.65L62.88 64.86L62.3 64.86L62.3 64.84L62.32 64.84C62.34 64.84 62.36 64.84 62.37 64.83C62.38 64.83 62.38 64.82 62.39 64.81C62.39 64.8 62.39 64.78 62.39 64.74L62.39 64.3C62.39 64.27 62.39 64.25 62.39 64.25C62.39 64.24 62.38 64.23 62.37 64.22C62.36 64.21 62.34 64.21 62.32 64.21L62.3 64.21L62.3 64.19L62.86 64.19L62.86 64.39L62.84 64.39C62.83 64.34 62.82 64.3 62.8 64.28C62.78 64.26 62.76 64.25 62.73 64.24C62.71 64.23 62.67 64.23 62.62 64.23L62.55 64.23L62.55 64.23Z" fill="#FFFFFF" fill-opacity="1.000000" fill-rule="evenodd"/>
	<path id="Vector" d="M63.23 64.56L63.23 64.74C63.23 64.78 63.23 64.8 63.24 64.81C63.24 64.82 63.25 64.83 63.26 64.83C63.27 64.84 63.29 64.84 63.32 64.84L63.32 64.86L62.98 64.86L62.98 64.84C63.01 64.84 63.04 64.84 63.05 64.83C63.06 64.83 63.07 64.82 63.07 64.81C63.07 64.8 63.08 64.78 63.08 64.74L63.08 64.31C63.08 64.27 63.07 64.25 63.07 64.24C63.07 64.23 63.06 64.22 63.05 64.21C63.04 64.21 63.01 64.21 62.98 64.21L62.98 64.19L63.28 64.19C63.37 64.19 63.44 64.21 63.48 64.24C63.52 64.27 63.54 64.32 63.54 64.37C63.54 64.41 63.53 64.45 63.5 64.48C63.48 64.51 63.44 64.53 63.39 64.54C63.36 64.55 63.31 64.56 63.23 64.56L63.23 64.56ZM63.23 64.23L63.23 64.52C63.24 64.52 63.25 64.52 63.26 64.52C63.3 64.52 63.33 64.51 63.35 64.48C63.37 64.46 63.38 64.42 63.38 64.37C63.38 64.32 63.37 64.29 63.35 64.26C63.33 64.24 63.29 64.23 63.25 64.23L63.23 64.23L63.23 64.23Z" fill="#FFFFFF" fill-opacity="1.000000" fill-rule="evenodd"/>
	<path id="Vector" d="M64.26 64.19L64.26 64.42L64.24 64.42C64.23 64.36 64.2 64.31 64.16 64.28C64.12 64.25 64.08 64.23 64.03 64.23C63.98 64.23 63.95 64.24 63.91 64.27C63.88 64.29 63.85 64.32 63.84 64.36C63.81 64.41 63.8 64.47 63.8 64.53C63.8 64.59 63.81 64.64 63.83 64.69C63.84 64.74 63.87 64.78 63.9 64.8C63.93 64.83 63.97 64.84 64.02 64.84C64.06 64.84 64.1 64.83 64.14 64.81C64.17 64.8 64.21 64.76 64.25 64.72L64.25 64.78C64.21 64.82 64.17 64.84 64.13 64.86C64.09 64.88 64.04 64.89 63.99 64.89C63.92 64.89 63.85 64.87 63.8 64.85C63.74 64.82 63.7 64.78 63.67 64.72C63.64 64.67 63.63 64.61 63.63 64.55C63.63 64.49 63.64 64.43 63.68 64.37C63.71 64.31 63.75 64.27 63.81 64.24C63.87 64.21 63.93 64.19 63.99 64.19C64.04 64.19 64.09 64.2 64.14 64.22C64.17 64.23 64.19 64.24 64.2 64.24C64.21 64.24 64.22 64.23 64.23 64.23C64.23 64.22 64.24 64.21 64.24 64.19L64.26 64.19L64.26 64.19Z" fill="#FFFFFF" fill-opacity="1.000000" fill-rule="evenodd"/>
	<path id="Vector" d="M64.82 64.3C64.82 64.26 64.82 64.24 64.81 64.23C64.8 64.21 64.78 64.21 64.75 64.21L64.72 64.21L64.72 64.19L65.08 64.19L65.08 64.21L65.06 64.21C65.03 64.21 65.01 64.21 65 64.22C64.99 64.24 64.98 64.26 64.98 64.3L64.98 64.74C64.98 64.79 64.99 64.81 65 64.82C65.01 64.84 65.03 64.84 65.06 64.84L65.08 64.84L65.08 64.86L64.72 64.86L64.72 64.84L64.75 64.84C64.78 64.84 64.8 64.83 64.81 64.82C64.82 64.81 64.82 64.78 64.82 64.74L64.82 64.38L64.59 64.75C64.59 64.78 64.59 64.81 64.6 64.82C64.61 64.83 64.63 64.84 64.66 64.84L64.69 64.84L64.69 64.86L64.33 64.86L64.33 64.84L64.35 64.84C64.38 64.84 64.4 64.83 64.41 64.82C64.42 64.81 64.43 64.78 64.43 64.74L64.43 64.3C64.43 64.26 64.42 64.24 64.41 64.22C64.41 64.21 64.38 64.21 64.35 64.21L64.33 64.21L64.33 64.19L64.69 64.19L64.69 64.21L64.66 64.21C64.63 64.21 64.61 64.21 64.6 64.23C64.59 64.24 64.59 64.26 64.59 64.3L64.59 64.67L64.82 64.3Z" fill="#FFFFFF" fill-opacity="1.000000" fill-rule="evenodd"/>
	<path id="Vector" d="M65.73 64.19L65.73 64.37L65.72 64.37C65.71 64.33 65.69 64.3 65.68 64.28C65.67 64.26 65.65 64.25 65.63 64.24C65.62 64.23 65.59 64.23 65.56 64.23L65.51 64.23L65.51 64.74C65.51 64.78 65.51 64.8 65.52 64.81C65.52 64.82 65.53 64.82 65.54 64.83C65.55 64.84 65.57 64.84 65.58 64.84L65.61 64.84L65.61 64.86L65.26 64.86L65.26 64.84L65.28 64.84C65.3 64.84 65.31 64.84 65.33 64.83C65.33 64.83 65.34 64.82 65.35 64.81C65.35 64.8 65.35 64.78 65.35 64.74L65.35 64.23L65.3 64.23C65.26 64.23 65.23 64.24 65.21 64.26C65.18 64.28 65.16 64.32 65.15 64.37L65.13 64.37L65.13 64.19L65.73 64.19Z" fill="#FFFFFF" fill-opacity="1.000000" fill-rule="evenodd"/>
	<path id="Vector" d="M66.04 64.23L66.04 64.5L66.06 64.5C66.1 64.5 66.13 64.49 66.15 64.46C66.17 64.43 66.18 64.39 66.19 64.34L66.21 64.34L66.21 64.69L66.19 64.69C66.18 64.65 66.17 64.62 66.16 64.6C66.15 64.57 66.13 64.56 66.12 64.55C66.1 64.54 66.08 64.54 66.04 64.54L66.04 64.73C66.04 64.76 66.05 64.78 66.05 64.79C66.05 64.8 66.06 64.81 66.07 64.81C66.08 64.82 66.09 64.82 66.11 64.82L66.15 64.82C66.21 64.82 66.26 64.81 66.3 64.78C66.34 64.75 66.36 64.71 66.38 64.65L66.4 64.65L66.37 64.86L65.79 64.86L65.79 64.84L65.81 64.84C65.83 64.84 65.85 64.84 65.86 64.83C65.87 64.83 65.87 64.82 65.88 64.81C65.88 64.8 65.88 64.78 65.88 64.74L65.88 64.3C65.88 64.27 65.88 64.25 65.88 64.25C65.88 64.24 65.87 64.23 65.86 64.22C65.85 64.21 65.83 64.21 65.81 64.21L65.79 64.21L65.79 64.19L66.35 64.19L66.35 64.39L66.33 64.39C66.32 64.34 66.31 64.3 66.29 64.28C66.27 64.26 66.25 64.25 66.22 64.24C66.2 64.23 66.16 64.23 66.11 64.23L66.04 64.23L66.04 64.23Z" fill="#FFFFFF" fill-opacity="1.000000" fill-rule="evenodd"/>
	<path id="Vector" d="M67.08 64.19L67.08 64.37L67.06 64.37C67.05 64.33 67.04 64.3 67.02 64.28C67.01 64.26 66.99 64.25 66.97 64.24C66.96 64.23 66.94 64.23 66.91 64.23L66.86 64.23L66.86 64.74C66.86 64.78 66.86 64.8 66.86 64.81C66.86 64.82 66.87 64.82 66.88 64.83C66.89 64.84 66.91 64.84 66.93 64.84L66.95 64.84L66.95 64.86L66.6 64.86L66.6 64.84L66.62 64.84C66.64 64.84 66.66 64.84 66.67 64.83C66.68 64.83 66.68 64.82 66.69 64.81C66.69 64.8 66.69 64.78 66.69 64.74L66.69 64.23L66.65 64.23C66.6 64.23 66.57 64.24 66.55 64.26C66.52 64.28 66.5 64.32 66.5 64.37L66.48 64.37L66.48 64.19L67.08 64.19L67.08 64.19Z" fill="#FFFFFF" fill-opacity="1.000000" fill-rule="evenodd"/>
	<path id="Vector" d="M39.21 77.09L39.21 77.78L39.15 77.78C39.11 77.62 39.06 77.5 39.01 77.44C38.96 77.36 38.9 77.31 38.81 77.27C38.76 77.25 38.68 77.23 38.56 77.23L38.37 77.23L38.37 79.22C38.37 79.35 38.37 79.43 38.39 79.47C38.4 79.5 38.43 79.53 38.47 79.55C38.51 79.58 38.57 79.59 38.64 79.59L38.73 79.59L38.73 79.66L37.39 79.66L37.39 79.59L37.47 79.59C37.55 79.59 37.61 79.58 37.65 79.55C37.68 79.53 37.71 79.5 37.73 79.46C37.74 79.43 37.75 79.35 37.75 79.22L37.75 77.23L37.56 77.23C37.39 77.23 37.27 77.27 37.19 77.34C37.08 77.45 37.01 77.59 36.98 77.78L36.91 77.78L36.91 77.09L39.21 77.09L39.21 77.09ZM40.41 77.23L40.41 78.28L40.46 78.28C40.62 78.28 40.74 78.23 40.81 78.13C40.89 78.02 40.93 77.87 40.95 77.68L41.03 77.68L41.03 79.02L40.95 79.02C40.94 78.87 40.91 78.75 40.86 78.66C40.81 78.57 40.75 78.5 40.69 78.47C40.62 78.44 40.53 78.42 40.41 78.42L40.41 79.15C40.41 79.29 40.41 79.37 40.42 79.4C40.44 79.44 40.46 79.46 40.49 79.48C40.52 79.5 40.58 79.51 40.65 79.51L40.8 79.51C41.04 79.51 41.24 79.46 41.38 79.35C41.53 79.24 41.63 79.07 41.69 78.84L41.76 78.84L41.65 79.66L39.43 79.66L39.43 79.59L39.52 79.59C39.59 79.59 39.65 79.58 39.69 79.55C39.73 79.53 39.75 79.5 39.77 79.46C39.78 79.43 39.79 79.35 39.79 79.22L39.79 77.52C39.79 77.41 39.79 77.34 39.78 77.31C39.77 77.26 39.75 77.23 39.71 77.21C39.66 77.17 39.6 77.15 39.52 77.15L39.43 77.15L39.43 77.09L41.58 77.09L41.58 77.85L41.5 77.85C41.47 77.66 41.42 77.53 41.35 77.45C41.28 77.37 41.19 77.31 41.07 77.27C41 77.25 40.87 77.23 40.67 77.23L40.41 77.23L40.41 77.23ZM43.58 78.15L44.28 79.2C44.4 79.37 44.49 79.48 44.54 79.52C44.59 79.56 44.64 79.58 44.71 79.59L44.71 79.66L43.46 79.66L43.46 79.59C43.56 79.58 43.62 79.57 43.65 79.54C43.68 79.52 43.7 79.49 43.7 79.46C43.7 79.44 43.69 79.42 43.68 79.4C43.67 79.36 43.62 79.29 43.55 79.18L43.18 78.63L42.79 79.11C42.67 79.25 42.61 79.35 42.61 79.41C42.61 79.44 42.62 79.48 42.66 79.51C42.69 79.54 42.73 79.56 42.79 79.58C42.82 79.59 42.87 79.59 42.95 79.59L42.95 79.66L41.97 79.66L41.97 79.59C42.08 79.57 42.17 79.54 42.23 79.5C42.32 79.44 42.43 79.32 42.59 79.13L43.09 78.51L42.44 77.55C42.33 77.39 42.27 77.3 42.26 77.28C42.22 77.24 42.19 77.21 42.16 77.19C42.13 77.18 42.08 77.16 42.02 77.15L42.02 77.09L43.29 77.09L43.29 77.15L43.23 77.15C43.16 77.15 43.11 77.16 43.08 77.19C43.05 77.21 43.03 77.24 43.03 77.28C43.03 77.3 43.04 77.33 43.05 77.35L43.18 77.55L43.5 78.02L43.76 77.7C43.9 77.53 43.97 77.41 43.97 77.34C43.97 77.31 43.96 77.28 43.94 77.25C43.92 77.22 43.89 77.19 43.86 77.18C43.82 77.16 43.76 77.15 43.69 77.15L43.69 77.09L44.63 77.09L44.63 77.15C44.56 77.15 44.5 77.16 44.45 77.18C44.41 77.2 44.36 77.23 44.31 77.28C44.27 77.31 44.19 77.4 44.06 77.56L43.58 78.15ZM45.79 78.42L45.79 79.22C45.79 79.35 45.8 79.43 45.81 79.47C45.83 79.5 45.86 79.53 45.9 79.55C45.94 79.58 46 79.59 46.07 79.59L46.15 79.59L46.15 79.66L44.82 79.66L44.82 79.59L44.9 79.59C44.98 79.59 45.04 79.58 45.08 79.55C45.11 79.53 45.14 79.5 45.16 79.46C45.17 79.43 45.18 79.35 45.18 79.22L45.18 77.52C45.18 77.39 45.17 77.31 45.16 77.28C45.14 77.24 45.11 77.21 45.07 77.19C45.03 77.16 44.97 77.15 44.9 77.15L44.82 77.15L44.82 77.09L46.15 77.09L46.15 77.15L46.07 77.15C45.99 77.15 45.94 77.17 45.89 77.19C45.86 77.21 45.83 77.24 45.81 77.28C45.8 77.31 45.79 77.39 45.79 77.52L45.79 78.25L46.7 78.25L46.7 77.52C46.7 77.39 46.7 77.31 46.68 77.28C46.67 77.24 46.64 77.21 46.6 77.19C46.55 77.16 46.5 77.15 46.43 77.15L46.34 77.15L46.34 77.09L47.68 77.09L47.68 77.15L47.6 77.15C47.52 77.15 47.46 77.17 47.42 77.19C47.38 77.21 47.36 77.24 47.34 77.28C47.33 77.31 47.32 77.39 47.32 77.52L47.32 79.22C47.32 79.35 47.33 79.43 47.34 79.47C47.35 79.5 47.38 79.53 47.43 79.55C47.47 79.58 47.52 79.59 47.6 79.59L47.68 79.59L47.68 79.66L46.34 79.66L46.34 79.59L46.43 79.59C46.5 79.59 46.56 79.58 46.6 79.55C46.64 79.53 46.66 79.5 46.68 79.46C46.7 79.43 46.7 79.35 46.7 79.22L46.7 78.42L45.79 78.42ZM49.24 77.06C49.65 77.04 49.98 77.16 50.24 77.41C50.5 77.67 50.62 77.98 50.62 78.36C50.62 78.69 50.53 78.97 50.34 79.22C50.08 79.55 49.73 79.71 49.27 79.71C48.81 79.71 48.45 79.56 48.2 79.24C48 79 47.9 78.7 47.9 78.37C47.9 77.98 48.03 77.67 48.29 77.41C48.54 77.16 48.86 77.04 49.24 77.06L49.24 77.06ZM49.27 77.18C49.03 77.18 48.85 77.3 48.73 77.53C48.63 77.73 48.58 78.01 48.58 78.38C48.58 78.82 48.66 79.14 48.81 79.35C48.92 79.5 49.07 79.57 49.26 79.57C49.39 79.57 49.5 79.54 49.59 79.48C49.7 79.39 49.79 79.27 49.85 79.09C49.91 78.91 49.94 78.68 49.94 78.4C49.94 78.06 49.91 77.8 49.85 77.64C49.78 77.47 49.7 77.35 49.6 77.28C49.51 77.21 49.39 77.18 49.27 77.18L49.27 77.18ZM53.35 77.15C53.21 77.15 53.12 77.17 53.08 77.22C53.04 77.26 53.02 77.35 53.02 77.47L53.02 79.26C53.02 79.39 53.04 79.48 53.08 79.52C53.12 79.56 53.21 79.59 53.35 79.59L53.35 79.66L52.06 79.66L52.06 79.59C52.17 79.59 52.24 79.58 52.28 79.56C52.32 79.55 52.35 79.52 52.37 79.48C52.39 79.44 52.4 79.37 52.4 79.27L52.4 77.25L51.79 77.25L51.79 78.02C51.79 78.34 51.78 78.59 51.76 78.75C51.75 78.92 51.7 79.08 51.63 79.23C51.56 79.38 51.47 79.5 51.36 79.57C51.24 79.65 51.12 79.69 50.98 79.69C50.86 79.69 50.76 79.65 50.69 79.59C50.63 79.52 50.59 79.44 50.59 79.35C50.59 79.27 50.61 79.2 50.65 79.15C50.7 79.1 50.76 79.07 50.84 79.07C50.98 79.07 51.06 79.16 51.08 79.34C51.08 79.43 51.11 79.47 51.17 79.47C51.25 79.47 51.33 79.41 51.42 79.31C51.51 79.2 51.57 79.05 51.6 78.86C51.63 78.68 51.65 78.41 51.65 78.05L51.65 77.57C51.65 77.43 51.64 77.34 51.62 77.29C51.6 77.24 51.57 77.21 51.52 77.19C51.47 77.17 51.39 77.15 51.26 77.15L51.26 77.09L53.35 77.09L53.35 77.15ZM54.95 77.06C55.36 77.04 55.69 77.16 55.95 77.41C56.2 77.67 56.33 77.98 56.33 78.36C56.33 78.69 56.24 78.97 56.04 79.22C55.79 79.55 55.44 79.71 54.97 79.71C54.51 79.71 54.16 79.56 53.9 79.24C53.7 79 53.6 78.7 53.6 78.37C53.6 77.98 53.73 77.67 53.99 77.41C54.25 77.16 54.57 77.04 54.95 77.06L54.95 77.06ZM54.97 77.18C54.74 77.18 54.56 77.3 54.44 77.53C54.33 77.73 54.29 78.01 54.29 78.38C54.29 78.82 54.36 79.14 54.52 79.35C54.62 79.5 54.78 79.57 54.97 79.57C55.1 79.57 55.21 79.54 55.3 79.48C55.41 79.39 55.49 79.27 55.56 79.09C55.62 78.91 55.65 78.68 55.65 78.4C55.65 78.06 55.62 77.8 55.55 77.64C55.49 77.47 55.41 77.35 55.31 77.28C55.21 77.21 55.1 77.18 54.97 77.18L54.97 77.18ZM56.55 77.09L58.81 77.09L58.81 77.78L58.74 77.78C58.71 77.61 58.67 77.49 58.63 77.42C58.58 77.35 58.52 77.3 58.45 77.28C58.38 77.26 58.25 77.25 58.05 77.25L57.52 77.25L57.52 79.25C57.52 79.39 57.54 79.49 57.59 79.53C57.63 79.57 57.71 79.59 57.82 79.59L57.88 79.59L57.88 79.66L56.55 79.66L56.55 79.59L56.62 79.59C56.73 79.59 56.81 79.57 56.85 79.52C56.89 79.48 56.91 79.39 56.91 79.25L56.91 77.48C56.91 77.36 56.89 77.28 56.86 77.23C56.82 77.18 56.75 77.15 56.63 77.15L56.55 77.15L56.55 77.09L56.55 77.09ZM60.89 77.51C60.89 77.37 60.88 77.27 60.85 77.23C60.81 77.18 60.73 77.15 60.6 77.15L60.52 77.15L60.52 77.09L61.89 77.09L61.89 77.15L61.81 77.15C61.69 77.15 61.61 77.18 61.57 77.22C61.53 77.27 61.51 77.37 61.51 77.52L61.51 79.22C61.51 79.38 61.53 79.48 61.57 79.52C61.61 79.57 61.69 79.59 61.81 79.59L61.89 79.59L61.89 79.66L60.52 79.66L60.52 79.59L60.6 79.59C60.72 79.59 60.8 79.57 60.84 79.52C60.88 79.47 60.89 79.37 60.89 79.22L60.89 77.82L59.99 79.24C59.99 79.37 60 79.45 60.03 79.51C60.06 79.56 60.15 79.59 60.28 79.59L60.37 79.59L60.37 79.66L58.99 79.66L58.99 79.59L59.08 79.59C59.2 79.59 59.28 79.57 59.32 79.52C59.35 79.47 59.37 79.37 59.37 79.22L59.37 77.52C59.37 77.37 59.36 77.27 59.33 77.22C59.3 77.18 59.21 77.15 59.08 77.15L58.99 77.15L58.99 77.09L60.37 77.09L60.37 77.15L60.28 77.15C60.16 77.15 60.09 77.18 60.05 77.23C60.01 77.28 59.99 77.38 59.99 77.52L59.99 78.93L60.89 77.51ZM63.47 77.09L64.71 77.09L64.71 77.15C64.55 77.15 64.45 77.17 64.41 77.2C64.37 77.24 64.35 77.32 64.35 77.45L64.35 79.26C64.35 79.36 64.36 79.43 64.37 79.46C64.38 79.5 64.41 79.53 64.45 79.55C64.49 79.58 64.55 79.59 64.63 79.59C64.64 79.59 64.67 79.59 64.71 79.59L64.71 79.66L63.38 79.66L63.38 79.59C63.49 79.59 63.57 79.58 63.61 79.56C63.66 79.55 63.69 79.52 63.71 79.48C63.73 79.44 63.74 79.38 63.74 79.3L63.74 78.48C63.44 78.63 63.17 78.71 62.92 78.71C62.79 78.71 62.68 78.68 62.58 78.64C62.49 78.6 62.42 78.53 62.38 78.45C62.34 78.37 62.32 78.25 62.32 78.1L62.32 77.49C62.32 77.35 62.3 77.25 62.25 77.21C62.2 77.17 62.1 77.15 61.97 77.15L61.97 77.09L63.2 77.09L63.2 77.15C63.12 77.15 63.06 77.17 63.01 77.2C62.96 77.24 62.94 77.31 62.94 77.42L62.94 78.12C62.94 78.2 62.95 78.25 62.96 78.29C62.97 78.33 63 78.37 63.05 78.4C63.1 78.43 63.16 78.45 63.24 78.45C63.4 78.45 63.57 78.4 63.74 78.31L63.74 77.52C63.74 77.41 63.73 77.33 63.72 77.29C63.71 77.25 63.69 77.21 63.65 77.19C63.61 77.16 63.55 77.15 63.47 77.15L63.47 77.09L63.47 77.09ZM65.84 77.23L65.84 78.28L65.9 78.28C66.06 78.28 66.18 78.23 66.25 78.13C66.32 78.02 66.37 77.87 66.39 77.68L66.46 77.68L66.46 79.02L66.39 79.02C66.38 78.87 66.34 78.75 66.3 78.66C66.25 78.57 66.19 78.5 66.13 78.47C66.06 78.44 65.97 78.42 65.84 78.42L65.84 79.15C65.84 79.29 65.85 79.37 65.86 79.4C65.87 79.44 65.9 79.46 65.93 79.48C65.96 79.5 66.02 79.51 66.09 79.51L66.24 79.51C66.48 79.51 66.67 79.46 66.82 79.35C66.96 79.24 67.07 79.07 67.13 78.84L67.2 78.84L67.09 79.66L64.87 79.66L64.87 79.59L64.95 79.59C65.03 79.59 65.09 79.58 65.13 79.55C65.17 79.53 65.19 79.5 65.21 79.46C65.22 79.43 65.23 79.35 65.23 79.22L65.23 77.52C65.23 77.41 65.23 77.34 65.22 77.31C65.21 77.26 65.18 77.23 65.15 77.21C65.1 77.17 65.04 77.15 64.95 77.15L64.87 77.15L64.87 77.09L67.01 77.09L67.01 77.85L66.94 77.85C66.91 77.66 66.85 77.53 66.79 77.45C66.72 77.37 66.63 77.31 66.51 77.27C66.44 77.25 66.31 77.23 66.11 77.23L65.84 77.23L65.84 77.23ZM69.96 77.03L69.96 77.92L69.89 77.92C69.83 77.69 69.73 77.51 69.58 77.38C69.43 77.26 69.25 77.19 69.06 77.19C68.9 77.19 68.76 77.24 68.62 77.33C68.49 77.43 68.39 77.55 68.33 77.7C68.25 77.89 68.21 78.1 68.21 78.33C68.21 78.56 68.24 78.77 68.3 78.96C68.36 79.15 68.45 79.29 68.57 79.39C68.69 79.49 68.85 79.54 69.05 79.54C69.21 79.54 69.36 79.5 69.49 79.43C69.63 79.36 69.77 79.24 69.92 79.06L69.92 79.28C69.77 79.43 69.62 79.54 69.47 79.61C69.31 79.68 69.13 79.71 68.92 79.71C68.65 79.71 68.41 79.66 68.19 79.55C67.98 79.44 67.82 79.28 67.7 79.08C67.59 78.87 67.53 78.65 67.53 78.42C67.53 78.17 67.59 77.94 67.72 77.72C67.85 77.5 68.02 77.33 68.24 77.21C68.46 77.09 68.69 77.03 68.93 77.03C69.11 77.03 69.3 77.07 69.5 77.15C69.62 77.19 69.69 77.21 69.72 77.21C69.76 77.21 69.8 77.2 69.83 77.17C69.86 77.14 69.88 77.09 69.89 77.03L69.96 77.03ZM70.25 77.09L71.59 77.09L71.59 77.15L71.54 77.15C71.42 77.15 71.33 77.18 71.29 77.22C71.25 77.27 71.23 77.36 71.23 77.49L71.23 78.26C71.4 78.26 71.52 78.25 71.57 78.24C71.62 78.23 71.67 78.19 71.72 78.13C71.76 78.08 71.81 77.97 71.85 77.8C71.9 77.61 71.95 77.47 71.99 77.37C72.04 77.28 72.1 77.2 72.18 77.14C72.27 77.09 72.37 77.06 72.49 77.06C72.61 77.06 72.71 77.09 72.78 77.16C72.85 77.23 72.89 77.32 72.89 77.42C72.89 77.5 72.86 77.56 72.82 77.6C72.77 77.65 72.71 77.67 72.63 77.67C72.49 77.67 72.41 77.59 72.4 77.42C72.4 77.34 72.37 77.3 72.31 77.3C72.26 77.3 72.21 77.33 72.17 77.39C72.13 77.46 72.08 77.57 72.04 77.74C71.99 77.9 71.95 78.02 71.92 78.1C71.89 78.19 71.84 78.25 71.78 78.31C71.86 78.33 71.92 78.36 71.97 78.39C72.01 78.42 72.05 78.46 72.08 78.52C72.12 78.57 72.19 78.7 72.31 78.92L72.57 79.38C72.61 79.45 72.66 79.51 72.72 79.54C72.77 79.57 72.84 79.59 72.92 79.59L72.92 79.66L72.06 79.66L71.53 78.67C71.47 78.56 71.43 78.49 71.4 78.47C71.37 78.44 71.31 78.43 71.23 78.43L71.23 79.3C71.23 79.42 71.25 79.5 71.3 79.54C71.35 79.57 71.45 79.59 71.59 79.59L71.59 79.66L70.25 79.66L70.25 79.59C70.4 79.59 70.5 79.56 70.54 79.52C70.59 79.48 70.61 79.39 70.61 79.26L70.61 77.54C70.61 77.38 70.59 77.28 70.56 77.23C70.52 77.18 70.44 77.15 70.31 77.15L70.25 77.15L70.25 77.09L70.25 77.09ZM74.94 77.51C74.94 77.37 74.92 77.27 74.89 77.23C74.86 77.18 74.78 77.15 74.65 77.15L74.57 77.15L74.57 77.09L75.94 77.09L75.94 77.15L75.85 77.15C75.73 77.15 75.66 77.18 75.62 77.22C75.58 77.27 75.56 77.37 75.56 77.52L75.56 79.22C75.56 79.38 75.58 79.48 75.62 79.52C75.66 79.57 75.74 79.59 75.85 79.59L75.94 79.59L75.94 79.66L74.57 79.66L74.57 79.59L74.65 79.59C74.77 79.59 74.85 79.57 74.89 79.52C74.92 79.47 74.94 79.37 74.94 79.22L74.94 77.82L74.04 79.24C74.04 79.37 74.05 79.45 74.08 79.51C74.11 79.56 74.19 79.59 74.33 79.59L74.42 79.59L74.42 79.66L73.04 79.66L73.04 79.59L73.13 79.59C73.25 79.59 73.33 79.57 73.36 79.52C73.4 79.47 73.42 79.37 73.42 79.22L73.42 77.52C73.42 77.37 73.4 77.27 73.37 77.22C73.34 77.18 73.26 77.15 73.13 77.15L73.04 77.15L73.04 77.09L74.42 77.09L74.42 77.15L74.33 77.15C74.21 77.15 74.13 77.18 74.1 77.23C74.06 77.28 74.04 77.38 74.04 77.52L74.04 78.93L74.94 77.51ZM77.5 76.84C77.24 76.84 77.05 76.81 76.93 76.74C76.82 76.67 76.76 76.59 76.76 76.48C76.76 76.43 76.78 76.39 76.81 76.35C76.85 76.32 76.9 76.3 76.95 76.3C77.05 76.3 77.13 76.37 77.18 76.5C77.21 76.58 77.25 76.63 77.3 76.66C77.34 76.68 77.41 76.7 77.49 76.7C77.58 76.7 77.65 76.68 77.7 76.66C77.74 76.63 77.78 76.57 77.82 76.49C77.88 76.37 77.96 76.3 78.05 76.3C78.11 76.3 78.15 76.32 78.19 76.36C78.23 76.39 78.24 76.44 78.24 76.5C78.24 76.6 78.18 76.68 78.06 76.74C77.94 76.81 77.75 76.84 77.5 76.84ZM77.96 77.51C77.96 77.37 77.94 77.27 77.91 77.23C77.87 77.18 77.79 77.15 77.67 77.15L77.58 77.15L77.58 77.09L78.96 77.09L78.96 77.15L78.87 77.15C78.75 77.15 78.67 77.18 78.63 77.22C78.59 77.27 78.57 77.37 78.57 77.52L78.57 79.22C78.57 79.38 78.59 79.48 78.63 79.52C78.67 79.57 78.75 79.59 78.87 79.59L78.96 79.59L78.96 79.66L77.58 79.66L77.58 79.59L77.67 79.59C77.79 79.59 77.86 79.57 77.9 79.52C77.94 79.47 77.96 79.37 77.96 79.22L77.96 77.82L77.05 79.24C77.05 79.37 77.06 79.45 77.1 79.51C77.13 79.56 77.21 79.59 77.34 79.59L77.43 79.59L77.43 79.66L76.05 79.66L76.05 79.59L76.14 79.59C76.26 79.59 76.34 79.57 76.38 79.52C76.42 79.47 76.43 79.37 76.43 79.22L76.43 77.52C76.43 77.37 76.42 77.27 76.39 77.22C76.36 77.18 76.28 77.15 76.14 77.15L76.05 77.15L76.05 77.09L77.43 77.09L77.43 77.15L77.34 77.15C77.23 77.15 77.15 77.18 77.11 77.23C77.07 77.28 77.05 77.38 77.05 77.52L77.05 78.93L77.96 77.51ZM44.83 81.38L45.69 81.38L45.69 81.44C45.6 81.45 45.53 81.48 45.47 81.54C45.42 81.6 45.34 81.72 45.26 81.89L44.46 83.46C44.33 83.71 44.22 83.86 44.13 83.92C44.04 83.98 43.93 84 43.81 84C43.67 84 43.57 83.97 43.5 83.89C43.43 83.82 43.39 83.73 43.39 83.64C43.39 83.57 43.42 83.51 43.47 83.46C43.52 83.41 43.58 83.38 43.65 83.38C43.72 83.38 43.77 83.4 43.8 83.44C43.83 83.47 43.85 83.54 43.87 83.63C43.88 83.74 43.92 83.79 44 83.79C44.09 83.79 44.17 83.71 44.25 83.54L44.29 83.46L43.37 81.79C43.29 81.65 43.22 81.56 43.17 81.52C43.11 81.48 43.03 81.45 42.92 81.44L42.92 81.38L44.19 81.38L44.19 81.44L44.15 81.44C44 81.44 43.92 81.48 43.92 81.55C43.92 81.58 43.94 81.62 43.96 81.67L44.61 82.84L45.09 81.88C45.16 81.75 45.19 81.66 45.19 81.6C45.19 81.55 45.17 81.52 45.13 81.49C45.1 81.46 45 81.45 44.83 81.44L44.83 81.38L44.83 81.38ZM46.78 82.71L46.78 83.51C46.78 83.64 46.79 83.72 46.8 83.76C46.82 83.79 46.85 83.82 46.89 83.84C46.93 83.87 46.99 83.88 47.06 83.88L47.14 83.88L47.14 83.95L45.81 83.95L45.81 83.88L45.89 83.88C45.96 83.88 46.02 83.87 46.07 83.84C46.1 83.82 46.13 83.79 46.15 83.75C46.16 83.72 46.17 83.64 46.17 83.51L46.17 81.82C46.17 81.68 46.16 81.6 46.15 81.57C46.13 81.53 46.1 81.51 46.06 81.48C46.02 81.46 45.96 81.44 45.89 81.44L45.81 81.44L45.81 81.38L47.14 81.38L47.14 81.44L47.06 81.44C46.98 81.44 46.92 81.46 46.88 81.48C46.85 81.5 46.82 81.53 46.8 81.57C46.79 81.61 46.78 81.69 46.78 81.82L46.78 82.54L47.69 82.54L47.69 81.82C47.69 81.68 47.69 81.6 47.67 81.57C47.66 81.53 47.63 81.51 47.59 81.48C47.54 81.46 47.49 81.44 47.42 81.44L47.33 81.44L47.33 81.38L48.67 81.38L48.67 81.44L48.59 81.44C48.51 81.44 48.45 81.46 48.41 81.48C48.37 81.5 48.35 81.53 48.33 81.57C48.32 81.61 48.31 81.69 48.31 81.82L48.31 83.51C48.31 83.64 48.32 83.72 48.33 83.76C48.34 83.79 48.37 83.82 48.41 83.84C48.46 83.87 48.51 83.88 48.59 83.88L48.67 83.88L48.67 83.95L47.33 83.95L47.33 83.88L47.42 83.88C47.49 83.88 47.55 83.87 47.59 83.84C47.63 83.82 47.65 83.79 47.67 83.75C47.69 83.72 47.69 83.64 47.69 83.51L47.69 82.71L46.78 82.71L46.78 82.71ZM50.7 81.8C50.7 81.66 50.68 81.57 50.65 81.52C50.62 81.47 50.54 81.44 50.41 81.44L50.32 81.44L50.32 81.38L51.7 81.38L51.7 81.44L51.61 81.44C51.49 81.44 51.41 81.47 51.37 81.51C51.33 81.56 51.31 81.66 51.31 81.82L51.31 83.51C51.31 83.67 51.33 83.77 51.37 83.81C51.41 83.86 51.49 83.88 51.61 83.88L51.7 83.88L51.7 83.95L50.32 83.95L50.32 83.88L50.41 83.88C50.53 83.88 50.61 83.86 50.64 83.81C50.68 83.76 50.7 83.66 50.7 83.51L50.7 82.11L49.79 83.53C49.79 83.66 49.81 83.75 49.84 83.8C49.87 83.85 49.95 83.88 50.08 83.88L50.17 83.88L50.17 83.95L48.8 83.95L48.8 83.88L48.88 83.88C49 83.88 49.08 83.86 49.12 83.81C49.16 83.76 49.18 83.66 49.18 83.51L49.18 81.82C49.18 81.66 49.16 81.56 49.13 81.51C49.1 81.47 49.02 81.44 48.88 81.44L48.8 81.44L48.8 81.38L50.17 81.38L50.17 81.44L50.08 81.44C49.97 81.44 49.89 81.47 49.85 81.52C49.81 81.57 49.79 81.67 49.79 81.82L49.79 83.22L50.7 81.8ZM53.47 82.58C53.72 82.64 53.89 82.71 53.99 82.79C54.13 82.9 54.2 83.05 54.2 83.24C54.2 83.43 54.12 83.59 53.97 83.72C53.78 83.87 53.5 83.95 53.14 83.95L51.83 83.95L51.83 83.88C51.95 83.88 52.03 83.87 52.07 83.85C52.12 83.82 52.15 83.8 52.16 83.76C52.18 83.72 52.19 83.64 52.19 83.5L52.19 81.83C52.19 81.69 52.18 81.6 52.16 81.56C52.15 81.53 52.12 81.5 52.07 81.48C52.03 81.45 51.95 81.44 51.83 81.44L51.83 81.38L53.06 81.38C53.36 81.38 53.57 81.4 53.69 81.46C53.81 81.51 53.91 81.59 53.98 81.69C54.05 81.79 54.08 81.91 54.08 82.02C54.08 82.15 54.04 82.26 53.95 82.35C53.86 82.45 53.7 82.53 53.47 82.58L53.47 82.58ZM52.78 82.53C52.96 82.53 53.1 82.51 53.18 82.47C53.27 82.43 53.33 82.37 53.38 82.3C53.43 82.23 53.45 82.13 53.45 82.02C53.45 81.91 53.43 81.81 53.38 81.74C53.34 81.67 53.27 81.61 53.19 81.58C53.1 81.54 52.97 81.52 52.78 81.52L52.78 82.53ZM52.78 82.68L52.78 83.6C52.78 83.66 52.8 83.72 52.83 83.75C52.87 83.79 52.92 83.8 52.98 83.8C53.08 83.8 53.17 83.78 53.26 83.74C53.34 83.69 53.41 83.63 53.45 83.54C53.5 83.46 53.52 83.36 53.52 83.26C53.52 83.14 53.49 83.03 53.44 82.94C53.39 82.84 53.32 82.77 53.22 82.74C53.12 82.7 52.98 82.68 52.78 82.68ZM55.39 81.52L55.39 82.57L55.44 82.57C55.6 82.57 55.72 82.52 55.8 82.42C55.87 82.32 55.92 82.17 55.94 81.97L56.01 81.97L56.01 83.31L55.94 83.31C55.92 83.16 55.89 83.04 55.84 82.95C55.79 82.86 55.73 82.79 55.67 82.76C55.61 82.73 55.51 82.71 55.39 82.71L55.39 83.44C55.39 83.58 55.4 83.66 55.41 83.69C55.42 83.73 55.44 83.75 55.47 83.77C55.51 83.79 55.56 83.8 55.63 83.8L55.79 83.8C56.03 83.8 56.22 83.75 56.36 83.64C56.51 83.53 56.61 83.36 56.68 83.13L56.75 83.13L56.63 83.95L54.41 83.95L54.41 83.88L54.5 83.88C54.57 83.88 54.63 83.87 54.68 83.84C54.71 83.82 54.74 83.79 54.75 83.75C54.77 83.72 54.77 83.64 54.77 83.51L54.77 81.82C54.77 81.7 54.77 81.63 54.76 81.6C54.75 81.55 54.73 81.52 54.69 81.5C54.65 81.46 54.58 81.44 54.5 81.44L54.41 81.44L54.41 81.38L56.56 81.38L56.56 82.14L56.49 82.14C56.45 81.95 56.4 81.82 56.33 81.74C56.27 81.66 56.17 81.6 56.05 81.56C55.98 81.54 55.85 81.52 55.66 81.52L55.39 81.52L55.39 81.52ZM57.97 82.78L57.97 83.5C57.97 83.64 57.97 83.72 57.99 83.76C58.01 83.8 58.04 83.83 58.08 83.85C58.13 83.87 58.21 83.88 58.32 83.88L58.32 83.95L57.02 83.95L57.02 83.88C57.14 83.88 57.22 83.87 57.26 83.85C57.3 83.82 57.33 83.8 57.35 83.76C57.36 83.72 57.37 83.64 57.37 83.5L57.37 81.83C57.37 81.69 57.36 81.6 57.35 81.56C57.33 81.53 57.3 81.5 57.26 81.48C57.21 81.45 57.13 81.44 57.02 81.44L57.02 81.38L58.14 81.38C58.5 81.38 58.77 81.44 58.93 81.57C59.09 81.71 59.17 81.87 59.17 82.07C59.17 82.23 59.12 82.38 59.02 82.5C58.91 82.61 58.77 82.7 58.59 82.74C58.46 82.77 58.26 82.78 57.97 82.78ZM57.97 81.52L57.97 82.64C58.01 82.64 58.04 82.64 58.06 82.64C58.22 82.64 58.33 82.59 58.42 82.5C58.5 82.41 58.54 82.27 58.54 82.08C58.54 81.89 58.5 81.75 58.42 81.66C58.33 81.57 58.21 81.52 58.04 81.52L57.97 81.52ZM61.92 81.32L61.92 82.21L61.84 82.21C61.79 81.98 61.69 81.8 61.53 81.67C61.38 81.55 61.21 81.49 61.02 81.49C60.86 81.49 60.72 81.53 60.58 81.62C60.45 81.72 60.35 81.84 60.29 81.99C60.21 82.18 60.17 82.39 60.17 82.62C60.17 82.85 60.2 83.06 60.26 83.25C60.31 83.44 60.41 83.58 60.53 83.68C60.65 83.78 60.81 83.83 61.01 83.83C61.17 83.83 61.32 83.79 61.45 83.72C61.59 83.65 61.73 83.53 61.88 83.35L61.88 83.58C61.73 83.73 61.58 83.83 61.43 83.9C61.27 83.97 61.09 84 60.88 84C60.61 84 60.36 83.95 60.15 83.84C59.94 83.73 59.78 83.57 59.66 83.37C59.55 83.16 59.49 82.94 59.49 82.71C59.49 82.46 59.55 82.23 59.68 82.01C59.81 81.79 59.98 81.62 60.2 81.5C60.42 81.38 60.65 81.32 60.89 81.32C61.07 81.32 61.26 81.36 61.46 81.44C61.58 81.48 61.65 81.51 61.68 81.51C61.72 81.51 61.76 81.49 61.79 81.46C61.82 81.43 61.84 81.38 61.84 81.32L61.92 81.32L61.92 81.32ZM64.09 81.8C64.09 81.66 64.07 81.57 64.04 81.52C64.01 81.47 63.93 81.44 63.8 81.44L63.72 81.44L63.72 81.38L65.09 81.38L65.09 81.44L65 81.44C64.88 81.44 64.8 81.47 64.77 81.51C64.73 81.56 64.71 81.66 64.71 81.82L64.71 83.51C64.71 83.67 64.73 83.77 64.77 83.81C64.81 83.86 64.88 83.88 65 83.88L65.09 83.88L65.09 83.95L63.72 83.95L63.72 83.88L63.8 83.88C63.92 83.88 64 83.86 64.04 83.81C64.07 83.76 64.09 83.66 64.09 83.51L64.09 82.11L63.19 83.53C63.19 83.66 63.2 83.75 63.23 83.8C63.26 83.85 63.34 83.88 63.48 83.88L63.56 83.88L63.56 83.95L62.19 83.95L62.19 83.88L62.27 83.88C62.39 83.88 62.47 83.86 62.51 83.81C62.55 83.76 62.57 83.66 62.57 83.51L62.57 81.82C62.57 81.66 62.55 81.56 62.52 81.51C62.49 81.47 62.41 81.44 62.27 81.44L62.19 81.44L62.19 81.38L63.56 81.38L63.56 81.44L63.48 81.44C63.36 81.44 63.28 81.47 63.24 81.52C63.2 81.57 63.19 81.67 63.19 81.82L63.19 83.22L64.09 81.8ZM67.59 81.38L67.59 82.07L67.52 82.07C67.48 81.91 67.44 81.8 67.39 81.73C67.34 81.66 67.27 81.6 67.19 81.56C67.14 81.54 67.06 81.52 66.93 81.52L66.74 81.52L66.74 83.51C66.74 83.64 66.75 83.72 66.76 83.76C66.78 83.79 66.81 83.82 66.85 83.84C66.89 83.87 66.95 83.88 67.02 83.88L67.1 83.88L67.1 83.95L65.76 83.95L65.76 83.88L65.85 83.88C65.92 83.88 65.98 83.87 66.03 83.84C66.06 83.82 66.09 83.79 66.1 83.75C66.12 83.72 66.13 83.64 66.13 83.51L66.13 81.52L65.94 81.52C65.77 81.52 65.64 81.56 65.56 81.63C65.46 81.74 65.39 81.88 65.36 82.07L65.28 82.07L65.28 81.38L67.59 81.38Z" fill="#FFFFFF" fill-opacity="1.000000" fill-rule="nonzero"/>
	<path id="Vector" d="M68.78 81.53L68.78 82.58L68.83 82.58C68.99 82.58 69.11 82.52 69.19 82.42C69.26 82.32 69.31 82.17 69.33 81.97L69.4 81.97L69.4 83.32L69.33 83.32C69.31 83.17 69.28 83.05 69.23 82.96C69.18 82.86 69.12 82.8 69.06 82.77C69 82.74 68.9 82.72 68.78 82.72L68.78 83.44C68.78 83.58 68.78 83.67 68.8 83.7C68.81 83.73 68.83 83.76 68.86 83.78C68.9 83.8 68.95 83.81 69.02 83.81L69.18 83.81C69.42 83.81 69.61 83.75 69.75 83.64C69.9 83.53 70 83.36 70.06 83.14L70.14 83.14L70.02 83.95L67.8 83.95L67.8 83.89L67.89 83.89C67.96 83.89 68.02 83.87 68.07 83.85C68.1 83.83 68.12 83.8 68.14 83.75C68.16 83.72 68.16 83.64 68.16 83.51L68.16 81.82C68.16 81.7 68.16 81.63 68.15 81.6C68.14 81.56 68.12 81.53 68.08 81.5C68.04 81.47 67.97 81.45 67.89 81.45L67.8 81.45L67.8 81.38L69.95 81.38L69.95 82.14L69.88 82.14C69.84 81.96 69.79 81.82 69.72 81.74C69.66 81.66 69.56 81.6 69.44 81.56C69.37 81.54 69.24 81.53 69.05 81.53L68.78 81.53L68.78 81.53ZM72.75 81.38L72.75 82.08L72.69 82.08C72.65 81.92 72.6 81.8 72.55 81.73C72.5 81.66 72.44 81.61 72.35 81.56C72.3 81.54 72.22 81.53 72.1 81.53L71.91 81.53L71.91 83.51C71.91 83.65 71.91 83.73 71.93 83.76C71.94 83.79 71.97 83.82 72.01 83.85C72.05 83.87 72.11 83.89 72.18 83.89L72.27 83.89L72.27 83.95L70.93 83.95L70.93 83.89L71.01 83.89C71.09 83.89 71.15 83.87 71.19 83.85C71.22 83.83 71.25 83.8 71.27 83.75C71.28 83.72 71.29 83.64 71.29 83.51L71.29 81.53L71.1 81.53C70.93 81.53 70.81 81.57 70.73 81.64C70.62 81.74 70.55 81.89 70.52 82.08L70.45 82.08L70.45 81.38L72.75 81.38L72.75 81.38Z" fill="#FFFFFF" fill-opacity="1.000000" fill-rule="nonzero"/>
	<path id="Vector" d="M23.87 41.41L24.66 37.33C24.7 37.15 24.71 36.97 24.7 36.81C24.69 36.64 24.65 36.5 24.59 36.37L24.58 36.37C24.5 36.19 24.37 36.08 24.21 36.04C24.05 36 23.86 36.03 23.65 36.14C23.45 36.24 23.31 36.39 23.25 36.58C23.19 36.78 23.21 37.01 23.31 37.27L23.31 37.27L22.04 37.9L22.04 37.89C21.86 37.47 21.79 37.07 21.81 36.69C21.84 36.31 21.95 35.97 22.17 35.67C22.38 35.38 22.68 35.13 23.05 34.95C23.46 34.75 23.85 34.64 24.2 34.63C24.56 34.62 24.88 34.71 25.16 34.89C25.43 35.07 25.66 35.34 25.84 35.7L25.84 35.71C25.99 36 26.08 36.33 26.12 36.67C26.17 37.02 26.15 37.35 26.08 37.68L25.47 40.52L27.72 39.41L28.31 40.61L24.42 42.52L23.87 41.41L23.87 41.41ZM31.24 39.33C30.88 39.49 30.53 39.56 30.17 39.53C29.81 39.5 29.48 39.37 29.17 39.15C28.86 38.92 28.6 38.61 28.39 38.21L28.39 38.2L29.65 37.64L29.65 37.64C29.78 37.88 29.94 38.03 30.13 38.12C30.32 38.2 30.51 38.19 30.71 38.1C30.93 38 31.07 37.85 31.13 37.66C31.19 37.46 31.16 37.23 31.04 36.96L30.79 36.4C30.67 36.14 30.52 35.96 30.35 35.87C30.18 35.77 29.99 35.77 29.8 35.85C29.62 35.94 29.48 36.05 29.4 36.2C29.31 36.35 29.28 36.52 29.31 36.7L28.13 37.23L26.41 33.39L30 31.78L30.55 33L28.21 34.04L28.74 35.22C28.8 35.09 28.89 34.96 29.03 34.83C29.17 34.7 29.32 34.6 29.49 34.53C29.83 34.37 30.17 34.32 30.48 34.37C30.8 34.42 31.09 34.57 31.36 34.82C31.62 35.07 31.85 35.41 32.05 35.84L32.3 36.4C32.49 36.83 32.58 37.24 32.56 37.61C32.54 37.99 32.42 38.32 32.2 38.61C31.98 38.91 31.66 39.14 31.24 39.33L31.24 39.33ZM36.47 35.58C36.7 35.5 36.88 35.38 37.01 35.21C37.13 35.04 37.2 34.82 37.22 34.56C37.23 34.31 37.18 34.02 37.08 33.7L35.75 29.52L37.07 29.1L38.44 33.41C38.62 33.98 38.68 34.48 38.63 34.94C38.57 35.4 38.41 35.78 38.13 36.1C37.84 36.42 37.46 36.66 36.97 36.81L36.87 36.84L36.47 35.58L36.47 35.58ZM39.14 28.44L40.45 28.02L42.67 35L41.36 35.42L39.14 28.44ZM36.46 29.29L39.66 28.27L40.06 29.54L36.86 30.56L36.46 29.29ZM42.3 27.37L43.63 27.01L45.5 34.09L44.17 34.44L42.3 27.37L42.3 27.37ZM44.31 33.03L48.57 31.91L48.91 33.19L44.65 34.32L44.31 33.03ZM43.55 30.16L47.28 29.17L47.62 30.46L43.89 31.44L43.55 30.16ZM42.78 27.24L47.04 26.11L47.38 27.4L43.12 28.52L42.78 27.24L42.78 27.24ZM50.06 26L51.41 25.69L52.89 32.25L51.54 32.55L50.06 26ZM47.99 25.85L53.22 24.67L53.52 25.97L48.28 27.15L47.99 25.85Z" fill="#FFFFFF" fill-opacity="1.000000" fill-rule="nonzero"/>
	<path id="Vector" d="M16.82 51.55L17.12 51.32L18.72 53.44L18.43 53.67L16.82 51.55L16.82 51.55ZM15.62 52.46L15.92 52.23L17.52 54.35L17.22 54.58L15.62 52.46L15.62 52.46ZM16.51 53.25L17.69 52.36L17.9 52.65L16.73 53.54L16.51 53.25L16.51 53.25ZM18.33 50.51L18.58 50.32L20.92 51.91L20.6 52.15L18.75 50.83L19.4 53L19.07 53.24L18.33 50.51L18.33 50.51ZM18.89 52.21L20.03 51.4L20.24 51.69L19.1 52.5L18.89 52.21ZM22.87 50.71C22.72 50.81 22.56 50.86 22.39 50.87C22.23 50.88 22.08 50.84 21.93 50.75C21.79 50.67 21.66 50.55 21.56 50.38L21.15 49.75C21.05 49.59 20.99 49.42 20.97 49.25C20.96 49.09 20.99 48.93 21.07 48.79C21.14 48.64 21.26 48.52 21.41 48.42C21.57 48.32 21.73 48.27 21.89 48.26C22.05 48.25 22.21 48.29 22.35 48.37C22.5 48.46 22.62 48.58 22.73 48.74L23.13 49.38C23.24 49.54 23.3 49.71 23.31 49.87C23.33 50.04 23.29 50.2 23.22 50.34C23.14 50.49 23.03 50.61 22.87 50.71L22.87 50.71ZM22.67 50.4C22.77 50.34 22.84 50.27 22.88 50.18C22.92 50.09 22.94 50 22.93 49.9C22.92 49.8 22.88 49.7 22.82 49.6L22.4 48.94C22.33 48.84 22.26 48.76 22.17 48.71C22.08 48.66 21.99 48.63 21.89 48.64C21.8 48.64 21.7 48.67 21.61 48.73C21.52 48.79 21.45 48.86 21.41 48.95C21.36 49.04 21.35 49.13 21.36 49.23C21.37 49.33 21.4 49.43 21.47 49.53L21.89 50.19C21.95 50.29 22.03 50.37 22.11 50.42C22.2 50.47 22.29 50.49 22.39 50.49C22.49 50.49 22.58 50.46 22.67 50.4ZM23.57 48.61L24.3 48.17C24.37 48.13 24.42 48.07 24.45 48.01C24.48 47.95 24.5 47.88 24.49 47.8C24.48 47.72 24.46 47.65 24.41 47.57C24.36 47.49 24.31 47.43 24.24 47.39C24.18 47.35 24.11 47.32 24.04 47.32C23.96 47.32 23.89 47.34 23.83 47.38L23.1 47.82L22.92 47.52L23.63 47.09C23.77 47 23.9 46.96 24.04 46.96C24.18 46.95 24.31 46.99 24.43 47.06C24.55 47.13 24.65 47.23 24.74 47.37C24.82 47.51 24.86 47.65 24.87 47.79C24.88 47.93 24.85 48.06 24.78 48.18C24.71 48.3 24.61 48.4 24.47 48.48L23.76 48.91L23.57 48.61ZM22.75 47.62L23.07 47.43L24.44 49.7L24.12 49.89L22.75 47.62ZM26.14 48.3L26.89 47.9C26.96 47.86 27.02 47.81 27.06 47.75C27.09 47.69 27.11 47.63 27.11 47.55C27.1 47.48 27.08 47.4 27.04 47.32C26.99 47.24 26.94 47.18 26.88 47.13C26.82 47.09 26.76 47.07 26.69 47.07C26.62 47.07 26.54 47.09 26.47 47.13L25.72 47.53L25.55 47.22L26.29 46.82C26.44 46.74 26.58 46.7 26.71 46.7C26.85 46.69 26.97 46.73 27.08 46.81C27.19 46.88 27.29 46.99 27.37 47.14C27.45 47.29 27.49 47.43 27.49 47.56C27.49 47.69 27.46 47.82 27.38 47.93C27.31 48.04 27.19 48.14 27.05 48.22L26.31 48.62L26.14 48.3L26.14 48.3ZM24.88 46.37L25.2 46.2L26.47 48.53L26.14 48.71L24.88 46.37ZM25.03 46.29L26.31 45.59L26.48 45.91L25.2 46.6L25.03 46.29ZM29.65 46.82L28.69 44.97L28.75 44.99L28.5 47.41L28.23 47.55L27.01 45.19L27.34 45.02L28.31 46.91L28.25 46.89L28.49 44.43L28.76 44.29L29.97 46.65L29.65 46.82L29.65 46.82ZM29.98 43.93L30.31 43.76L31.38 45.96L31.05 46.12L29.98 43.93ZM29.21 44.06L30.89 43.24L31.05 43.56L29.36 44.38L29.21 44.06ZM31.27 43.06L31.61 42.91L32.73 45.31L32.39 45.47L31.27 43.06ZM32.41 45.07L33.79 44.43L33.94 44.75L32.55 45.4L32.41 45.07ZM31.92 44.04L33.13 43.48L33.28 43.8L32.07 44.36L31.92 44.04ZM31.44 42.99L32.82 42.34L32.97 42.67L31.59 43.31L31.44 42.99ZM36.16 43.82C35.99 43.89 35.82 43.92 35.66 43.9C35.5 43.88 35.35 43.82 35.22 43.71C35.1 43.6 34.99 43.46 34.92 43.28L34.63 42.59C34.55 42.41 34.52 42.23 34.54 42.07C34.55 41.9 34.61 41.75 34.71 41.62C34.8 41.49 34.94 41.39 35.11 41.32C35.28 41.25 35.45 41.22 35.61 41.24C35.77 41.26 35.92 41.33 36.04 41.43C36.17 41.54 36.27 41.68 36.35 41.86L36.64 42.56C36.72 42.74 36.75 42.91 36.73 43.08C36.72 43.24 36.66 43.39 36.56 43.52C36.46 43.65 36.33 43.75 36.16 43.82L36.16 43.82ZM36.02 43.48C36.12 43.44 36.2 43.38 36.25 43.3C36.31 43.23 36.34 43.14 36.35 43.04C36.36 42.93 36.34 42.83 36.29 42.72L35.99 42C35.95 41.89 35.88 41.8 35.81 41.74C35.73 41.67 35.64 41.63 35.55 41.62C35.45 41.6 35.35 41.62 35.25 41.66C35.15 41.7 35.07 41.76 35.01 41.84C34.96 41.92 34.92 42.01 34.92 42.11C34.91 42.21 34.93 42.32 34.97 42.43L35.28 43.14C35.32 43.25 35.38 43.34 35.46 43.41C35.54 43.47 35.62 43.51 35.72 43.53C35.82 43.54 35.91 43.53 36.02 43.48ZM37.58 42.84L38.37 42.53C38.45 42.5 38.51 42.46 38.55 42.4C38.59 42.35 38.62 42.28 38.62 42.21C38.63 42.14 38.61 42.06 38.58 41.97C38.54 41.89 38.5 41.82 38.45 41.77C38.39 41.72 38.33 41.69 38.26 41.68C38.19 41.67 38.12 41.68 38.04 41.71L37.25 42.03L37.12 41.7L37.9 41.39C38.05 41.32 38.2 41.3 38.33 41.31C38.47 41.33 38.58 41.38 38.69 41.47C38.79 41.55 38.87 41.68 38.93 41.83C38.99 41.99 39.02 42.13 39 42.26C38.99 42.4 38.94 42.52 38.85 42.62C38.76 42.72 38.64 42.8 38.49 42.86L37.71 43.17L37.58 42.84L37.58 42.84ZM36.55 40.78L36.89 40.64L37.88 43.11L37.53 43.24L36.55 40.78ZM36.72 40.71L38.06 40.17L38.2 40.5L36.85 41.04L36.72 40.71ZM39.42 40.99L40.21 40.69C40.29 40.66 40.35 40.62 40.39 40.56C40.43 40.5 40.46 40.44 40.47 40.36C40.47 40.28 40.46 40.2 40.43 40.12C40.4 40.03 40.35 39.96 40.29 39.91C40.24 39.86 40.18 39.82 40.11 39.81C40.03 39.79 39.96 39.8 39.89 39.83L39.09 40.13L38.97 39.8L39.75 39.5C39.9 39.45 40.04 39.43 40.18 39.45C40.31 39.47 40.43 39.53 40.54 39.62C40.65 39.71 40.73 39.83 40.78 39.98C40.84 40.13 40.86 40.28 40.84 40.42C40.82 40.55 40.77 40.68 40.68 40.78C40.59 40.89 40.47 40.97 40.33 41.02L39.54 41.32L39.42 40.99L39.42 40.99ZM38.79 39.87L39.14 39.74L40.08 42.22L39.73 42.35L38.79 39.87ZM41.63 38.87L41.93 38.76L43.71 40.96L43.33 41.09L41.94 39.3L41.94 41.57L41.56 41.7L41.63 38.87L41.63 38.87ZM41.68 40.66L43 40.21L43.12 40.54L41.8 41L41.68 40.66ZM44.82 40.62C44.66 40.67 44.51 40.69 44.37 40.68C44.23 40.66 44.11 40.62 44 40.54C43.9 40.47 43.81 40.36 43.74 40.23L44.1 40.11C44.16 40.21 44.24 40.27 44.35 40.3C44.46 40.33 44.59 40.32 44.73 40.27C44.87 40.22 44.97 40.15 45.02 40.06C45.07 39.96 45.08 39.85 45.04 39.72L45.04 39.72C44.99 39.58 44.92 39.49 44.83 39.44C44.74 39.39 44.63 39.38 44.51 39.42L44.14 39.54L44.03 39.21L44.4 39.09C44.51 39.05 44.59 38.99 44.63 38.91C44.67 38.82 44.67 38.72 44.63 38.61L44.62 38.59C44.59 38.48 44.52 38.4 44.43 38.37C44.35 38.33 44.24 38.33 44.11 38.38C43.99 38.41 43.9 38.47 43.83 38.56C43.77 38.64 43.74 38.73 43.74 38.84L43.38 38.96C43.36 38.81 43.37 38.68 43.41 38.56C43.45 38.44 43.52 38.33 43.62 38.24C43.72 38.15 43.84 38.09 43.98 38.04C44.15 37.99 44.3 37.96 44.43 37.97C44.57 37.99 44.68 38.03 44.77 38.11C44.87 38.19 44.94 38.3 44.98 38.44L44.99 38.45C45.03 38.59 45.04 38.71 45.01 38.83C44.99 38.95 44.93 39.04 44.83 39.13C44.96 39.12 45.08 39.15 45.18 39.24C45.28 39.32 45.36 39.45 45.41 39.61L45.41 39.62C45.46 39.77 45.47 39.91 45.45 40.04C45.42 40.17 45.35 40.29 45.24 40.38C45.14 40.48 45 40.56 44.82 40.62L44.82 40.62ZM47.02 39.89C46.84 39.95 46.67 39.96 46.52 39.92C46.36 39.88 46.22 39.81 46.1 39.69C45.98 39.57 45.89 39.42 45.84 39.23L45.61 38.51C45.55 38.33 45.54 38.15 45.57 37.99C45.6 37.82 45.67 37.68 45.78 37.56C45.89 37.44 46.04 37.36 46.21 37.3C46.39 37.25 46.56 37.24 46.72 37.27C46.88 37.31 47.01 37.39 47.13 37.5C47.25 37.62 47.34 37.77 47.4 37.96L47.62 38.68C47.68 38.86 47.69 39.04 47.66 39.2C47.63 39.37 47.56 39.51 47.45 39.63C47.34 39.75 47.2 39.84 47.02 39.89L47.02 39.89ZM46.91 39.54C47.01 39.51 47.1 39.46 47.16 39.38C47.23 39.31 47.27 39.23 47.29 39.13C47.3 39.02 47.29 38.92 47.26 38.8L47.03 38.06C46.99 37.95 46.94 37.85 46.87 37.78C46.8 37.71 46.72 37.66 46.62 37.64C46.53 37.62 46.43 37.62 46.32 37.65C46.22 37.69 46.13 37.74 46.07 37.81C46 37.88 45.96 37.97 45.95 38.07C45.93 38.17 45.94 38.28 45.97 38.39L46.21 39.13C46.24 39.25 46.29 39.34 46.36 39.41C46.43 39.49 46.52 39.53 46.61 39.56C46.71 39.58 46.81 39.57 46.91 39.54L46.91 39.54ZM48.56 39.07L49.25 38.87C49.43 38.82 49.55 38.75 49.62 38.66C49.68 38.56 49.69 38.45 49.66 38.33L49.66 38.32C49.63 38.24 49.6 38.17 49.55 38.11C49.5 38.06 49.44 38.03 49.37 38.01C49.29 38 49.21 38 49.11 38.03L48.33 38.25L48.23 37.93L49.01 37.71C49.15 37.67 49.24 37.61 49.29 37.53C49.34 37.45 49.34 37.35 49.31 37.22C49.27 37.1 49.21 37.01 49.12 36.97C49.02 36.93 48.9 36.93 48.75 36.97L48.02 37.18L47.93 36.84L48.72 36.62C48.89 36.57 49.03 36.56 49.16 36.59C49.29 36.61 49.4 36.67 49.48 36.75C49.56 36.84 49.63 36.96 49.67 37.1C49.69 37.19 49.7 37.28 49.69 37.36C49.67 37.45 49.64 37.53 49.59 37.6C49.53 37.68 49.46 37.74 49.36 37.79C49.46 37.77 49.56 37.78 49.66 37.82C49.75 37.86 49.82 37.91 49.89 37.99C49.95 38.06 50 38.15 50.03 38.25L50.03 38.26C50.07 38.4 50.07 38.53 50.04 38.65C50.01 38.77 49.95 38.88 49.85 38.97C49.75 39.06 49.63 39.12 49.48 39.17L48.65 39.4L48.56 39.07L48.56 39.07ZM47.72 36.9L48.07 36.8L48.8 39.36L48.44 39.46L47.72 36.9ZM50.73 36.04L51.04 35.95L52.68 38.26L52.29 38.37L51.02 36.49L50.87 38.75L50.48 38.86L50.73 36.04L50.73 36.04ZM50.67 37.83L52.02 37.47L52.11 37.81L50.76 38.18L50.67 37.83ZM53.9 35.22L54.26 35.13L54.9 37.71L54.54 37.8L53.9 35.22L53.9 35.22ZM52.44 35.58L52.8 35.49L53.44 38.07L53.07 38.16L52.44 35.58ZM52.94 36.66L54.37 36.31L54.46 36.65L53.03 37.01L52.94 36.66ZM57.09 37.2L56.61 35.16L56.66 35.2L55.84 37.49L55.54 37.56L54.93 34.98L55.29 34.9L55.77 36.96L55.72 36.92L56.54 34.6L56.84 34.53L57.45 37.11L57.09 37.2L57.09 37.2ZM58.48 35.79C58.33 35.83 58.19 35.82 58.06 35.78C57.93 35.74 57.83 35.67 57.74 35.57C57.65 35.47 57.59 35.34 57.55 35.18C57.52 35.03 57.52 34.88 57.56 34.75C57.6 34.62 57.66 34.51 57.76 34.42C57.86 34.33 57.99 34.27 58.14 34.24L58.99 34.05L59.07 34.4L58.2 34.59C58.13 34.61 58.07 34.64 58.03 34.68C57.98 34.73 57.95 34.79 57.94 34.86C57.92 34.93 57.92 35.01 57.94 35.1C57.96 35.18 57.99 35.25 58.03 35.31C58.08 35.37 58.13 35.41 58.19 35.44C58.25 35.46 58.32 35.47 58.39 35.45L59.25 35.26L59.33 35.61L58.48 35.79ZM58.37 35.65L58.75 35.65L58.37 36.91L57.93 37.01L58.37 35.65L58.37 35.65ZM58.78 34.1L59.15 34.02L59.72 36.61L59.35 36.69L58.78 34.1Z" fill="#FFFFFF" fill-opacity="1.000000" fill-rule="nonzero"/>
</svg>
