<svg width="43.125rem" height="65.125rem" viewBox="0 0 690 1042" fill="none" xmlns="http://www.w3.org/2000/svg" xmlns:xlink="http://www.w3.org/1999/xlink">
	<desc>
			Created with Pixso.
	</desc>
	<defs/>
	<path id="XMLID_5223_" d="M509.7 924.96C509.7 961.43 437.56 991.01 348.58 991.01C259.59 991.01 187.45 961.43 187.45 924.96C187.45 888.48 259.59 858.91 348.58 858.91C437.56 858.91 509.7 888.48 509.7 924.96Z" fill="#2786DE" fill-opacity="1.000000" fill-rule="evenodd"/>
	<path id="XMLID_5222_" d="M509.7 924.96C509.7 961.43 437.56 991.01 348.58 991.01C259.59 991.01 187.45 961.43 187.45 924.96C187.45 888.48 259.59 858.91 348.58 858.91C437.56 858.91 509.7 888.48 509.7 924.96Z" fill="#2786DE" fill-opacity="1.000000" fill-rule="evenodd"/>
	<g opacity="0.900000">
		<path id="XMLID_5220_" d="M536.07 924.96C536.07 964.42 458.03 996.41 361.76 996.41C265.49 996.41 187.45 964.42 187.45 924.96C187.45 885.49 265.49 853.5 361.76 853.5C458.03 853.5 536.07 885.49 536.07 924.96Z" fill="#FFFFFF" fill-opacity="1.000000" fill-rule="evenodd"/>
	</g>
	<path id="XMLID_5218_" d="M184.47 890.83C185.47 852.18 217.14 821.2 256.04 821.2C294.87 821.2 326.6 852.18 327.6 890.83C327.66 891.52 327.66 892.14 327.66 892.82C327.66 893.51 327.66 894.13 327.6 894.82C326.79 904.73 319.81 914.45 306.65 922.06C278.73 938.2 233.34 938.2 205.35 922.06C192.26 914.45 185.28 904.73 184.47 894.82C184.41 894.13 184.41 893.51 184.41 892.82C184.41 892.14 184.41 891.52 184.47 890.83Z" fill="#41C6F3" fill-opacity="1.000000" fill-rule="nonzero"/>
	<g opacity="0.600000">
		<path id="XMLID_5216_" d="M184.47 890.83C185.47 852.18 217.14 821.2 256.04 821.2C294.87 821.2 326.6 852.18 327.6 890.83C327.66 891.52 327.66 892.14 327.66 892.82C327.66 893.51 327.66 894.13 327.6 894.82C326.79 904.73 319.81 914.45 306.65 922.06C278.73 938.2 233.34 938.2 205.35 922.06C192.26 914.45 185.28 904.73 184.47 894.82C184.41 894.13 184.41 893.51 184.41 892.82C184.41 892.14 184.41 891.52 184.47 890.83Z" fill="#FFFFFF" fill-opacity="1.000000" fill-rule="nonzero"/>
	</g>
	<g opacity="0.300000">
		<path id="XMLID_5214_" d="M224.98 828.35C234.38 823.81 244.89 821.2 256.04 821.2C294.88 821.2 326.61 852.18 327.6 890.83C327.66 891.52 327.66 892.14 327.66 892.82C327.66 893.51 327.66 894.13 327.6 894.82C326.79 904.73 319.81 914.45 306.66 922.06C296.45 927.96 283.9 931.68 270.74 933.27C289.31 930.06 301.33 909.33 295.62 886.43C289 859.87 262.14 821.48 224.98 828.35Z" fill="#FFFFFF" fill-opacity="1.000000" fill-rule="nonzero"/>
	</g>
	<g opacity="0.100000">
		<path id="XMLID_5212_" d="M184.47 894.82C184.41 894.14 184.41 893.51 184.41 892.83C184.41 892.14 184.41 891.52 184.47 890.84C185.01 870.2 194.33 851.82 208.77 839.1C201 847.1 183.7 877.24 202.5 900.21C214.86 915.33 273.55 936.89 321.85 909.18C318.35 913.85 313.3 918.23 306.66 922.07C278.73 938.21 233.35 938.21 205.36 922.07C192.27 914.46 185.29 904.73 184.47 894.82Z" fill="#2786DE" fill-opacity="1.000000" fill-rule="nonzero"/>
	</g>
	<g opacity="0.500000">
		<path id="XMLID_5210_" d="M256.77 837.34C253.56 844.64 259.72 854.4 270.52 859.14C281.32 863.88 292.67 861.81 295.88 854.51C299.08 847.22 292.93 837.46 282.13 832.71C271.32 827.97 259.97 830.04 256.77 837.34Z" fill="#FFFFFF" fill-opacity="1.000000" fill-rule="nonzero"/>
	</g>
	<g opacity="0.500000">
		<path id="XMLID_5208_" d="M298.24 867.04C296.57 870.85 298.99 875.58 303.65 877.63C308.31 879.67 313.44 878.25 315.11 874.45C316.78 870.65 314.35 865.91 309.7 863.86C305.04 861.82 299.91 863.24 298.24 867.04Z" fill="#FFFFFF" fill-opacity="1.000000" fill-rule="nonzero"/>
	</g>
	<path id="XMLID_4069_" d="M28.19 906.71C28.65 888.73 43.38 874.32 61.48 874.32C79.54 874.32 94.3 888.73 94.77 906.71C94.79 907.03 94.79 907.32 94.79 907.64C94.79 907.96 94.79 908.25 94.77 908.57C94.39 913.18 91.14 917.7 85.02 921.24C72.03 928.75 50.92 928.75 37.9 921.24C31.82 917.7 28.57 913.18 28.19 908.57C28.16 908.25 28.16 907.96 28.16 907.64C28.16 907.32 28.16 907.03 28.19 906.71Z" fill="#41C6F3" fill-opacity="1.000000" fill-rule="nonzero"/>
	<g opacity="0.200000">
		<path id="XMLID_4059_" d="M28.19 906.71C28.65 888.73 43.38 874.32 61.48 874.32C79.54 874.32 94.3 888.73 94.77 906.71C94.79 907.03 94.79 907.32 94.79 907.64C94.79 907.96 94.79 908.25 94.77 908.57C94.39 913.18 91.14 917.7 85.02 921.24C72.03 928.75 50.92 928.75 37.9 921.24C31.82 917.7 28.57 913.18 28.19 908.57C28.16 908.25 28.16 907.96 28.16 907.64C28.16 907.32 28.16 907.03 28.19 906.71Z" fill="#FFFFFF" fill-opacity="1.000000" fill-rule="nonzero"/>
	</g>
	<g opacity="0.500000">
		<path id="XMLID_4057_" d="M47.03 877.65C51.41 875.54 56.3 874.32 61.48 874.32C79.55 874.32 94.31 888.73 94.77 906.71C94.8 907.03 94.8 907.32 94.8 907.64C94.8 907.96 94.8 908.25 94.77 908.57C94.39 913.18 91.15 917.7 85.03 921.24C80.28 923.98 74.44 925.71 68.32 926.45C76.96 924.96 82.55 915.32 79.89 904.67C76.81 892.31 64.32 874.46 47.03 877.65Z" fill="#FFFFFF" fill-opacity="1.000000" fill-rule="nonzero"/>
	</g>
	<g opacity="0.200000">
		<path id="XMLID_4053_" d="M28.19 908.57C28.16 908.25 28.16 907.96 28.16 907.64C28.16 907.32 28.16 907.03 28.19 906.71C28.44 897.12 32.77 888.56 39.49 882.64C35.88 886.36 27.83 900.38 36.57 911.07C42.33 918.1 69.62 928.13 92.09 915.24C90.46 917.41 88.11 919.45 85.02 921.23C72.03 928.74 50.92 928.74 37.9 921.23C31.82 917.7 28.57 913.18 28.19 908.57Z" fill="#2786DE" fill-opacity="1.000000" fill-rule="nonzero"/>
	</g>
	<g opacity="0.300000">
		<path id="XMLID_4051_" d="M61.82 881.83C60.33 885.22 63.19 889.76 68.22 891.97C73.24 894.18 78.52 893.21 80.01 889.82C81.5 886.42 78.63 881.89 73.61 879.68C68.59 877.47 63.31 878.43 61.82 881.83Z" fill="#FFFFFF" fill-opacity="1.000000" fill-rule="nonzero"/>
	</g>
	<g opacity="0.300000">
		<path id="XMLID_4045_" d="M81.11 895.65C80.33 897.41 81.46 899.62 83.62 900.57C85.79 901.52 88.18 900.86 88.95 899.09C89.73 897.32 88.6 895.12 86.44 894.16C84.27 893.21 81.88 893.88 81.11 895.65Z" fill="#FFFFFF" fill-opacity="1.000000" fill-rule="nonzero"/>
	</g>
	<path id="XMLID_4042_" d="M99.59 919.42C100.26 893.34 121.63 872.44 147.87 872.44C174.08 872.44 195.48 893.35 196.16 919.42C196.2 919.88 196.2 920.31 196.2 920.77C196.2 921.23 196.2 921.65 196.16 922.12C195.61 928.8 190.9 935.37 182.03 940.5C163.18 951.39 132.56 951.39 113.68 940.5C104.85 935.37 100.14 928.8 99.59 922.12C99.55 921.65 99.55 921.23 99.55 920.77C99.55 920.3 99.55 919.88 99.59 919.42Z" fill="#67D1F5" fill-opacity="1.000000" fill-rule="nonzero"/>
	<g opacity="0.600000">
		<path id="XMLID_4040_" d="M99.59 919.42C100.26 893.34 121.63 872.44 147.87 872.44C174.08 872.44 195.48 893.35 196.16 919.42C196.2 919.88 196.2 920.31 196.2 920.77C196.2 921.23 196.2 921.65 196.16 922.12C195.61 928.8 190.9 935.37 182.03 940.5C163.18 951.39 132.56 951.39 113.68 940.5C104.85 935.37 100.14 928.8 99.59 922.12C99.55 921.65 99.55 921.23 99.55 920.77C99.55 920.3 99.55 919.88 99.59 919.42Z" fill="#FFFFFF" fill-opacity="1.000000" fill-rule="nonzero"/>
	</g>
	<g opacity="0.300000">
		<path id="XMLID_4038_" d="M126.92 877.26C133.26 874.2 140.36 872.44 147.88 872.44C174.08 872.44 195.49 893.34 196.16 919.42C196.2 919.88 196.2 920.3 196.2 920.77C196.2 921.23 196.2 921.65 196.16 922.11C195.62 928.8 190.91 935.36 182.03 940.49C175.15 944.47 166.68 946.99 157.8 948.06C170.33 945.89 178.44 931.9 174.58 916.45C170.11 898.54 151.99 872.63 126.92 877.26Z" fill="#FFFFFF" fill-opacity="1.000000" fill-rule="nonzero"/>
	</g>
	<g opacity="0.100000">
		<path id="XMLID_4036_" d="M99.59 922.11C99.55 921.65 99.55 921.23 99.55 920.76C99.55 920.3 99.55 919.88 99.59 919.42C99.95 905.5 106.24 893.09 115.98 884.52C110.74 889.91 99.06 910.25 111.75 925.74C120.09 935.94 159.68 950.49 192.27 931.79C189.91 934.95 186.51 937.9 182.03 940.49C163.18 951.39 132.56 951.39 113.68 940.49C104.85 935.36 100.14 928.8 99.59 922.11Z" fill="#2786DE" fill-opacity="1.000000" fill-rule="nonzero"/>
	</g>
	<g opacity="0.500000">
		<path id="XMLID_4023_" d="M148.36 883.33C146.2 888.25 150.36 894.84 157.64 898.04C164.93 901.24 172.59 899.84 174.75 894.92C176.91 890 172.76 883.41 165.47 880.21C158.19 877.01 150.53 878.41 148.36 883.33Z" fill="#FFFFFF" fill-opacity="1.000000" fill-rule="nonzero"/>
	</g>
	<g opacity="0.500000">
		<path id="XMLID_4021_" d="M176.34 903.37C175.22 905.93 176.85 909.13 180 910.51C183.14 911.89 186.6 910.93 187.73 908.37C188.86 905.81 187.22 902.61 184.08 901.23C180.93 899.84 177.47 900.81 176.34 903.37Z" fill="#FFFFFF" fill-opacity="1.000000" fill-rule="nonzero"/>
	</g>
	<path id="XMLID_4017_" d="M57.07 947.77C57.71 923.02 77.99 903.17 102.91 903.17C127.78 903.17 148.1 923.01 148.74 947.77C148.78 948.21 148.78 948.61 148.78 949.05C148.78 949.49 148.78 949.89 148.74 950.33C148.22 956.68 143.75 962.9 135.33 967.78C117.44 978.12 88.37 978.12 70.44 967.78C62.06 962.9 57.58 956.68 57.07 950.33C57.03 949.89 57.03 949.49 57.03 949.05C57.03 948.61 57.03 948.21 57.07 947.77Z" fill="#42C6F3" fill-opacity="1.000000" fill-rule="nonzero"/>
	<g opacity="0.400000">
		<path id="XMLID_4015_" d="M57.07 947.77C57.71 923.02 77.99 903.17 102.91 903.17C127.78 903.17 148.1 923.01 148.74 947.77C148.78 948.21 148.78 948.61 148.78 949.05C148.78 949.49 148.78 949.89 148.74 950.33C148.22 956.68 143.75 962.9 135.33 967.78C117.44 978.12 88.37 978.12 70.44 967.78C62.06 962.9 57.58 956.68 57.07 950.33C57.03 949.89 57.03 949.49 57.03 949.05C57.03 948.61 57.03 948.21 57.07 947.77Z" fill="#FFFFFF" fill-opacity="1.000000" fill-rule="nonzero"/>
	</g>
	<g opacity="0.500000">
		<path id="XMLID_4013_" d="M83.01 907.75C89.03 904.84 95.76 903.17 102.9 903.17C127.78 903.17 148.1 923.01 148.74 947.77C148.78 948.21 148.78 948.61 148.78 949.05C148.78 949.49 148.78 949.89 148.74 950.33C148.22 956.68 143.75 962.9 135.32 967.78C128.79 971.56 120.75 973.94 112.32 974.95C124.21 972.9 131.91 959.62 128.25 944.95C124.01 927.94 106.81 903.35 83.01 907.75Z" fill="#FFFFFF" fill-opacity="1.000000" fill-rule="nonzero"/>
	</g>
	<g opacity="0.150000">
		<path id="XMLID_4011_" d="M57.07 950.33C57.03 949.89 57.03 949.49 57.03 949.05C57.03 948.61 57.03 948.21 57.07 947.77C57.41 934.56 63.38 922.78 72.63 914.63C67.65 919.76 56.57 939.06 68.61 953.77C76.53 963.45 114.12 977.27 145.05 959.52C142.82 962.51 139.58 965.32 135.33 967.77C117.44 978.11 88.37 978.11 70.44 967.77C62.06 962.9 57.58 956.68 57.07 950.33Z" fill="#2786DE" fill-opacity="1.000000" fill-rule="nonzero"/>
	</g>
	<g opacity="0.300000">
		<path id="XMLID_4009_" d="M103.37 913.51C101.32 918.18 105.26 924.43 112.18 927.47C119.1 930.51 126.37 929.18 128.42 924.51C130.47 919.83 126.53 913.58 119.61 910.54C112.7 907.51 105.42 908.83 103.37 913.51Z" fill="#FFFFFF" fill-opacity="1.000000" fill-rule="nonzero"/>
	</g>
	<g opacity="0.300000">
		<path id="XMLID_4007_" d="M129.93 932.53C128.86 934.97 130.41 938 133.4 939.32C136.38 940.63 139.67 939.72 140.74 937.28C141.81 934.84 140.25 931.81 137.27 930.5C134.28 929.19 131 930.1 129.93 932.53Z" fill="#FFFFFF" fill-opacity="1.000000" fill-rule="nonzero"/>
	</g>
	<path id="XMLID_4004_" d="M154.33 967.89C155.13 937.17 180.3 912.54 211.22 912.54C242.09 912.54 267.32 937.17 268.11 967.89C268.16 968.44 268.16 968.93 268.16 969.48C268.16 970.03 268.16 970.52 268.11 971.07C267.47 978.94 261.92 986.68 251.46 992.72C229.26 1005.56 193.19 1005.56 170.94 992.72C160.53 986.68 154.98 978.95 154.34 971.07C154.29 970.52 154.29 970.03 154.29 969.48C154.28 968.93 154.28 968.44 154.33 967.89Z" fill="#67D1F5" fill-opacity="1.000000" fill-rule="nonzero"/>
	<g opacity="0.600000">
		<path id="XMLID_4002_" d="M154.33 967.89C155.13 937.17 180.3 912.54 211.22 912.54C242.09 912.54 267.32 937.17 268.11 967.89C268.16 968.44 268.16 968.93 268.16 969.48C268.16 970.03 268.16 970.52 268.11 971.07C267.47 978.94 261.92 986.68 251.46 992.72C229.26 1005.56 193.19 1005.56 170.94 992.72C160.53 986.68 154.98 978.95 154.34 971.07C154.29 970.52 154.29 970.03 154.29 969.48C154.28 968.93 154.28 968.44 154.33 967.89Z" fill="#FFFFFF" fill-opacity="1.000000" fill-rule="nonzero"/>
	</g>
	<g opacity="0.300000">
		<path id="XMLID_3986_" d="M186.53 918.23C194.01 914.62 202.36 912.54 211.22 912.54C242.09 912.54 267.32 937.17 268.11 967.89C268.16 968.44 268.16 968.93 268.16 969.48C268.16 970.02 268.16 970.52 268.11 971.06C267.47 978.94 261.92 986.67 251.46 992.72C243.35 997.41 233.38 1000.37 222.91 1001.63C237.67 999.08 247.23 982.6 242.69 964.4C237.42 943.29 216.07 912.77 186.53 918.23Z" fill="#FFFFFF" fill-opacity="1.000000" fill-rule="nonzero"/>
	</g>
	<g opacity="0.100000">
		<path id="XMLID_3984_" d="M154.33 971.07C154.28 970.52 154.28 970.03 154.28 969.48C154.28 968.93 154.28 968.44 154.33 967.89C154.76 951.5 162.17 936.88 173.65 926.77C167.47 933.13 153.71 957.09 168.66 975.35C178.49 987.36 225.14 1004.51 263.53 982.48C260.76 986.19 256.74 989.67 251.46 992.72C229.26 1005.56 193.18 1005.56 170.93 992.72C160.53 986.67 154.98 978.94 154.33 971.07Z" fill="#2786DE" fill-opacity="1.000000" fill-rule="nonzero"/>
	</g>
	<g opacity="0.300000">
		<path id="XMLID_3980_" d="M211.8 925.37C209.25 931.17 214.15 938.93 222.73 942.7C231.32 946.47 240.34 944.83 242.89 939.03C245.43 933.23 240.54 925.47 231.96 921.7C223.37 917.93 214.35 919.57 211.8 925.37Z" fill="#FFFFFF" fill-opacity="1.000000" fill-rule="nonzero"/>
	</g>
	<g opacity="0.300000">
		<path id="XMLID_3978_" d="M244.77 948.98C243.44 952 245.37 955.77 249.07 957.4C252.77 959.03 256.85 957.9 258.18 954.88C259.5 951.85 257.57 948.09 253.87 946.46C250.17 944.83 246.09 945.96 244.77 948.98Z" fill="#FFFFFF" fill-opacity="1.000000" fill-rule="nonzero"/>
	</g>
	<path id="XMLID_3947_" d="M370.54 1028.47C370.26 1017.6 361.36 1008.9 350.43 1008.9C339.51 1008.9 330.59 1017.61 330.31 1028.47C330.3 1028.66 330.3 1028.84 330.3 1029.03C330.3 1029.22 330.3 1029.4 330.31 1029.59C330.54 1032.38 332.5 1035.11 336.2 1037.25C344.05 1041.78 356.81 1041.78 364.67 1037.25C368.35 1035.11 370.32 1032.37 370.54 1029.59C370.56 1029.4 370.56 1029.22 370.56 1029.03C370.56 1028.84 370.56 1028.66 370.54 1028.47Z" fill="#2786DE" fill-opacity="1.000000" fill-rule="nonzero"/>
	<g opacity="0.900000">
		<path id="XMLID_3944_" d="M370.54 1028.47C370.26 1017.6 361.36 1008.9 350.43 1008.9C339.51 1008.9 330.59 1017.61 330.31 1028.47C330.3 1028.66 330.3 1028.84 330.3 1029.03C330.3 1029.22 330.3 1029.4 330.31 1029.59C330.54 1032.38 332.5 1035.11 336.2 1037.25C344.05 1041.78 356.81 1041.78 364.67 1037.25C368.35 1035.11 370.32 1032.37 370.54 1029.59C370.56 1029.4 370.56 1029.22 370.56 1029.03C370.56 1028.84 370.56 1028.66 370.54 1028.47Z" fill="#FFFFFF" fill-opacity="1.000000" fill-rule="nonzero"/>
	</g>
	<g opacity="0.600000">
		<path id="XMLID_3942_" d="M359.16 1010.91C356.51 1009.63 353.56 1008.9 350.42 1008.9C339.51 1008.9 330.59 1017.61 330.31 1028.47C330.29 1028.66 330.29 1028.84 330.29 1029.03C330.29 1029.22 330.29 1029.4 330.31 1029.59C330.54 1032.38 332.5 1035.11 336.2 1037.25C339.07 1038.91 342.6 1039.94 346.29 1040.4C341.08 1039.5 337.7 1033.67 339.3 1027.23C341.16 1019.77 348.71 1008.98 359.16 1010.91Z" fill="#FFFFFF" fill-opacity="1.000000" fill-rule="nonzero"/>
	</g>
	<g opacity="0.100000">
		<path id="XMLID_3940_" d="M370.54 1029.59C370.56 1029.4 370.56 1029.22 370.56 1029.03C370.56 1028.84 370.56 1028.67 370.54 1028.47C370.39 1022.67 367.77 1017.5 363.71 1013.93C365.89 1016.18 370.75 1024.65 365.47 1031.1C361.99 1035.35 345.5 1041.42 331.93 1033.63C332.91 1034.93 334.33 1036.17 336.19 1037.25C344.05 1041.78 356.8 1041.78 364.67 1037.25C368.35 1035.11 370.31 1032.38 370.54 1029.59Z" fill="#2786DE" fill-opacity="1.000000" fill-rule="nonzero"/>
	</g>
	<g opacity="0.500000">
		<path id="XMLID_3938_" d="M350.22 1013.44C351.12 1015.49 349.39 1018.23 346.36 1019.56C343.32 1020.89 340.13 1020.31 339.23 1018.26C338.33 1016.21 340.06 1013.47 343.09 1012.14C346.13 1010.8 349.32 1011.38 350.22 1013.44Z" fill="#FFFFFF" fill-opacity="1.000000" fill-rule="nonzero"/>
	</g>
	<g opacity="0.500000">
		<path id="XMLID_3936_" d="M338.56 1021.78C339.03 1022.85 338.35 1024.18 337.04 1024.76C335.73 1025.32 334.29 1024.93 333.82 1023.87C333.35 1022.8 334.03 1021.46 335.34 1020.89C336.65 1020.31 338.09 1020.71 338.56 1021.78Z" fill="#FFFFFF" fill-opacity="1.000000" fill-rule="nonzero"/>
	</g>
	<path id="XMLID_3933_" d="M0.01 914.51C0.3 903.65 9.2 894.94 20.13 894.94C31.04 894.94 39.96 903.65 40.24 914.51C40.26 914.7 40.26 914.88 40.26 915.07C40.26 915.27 40.26 915.44 40.24 915.63C40.02 918.42 38.05 921.15 34.36 923.29C26.5 927.83 13.75 927.83 5.88 923.29C2.2 921.16 0.24 918.42 0.01 915.63C1.9e-5 915.44 0 915.27 0 915.07C0 914.88 0 914.71 0.01 914.51Z" fill="#67D1F5" fill-opacity="1.000000" fill-rule="nonzero"/>
	<g opacity="0.060000">
		<path id="XMLID_3931_" d="M0.01 914.51C0.3 903.65 9.2 894.94 20.13 894.94C31.04 894.94 39.96 903.65 40.24 914.51C40.26 914.7 40.26 914.88 40.26 915.07C40.26 915.27 40.26 915.44 40.24 915.63C40.02 918.42 38.05 921.15 34.36 923.29C26.5 927.83 13.75 927.83 5.88 923.29C2.2 921.16 0.24 918.42 0.01 915.63C1.9e-5 915.44 0 915.27 0 915.07C0 914.88 0 914.71 0.01 914.51Z" fill="#FFFFFF" fill-opacity="1.000000" fill-rule="nonzero"/>
	</g>
	<g opacity="0.500000">
		<path id="XMLID_3929_" d="M11.4 896.95C14.04 895.67 17 894.94 20.13 894.94C31.04 894.94 39.97 903.65 40.25 914.51C40.26 914.7 40.26 914.88 40.26 915.07C40.26 915.27 40.26 915.44 40.25 915.63C40.02 918.42 38.06 921.15 34.36 923.29C31.49 924.95 27.96 926 24.26 926.45C29.48 925.54 32.86 919.72 31.26 913.28C29.39 905.81 21.84 895.02 11.4 896.95Z" fill="#FFFFFF" fill-opacity="1.000000" fill-rule="nonzero"/>
	</g>
	<g opacity="0.050000">
		<path id="XMLID_3927_" d="M0.01 915.64C1.9e-5 915.44 0 915.27 0 915.07C0 914.88 1.9e-5 914.7 0.01 914.51C0.16 908.71 2.79 903.55 6.85 899.97C4.66 902.22 -0.2 910.69 5.08 917.15C8.56 921.4 25.05 927.45 38.63 919.67C37.65 920.98 36.23 922.21 34.36 923.29C26.51 927.83 13.75 927.83 5.89 923.29C2.2 921.15 0.24 918.42 0.01 915.64Z" fill="#455A64" fill-opacity="1.000000" fill-rule="nonzero"/>
	</g>
	<g opacity="0.300000">
		<path id="XMLID_516_" d="M20.33 899.48C19.43 901.53 21.17 904.27 24.2 905.61C27.23 906.94 30.43 906.36 31.33 904.3C32.23 902.25 30.5 899.51 27.46 898.18C24.43 896.85 21.24 897.43 20.33 899.48Z" fill="#FFFFFF" fill-opacity="1.000000" fill-rule="nonzero"/>
	</g>
	<g opacity="0.300000">
		<path id="XMLID_513_" d="M31.99 907.83C31.52 908.9 32.2 910.23 33.51 910.8C34.82 911.37 36.26 910.98 36.73 909.91C37.2 908.84 36.52 907.51 35.21 906.93C33.9 906.36 32.46 906.76 31.99 907.83Z" fill="#FFFFFF" fill-opacity="1.000000" fill-rule="nonzero"/>
	</g>
	<path id="XMLID_5218_" d="M514.9 890.83C513.91 852.18 482.24 821.2 443.34 821.2C404.51 821.2 372.77 852.18 371.78 890.83C371.72 891.52 371.72 892.14 371.72 892.82C371.72 893.51 371.72 894.13 371.78 894.82C372.59 904.73 379.57 914.45 392.72 922.06C420.65 938.2 466.04 938.2 494.03 922.06C507.12 914.45 514.1 904.73 514.91 894.82C514.97 894.13 514.97 893.51 514.97 892.82C514.97 892.14 514.97 891.52 514.9 890.83Z" fill="#41C6F3" fill-opacity="1.000000" fill-rule="nonzero"/>
	<g opacity="0.600000">
		<path id="XMLID_5216_" d="M514.9 890.83C513.91 852.18 482.24 821.2 443.34 821.2C404.51 821.2 372.77 852.18 371.78 890.83C371.72 891.52 371.72 892.14 371.72 892.82C371.72 893.51 371.72 894.13 371.78 894.82C372.59 904.73 379.57 914.45 392.72 922.06C420.65 938.2 466.04 938.2 494.03 922.06C507.12 914.45 514.1 904.73 514.91 894.82C514.97 894.13 514.97 893.51 514.97 892.82C514.97 892.14 514.97 891.52 514.9 890.83Z" fill="#FFFFFF" fill-opacity="1.000000" fill-rule="nonzero"/>
	</g>
	<g opacity="0.300000">
		<path id="XMLID_5214_" d="M474.4 828.35C465 823.81 454.49 821.2 443.34 821.2C404.5 821.2 372.77 852.18 371.78 890.83C371.71 891.52 371.71 892.14 371.71 892.82C371.71 893.51 371.71 894.13 371.78 894.82C372.58 904.73 379.57 914.45 392.72 922.06C402.93 927.96 415.48 931.68 428.64 933.27C410.07 930.06 398.05 909.33 403.76 886.43C410.38 859.87 437.24 821.48 474.4 828.35Z" fill="#FFFFFF" fill-opacity="1.000000" fill-rule="nonzero"/>
	</g>
	<g opacity="0.100000">
		<path id="XMLID_5212_" d="M514.9 894.82C514.97 894.14 514.97 893.51 514.97 892.83C514.97 892.14 514.97 891.52 514.9 890.84C514.37 870.2 505.05 851.82 490.61 839.1C498.38 847.1 515.68 877.24 496.88 900.21C484.52 915.33 425.83 936.89 377.53 909.18C381.02 913.85 386.08 918.23 392.72 922.07C420.65 938.21 466.03 938.21 494.02 922.07C507.11 914.46 514.09 904.73 514.9 894.82Z" fill="#2786DE" fill-opacity="1.000000" fill-rule="nonzero"/>
	</g>
	<g opacity="0.500000">
		<path id="XMLID_5210_" d="M442.61 837.34C445.82 844.64 439.66 854.4 428.86 859.14C418.06 863.88 406.71 861.81 403.5 854.51C400.3 847.22 406.45 837.46 417.25 832.71C428.06 827.97 439.41 830.04 442.61 837.34Z" fill="#FFFFFF" fill-opacity="1.000000" fill-rule="nonzero"/>
	</g>
	<g opacity="0.500000">
		<path id="XMLID_5208_" d="M401.14 867.04C402.81 870.85 400.39 875.58 395.73 877.63C391.07 879.67 385.94 878.25 384.27 874.45C382.6 870.65 385.03 865.91 389.68 863.86C394.34 861.82 399.47 863.24 401.14 867.04Z" fill="#FFFFFF" fill-opacity="1.000000" fill-rule="nonzero"/>
	</g>
	<path id="XMLID_4069_" d="M671.19 906.71C670.73 888.73 656 874.32 637.9 874.32C619.84 874.32 605.08 888.73 604.61 906.71C604.59 907.03 604.59 907.32 604.59 907.64C604.59 907.96 604.59 908.25 604.61 908.57C604.99 913.18 608.24 917.7 614.36 921.24C627.35 928.75 648.46 928.75 661.48 921.24C667.57 917.7 670.81 913.18 671.19 908.57C671.22 908.25 671.22 907.96 671.22 907.64C671.22 907.32 671.22 907.03 671.19 906.71Z" fill="#41C6F3" fill-opacity="1.000000" fill-rule="nonzero"/>
	<g opacity="0.200000">
		<path id="XMLID_4059_" d="M671.19 906.71C670.73 888.73 656 874.32 637.9 874.32C619.84 874.32 605.08 888.73 604.61 906.71C604.59 907.03 604.59 907.32 604.59 907.64C604.59 907.96 604.59 908.25 604.61 908.57C604.99 913.18 608.24 917.7 614.36 921.24C627.35 928.75 648.46 928.75 661.48 921.24C667.57 917.7 670.81 913.18 671.19 908.57C671.22 908.25 671.22 907.96 671.22 907.64C671.22 907.32 671.22 907.03 671.19 906.71Z" fill="#FFFFFF" fill-opacity="1.000000" fill-rule="nonzero"/>
	</g>
	<g opacity="0.500000">
		<path id="XMLID_4057_" d="M652.35 877.65C647.97 875.54 643.08 874.32 637.9 874.32C619.83 874.32 605.08 888.73 604.61 906.71C604.58 907.03 604.58 907.32 604.58 907.64C604.58 907.96 604.58 908.25 604.61 908.57C604.99 913.18 608.24 917.7 614.35 921.24C619.1 923.98 624.94 925.71 631.06 926.45C622.42 924.96 616.83 915.32 619.49 904.67C622.57 892.31 635.06 874.46 652.35 877.65Z" fill="#FFFFFF" fill-opacity="1.000000" fill-rule="nonzero"/>
	</g>
	<g opacity="0.200000">
		<path id="XMLID_4053_" d="M671.19 908.57C671.22 908.25 671.22 907.96 671.22 907.64C671.22 907.32 671.22 907.03 671.19 906.71C670.94 897.12 666.61 888.56 659.89 882.64C663.51 886.36 671.55 900.38 662.81 911.07C657.05 918.1 629.76 928.13 607.29 915.24C608.92 917.41 611.27 919.45 614.36 921.23C627.35 928.74 648.46 928.74 661.48 921.23C667.57 917.7 670.81 913.18 671.19 908.57Z" fill="#2786DE" fill-opacity="1.000000" fill-rule="nonzero"/>
	</g>
	<g opacity="0.300000">
		<path id="XMLID_4051_" d="M637.56 881.83C639.05 885.22 636.19 889.76 631.16 891.97C626.14 894.18 620.86 893.21 619.37 889.82C617.88 886.42 620.75 881.89 625.77 879.68C630.79 877.47 636.07 878.43 637.56 881.83Z" fill="#FFFFFF" fill-opacity="1.000000" fill-rule="nonzero"/>
	</g>
	<g opacity="0.300000">
		<path id="XMLID_4045_" d="M618.27 895.65C619.05 897.41 617.92 899.62 615.76 900.57C613.59 901.52 611.2 900.86 610.43 899.09C609.65 897.32 610.78 895.12 612.94 894.16C615.11 893.21 617.5 893.88 618.27 895.65Z" fill="#FFFFFF" fill-opacity="1.000000" fill-rule="nonzero"/>
	</g>
	<path id="XMLID_4042_" d="M599.79 919.42C599.12 893.34 577.75 872.44 551.51 872.44C525.3 872.44 503.9 893.35 503.22 919.42C503.18 919.88 503.18 920.31 503.18 920.77C503.18 921.23 503.18 921.65 503.22 922.12C503.77 928.8 508.48 935.37 517.35 940.5C536.2 951.39 566.82 951.39 585.7 940.5C594.53 935.37 599.24 928.8 599.79 922.12C599.83 921.65 599.83 921.23 599.83 920.77C599.83 920.3 599.83 919.88 599.79 919.42Z" fill="#67D1F5" fill-opacity="1.000000" fill-rule="nonzero"/>
	<g opacity="0.600000">
		<path id="XMLID_4040_" d="M599.79 919.42C599.12 893.34 577.75 872.44 551.51 872.44C525.3 872.44 503.9 893.35 503.22 919.42C503.18 919.88 503.18 920.31 503.18 920.77C503.18 921.23 503.18 921.65 503.22 922.12C503.77 928.8 508.48 935.37 517.35 940.5C536.2 951.39 566.82 951.39 585.7 940.5C594.53 935.37 599.24 928.8 599.79 922.12C599.83 921.65 599.83 921.23 599.83 920.77C599.83 920.3 599.83 919.88 599.79 919.42Z" fill="#FFFFFF" fill-opacity="1.000000" fill-rule="nonzero"/>
	</g>
	<g opacity="0.300000">
		<path id="XMLID_4038_" d="M572.46 877.26C566.11 874.2 559.02 872.44 551.5 872.44C525.3 872.44 503.89 893.34 503.22 919.42C503.17 919.88 503.17 920.3 503.17 920.77C503.17 921.23 503.17 921.65 503.22 922.11C503.76 928.8 508.47 935.36 517.35 940.49C524.23 944.47 532.7 946.99 541.58 948.06C529.05 945.89 520.94 931.9 524.8 916.45C529.27 898.54 547.39 872.63 572.46 877.26Z" fill="#FFFFFF" fill-opacity="1.000000" fill-rule="nonzero"/>
	</g>
	<g opacity="0.100000">
		<path id="XMLID_4036_" d="M599.79 922.11C599.83 921.65 599.83 921.23 599.83 920.76C599.83 920.3 599.83 919.88 599.79 919.42C599.43 905.5 593.14 893.09 583.4 884.52C588.64 889.91 600.31 910.25 587.63 925.74C579.29 935.94 539.69 950.49 507.11 931.79C509.46 934.95 512.87 937.9 517.35 940.49C536.2 951.39 566.82 951.39 585.7 940.49C594.53 935.36 599.24 928.8 599.79 922.11Z" fill="#2786DE" fill-opacity="1.000000" fill-rule="nonzero"/>
	</g>
	<g opacity="0.500000">
		<path id="XMLID_4023_" d="M551.02 883.33C553.18 888.25 549.02 894.84 541.74 898.04C534.45 901.24 526.79 899.84 524.63 894.92C522.47 890 526.62 883.41 533.91 880.21C541.19 877.01 548.85 878.41 551.02 883.33Z" fill="#FFFFFF" fill-opacity="1.000000" fill-rule="nonzero"/>
	</g>
	<g opacity="0.500000">
		<path id="XMLID_4021_" d="M523.03 903.37C524.16 905.93 522.53 909.13 519.38 910.51C516.24 911.89 512.78 910.93 511.65 908.37C510.52 905.81 512.16 902.61 515.3 901.23C518.45 899.84 521.91 900.81 523.03 903.37Z" fill="#FFFFFF" fill-opacity="1.000000" fill-rule="nonzero"/>
	</g>
	<path id="XMLID_4017_" d="M642.31 947.77C641.67 923.02 621.39 903.17 596.47 903.17C571.6 903.17 551.28 923.01 550.64 947.77C550.6 948.21 550.6 948.61 550.6 949.05C550.6 949.49 550.6 949.89 550.64 950.33C551.16 956.68 555.63 962.9 564.05 967.78C581.94 978.12 611.01 978.12 628.94 967.78C637.32 962.9 641.79 956.68 642.31 950.33C642.35 949.89 642.35 949.49 642.35 949.05C642.35 948.61 642.35 948.21 642.31 947.77Z" fill="#42C6F3" fill-opacity="1.000000" fill-rule="nonzero"/>
	<g opacity="0.400000">
		<path id="XMLID_4015_" d="M642.31 947.77C641.67 923.02 621.39 903.17 596.47 903.17C571.6 903.17 551.28 923.01 550.64 947.77C550.6 948.21 550.6 948.61 550.6 949.05C550.6 949.49 550.6 949.89 550.64 950.33C551.16 956.68 555.63 962.9 564.05 967.78C581.94 978.12 611.01 978.12 628.94 967.78C637.32 962.9 641.79 956.68 642.31 950.33C642.35 949.89 642.35 949.49 642.35 949.05C642.35 948.61 642.35 948.21 642.31 947.77Z" fill="#FFFFFF" fill-opacity="1.000000" fill-rule="nonzero"/>
	</g>
	<g opacity="0.500000">
		<path id="XMLID_4013_" d="M616.37 907.75C610.34 904.84 603.61 903.17 596.47 903.17C571.6 903.17 551.28 923.01 550.64 947.77C550.6 948.21 550.6 948.61 550.6 949.05C550.6 949.49 550.6 949.89 550.64 950.33C551.16 956.68 555.63 962.9 564.05 967.78C570.59 971.56 578.63 973.94 587.06 974.95C575.17 972.9 567.47 959.62 571.12 944.95C575.37 927.94 592.57 903.35 616.37 907.75Z" fill="#FFFFFF" fill-opacity="1.000000" fill-rule="nonzero"/>
	</g>
	<g opacity="0.150000">
		<path id="XMLID_4011_" d="M642.31 950.33C642.35 949.89 642.35 949.49 642.35 949.05C642.35 948.61 642.35 948.21 642.31 947.77C641.97 934.56 636 922.78 626.75 914.63C631.73 919.76 642.81 939.06 630.77 953.77C622.85 963.45 585.26 977.27 554.32 959.52C556.56 962.51 559.8 965.32 564.05 967.77C581.94 978.11 611.01 978.11 628.94 967.77C637.32 962.9 641.8 956.68 642.31 950.33Z" fill="#2786DE" fill-opacity="1.000000" fill-rule="nonzero"/>
	</g>
	<g opacity="0.300000">
		<path id="XMLID_4009_" d="M596.01 913.51C598.06 918.18 594.12 924.43 587.2 927.47C580.28 930.51 573.01 929.18 570.96 924.51C568.91 919.83 572.85 913.58 579.77 910.54C586.68 907.51 593.96 908.83 596.01 913.51Z" fill="#FFFFFF" fill-opacity="1.000000" fill-rule="nonzero"/>
	</g>
	<g opacity="0.300000">
		<path id="XMLID_4007_" d="M569.45 932.53C570.52 934.97 568.96 938 565.98 939.32C563 940.63 559.71 939.72 558.64 937.28C557.57 934.84 559.12 931.81 562.11 930.5C565.09 929.19 568.38 930.1 569.45 932.53Z" fill="#FFFFFF" fill-opacity="1.000000" fill-rule="nonzero"/>
	</g>
	<path id="XMLID_4004_" d="M545.05 967.89C544.25 937.17 519.08 912.54 488.16 912.54C457.29 912.54 432.06 937.17 431.27 967.89C431.22 968.44 431.22 968.93 431.22 969.48C431.22 970.03 431.22 970.52 431.27 971.07C431.91 978.94 437.46 986.68 447.92 992.72C470.12 1005.56 506.19 1005.56 528.44 992.72C538.85 986.68 544.4 978.95 545.04 971.07C545.09 970.52 545.09 970.03 545.09 969.48C545.09 968.93 545.09 968.44 545.05 967.89Z" fill="#67D1F5" fill-opacity="1.000000" fill-rule="nonzero"/>
	<g opacity="0.600000">
		<path id="XMLID_4002_" d="M545.05 967.89C544.25 937.17 519.08 912.54 488.16 912.54C457.29 912.54 432.06 937.17 431.27 967.89C431.22 968.44 431.22 968.93 431.22 969.48C431.22 970.03 431.22 970.52 431.27 971.07C431.91 978.94 437.46 986.68 447.92 992.72C470.12 1005.56 506.19 1005.56 528.44 992.72C538.85 986.68 544.4 978.95 545.04 971.07C545.09 970.52 545.09 970.03 545.09 969.48C545.09 968.93 545.09 968.44 545.05 967.89Z" fill="#FFFFFF" fill-opacity="1.000000" fill-rule="nonzero"/>
	</g>
	<g opacity="0.300000">
		<path id="XMLID_3986_" d="M512.85 918.23C505.37 914.62 497.02 912.54 488.16 912.54C457.29 912.54 432.06 937.17 431.27 967.89C431.22 968.44 431.22 968.93 431.22 969.48C431.22 970.02 431.22 970.52 431.27 971.06C431.91 978.94 437.46 986.67 447.92 992.72C456.03 997.41 466 1000.37 476.47 1001.63C461.71 999.08 452.15 982.6 456.69 964.4C461.96 943.29 483.31 912.77 512.85 918.23Z" fill="#FFFFFF" fill-opacity="1.000000" fill-rule="nonzero"/>
	</g>
	<g opacity="0.100000">
		<path id="XMLID_3984_" d="M545.05 971.07C545.09 970.52 545.09 970.03 545.09 969.48C545.09 968.93 545.09 968.44 545.05 967.89C544.62 951.5 537.21 936.88 525.73 926.77C531.91 933.13 545.66 957.09 530.72 975.35C520.89 987.36 474.24 1004.51 435.85 982.48C438.62 986.19 442.64 989.67 447.92 992.72C470.12 1005.56 506.2 1005.56 528.45 992.72C538.85 986.67 544.4 978.94 545.05 971.07Z" fill="#2786DE" fill-opacity="1.000000" fill-rule="nonzero"/>
	</g>
	<g opacity="0.300000">
		<path id="XMLID_3980_" d="M487.58 925.37C490.13 931.17 485.23 938.93 476.65 942.7C468.06 946.47 459.04 944.83 456.49 939.03C453.95 933.23 458.84 925.47 467.42 921.7C476.01 917.93 485.03 919.57 487.58 925.37Z" fill="#FFFFFF" fill-opacity="1.000000" fill-rule="nonzero"/>
	</g>
	<g opacity="0.300000">
		<path id="XMLID_3978_" d="M454.61 948.98C455.94 952 454.01 955.77 450.31 957.4C446.61 959.03 442.53 957.9 441.2 954.88C439.88 951.85 441.8 948.09 445.51 946.46C449.21 944.83 453.29 945.96 454.61 948.98Z" fill="#FFFFFF" fill-opacity="1.000000" fill-rule="nonzero"/>
	</g>
	<path id="XMLID_3933_" d="M689.36 914.51C689.08 903.65 680.18 894.94 669.25 894.94C658.34 894.94 649.42 903.65 649.14 914.51C649.12 914.7 649.12 914.88 649.12 915.07C649.12 915.27 649.12 915.44 649.14 915.63C649.36 918.42 651.33 921.15 655.02 923.29C662.87 927.83 675.63 927.83 683.5 923.29C687.17 921.16 689.14 918.42 689.36 915.63C689.38 915.44 689.38 915.27 689.38 915.07C689.38 914.88 689.38 914.71 689.36 914.51Z" fill="#67D1F5" fill-opacity="1.000000" fill-rule="nonzero"/>
	<g opacity="0.060000">
		<path id="XMLID_3931_" d="M689.36 914.51C689.08 903.65 680.18 894.94 669.25 894.94C658.34 894.94 649.42 903.65 649.14 914.51C649.12 914.7 649.12 914.88 649.12 915.07C649.12 915.27 649.12 915.44 649.14 915.63C649.36 918.42 651.33 921.15 655.02 923.29C662.87 927.83 675.63 927.83 683.5 923.29C687.17 921.16 689.14 918.42 689.36 915.63C689.38 915.44 689.38 915.27 689.38 915.07C689.38 914.88 689.38 914.71 689.36 914.51Z" fill="#FFFFFF" fill-opacity="1.000000" fill-rule="nonzero"/>
	</g>
	<g opacity="0.500000">
		<path id="XMLID_3929_" d="M677.98 896.95C675.34 895.67 672.38 894.94 669.25 894.94C658.33 894.94 649.41 903.65 649.13 914.51C649.12 914.7 649.12 914.88 649.12 915.07C649.12 915.27 649.12 915.44 649.13 915.63C649.36 918.42 651.32 921.15 655.02 923.29C657.89 924.95 661.42 926 665.12 926.45C659.9 925.54 656.52 919.72 658.12 913.28C659.99 905.81 667.54 895.02 677.98 896.95Z" fill="#FFFFFF" fill-opacity="1.000000" fill-rule="nonzero"/>
	</g>
	<g opacity="0.050000">
		<path id="XMLID_3927_" d="M689.36 915.64C689.38 915.44 689.38 915.27 689.38 915.07C689.38 914.88 689.38 914.7 689.36 914.51C689.21 908.71 686.59 903.55 682.53 899.97C684.72 902.22 689.58 910.69 684.3 917.15C680.82 921.4 664.33 927.45 650.75 919.67C651.73 920.98 653.15 922.21 655.02 923.29C662.87 927.83 675.62 927.83 683.49 923.29C687.17 921.15 689.14 918.42 689.36 915.64Z" fill="#455A64" fill-opacity="1.000000" fill-rule="nonzero"/>
	</g>
	<g opacity="0.300000">
		<path id="XMLID_516_" d="M669.04 899.48C669.94 901.53 668.21 904.27 665.18 905.61C662.14 906.94 658.95 906.36 658.05 904.3C657.15 902.25 658.88 899.51 661.92 898.18C664.95 896.85 668.14 897.43 669.04 899.48Z" fill="#FFFFFF" fill-opacity="1.000000" fill-rule="nonzero"/>
	</g>
	<g opacity="0.300000">
		<path id="XMLID_513_" d="M657.39 907.83C657.86 908.9 657.18 910.23 655.87 910.8C654.56 911.37 653.12 910.98 652.65 909.91C652.18 908.84 652.86 907.51 654.17 906.93C655.48 906.36 656.92 906.76 657.39 907.83Z" fill="#FFFFFF" fill-opacity="1.000000" fill-rule="nonzero"/>
	</g>
	<path id="XMLID_5164_" d="M413.95 795.56C413.95 815.51 405.02 833.31 390.92 845.31C381.32 853.42 375.44 865.08 375.44 877.67L375.44 1010.45C375.44 1014.42 372.85 1018.4 367.59 1021.42C364.7 1023.09 361.32 1024.28 357.74 1025.03C351.86 1026.25 345.35 1026.25 339.47 1025.03C335.88 1024.28 332.5 1023.06 329.64 1021.42C324.42 1018.4 321.79 1014.42 321.79 1010.45L321.79 877.37C321.79 864.92 315.91 853.42 306.42 845.37C292.12 833.31 283.12 815.24 283.29 795.04C283.55 760.9 310.92 732.15 344.99 730.31C382.71 728.27 413.95 758.27 413.95 795.56Z" fill="#2786DE" fill-opacity="1.000000" fill-rule="nonzero"/>
	<g opacity="0.500000">
		<path id="XMLID_5161_" d="M413.95 795.56C413.95 815.51 405.02 833.31 390.92 845.31C381.32 853.42 375.44 865.08 375.44 877.67L375.44 1010.45C375.44 1014.42 372.85 1018.4 367.59 1021.42C364.7 1023.09 361.32 1024.28 357.74 1025.03C351.86 1026.25 345.35 1026.25 339.47 1025.03C335.88 1024.28 332.5 1023.06 329.64 1021.42C324.42 1018.4 321.79 1014.42 321.79 1010.45L321.79 877.37C321.79 864.92 315.91 853.42 306.42 845.37C292.12 833.31 283.12 815.24 283.29 795.04C283.55 760.9 310.92 732.15 344.99 730.31C382.71 728.27 413.95 758.27 413.95 795.56Z" fill="#FFFFFF" fill-opacity="1.000000" fill-rule="nonzero"/>
	</g>
	<path id="XMLID_4458_" d="M413.95 795.56C413.95 815.51 405.02 833.31 390.92 845.31C381.32 853.42 375.44 865.08 375.44 877.67L375.44 1010.45C375.44 1014.42 372.85 1018.4 367.59 1021.42C364.7 1023.09 361.32 1024.28 357.74 1025.03C351.86 1026.25 345.35 1026.25 339.47 1025.03C335.88 1024.28 332.5 1023.06 329.64 1021.42C324.42 1018.4 321.79 1014.42 321.79 1010.45L321.79 877.37C321.79 864.92 315.91 853.42 306.42 845.37C292.12 833.31 283.12 815.24 283.29 795.04C283.55 760.9 310.92 732.15 344.99 730.31C382.71 728.27 413.95 758.27 413.95 795.56Z" fill="#33AAD2" fill-opacity="1.000000" fill-rule="nonzero"/>
	<path id="XMLID_5158_" d="M385.07 795.56C385.07 807.83 378.98 818.65 369.7 825.25C361.96 830.76 357.74 839.99 357.74 849.49L357.74 1014.33C357.74 1019.38 353.74 1023.67 348.7 1023.68C348.63 1023.68 348.57 1023.68 348.51 1023.68C343.47 1023.66 339.47 1019.37 339.47 1014.33L339.47 849.02C339.47 839.65 335.17 830.68 327.51 825.23C317.98 818.46 311.84 807.22 312.16 794.54C312.69 775.65 328.26 759.87 347.16 759.12C367.95 758.34 385.07 774.96 385.07 795.56Z" fill="#2786DE" fill-opacity="1.000000" fill-rule="nonzero"/>
	<g opacity="0.250000">
		<path id="XMLID_5156_" d="M385.07 795.56C385.07 807.83 378.98 818.65 369.7 825.25C361.96 830.76 357.74 839.99 357.74 849.49L357.74 1014.33C357.74 1019.38 353.74 1023.67 348.7 1023.68C348.63 1023.68 348.57 1023.68 348.51 1023.68C343.47 1023.66 339.47 1019.37 339.47 1014.33L339.47 849.02C339.47 839.65 335.17 830.68 327.51 825.23C317.98 818.46 311.84 807.22 312.16 794.54C312.69 775.65 328.26 759.87 347.16 759.12C367.95 758.34 385.07 774.96 385.07 795.56Z" fill="#FFFFFF" fill-opacity="1.000000" fill-rule="nonzero"/>
	</g>
	<g opacity="0.700000">
		<path id="XMLID_5153_" d="M395.53 826.8C395.53 834.43 389.34 840.61 381.72 840.61C374.09 840.61 367.91 834.43 367.91 826.8C367.91 819.18 374.09 812.99 381.72 812.99C389.34 812.99 395.53 819.18 395.53 826.8Z" fill="#FFFFFF" fill-opacity="1.000000" fill-rule="evenodd"/>
	</g>
	<g opacity="0.700000">
		<path id="XMLID_5149_" d="M386.28 785.8C386.28 791.55 381.62 796.21 375.87 796.21C370.13 796.21 365.47 791.55 365.47 785.8C365.47 780.05 370.13 775.39 375.87 775.39C381.62 775.39 386.28 780.05 386.28 785.8Z" fill="#FFFFFF" fill-opacity="1.000000" fill-rule="evenodd"/>
	</g>
	<g opacity="0.700000">
		<path id="XMLID_5145_" d="M345.58 769.2C345.58 766.35 347.89 764.04 350.74 764.04C353.59 764.04 355.9 766.35 355.9 769.2C355.9 772.04 353.59 774.35 350.74 774.35C347.89 774.35 345.58 772.04 345.58 769.2Z" fill="#FFFFFF" fill-opacity="1.000000" fill-rule="nonzero"/>
	</g>
	<g opacity="0.700000">
		<path id="XMLID_5141_" d="M304.39 775.39C304.39 767.66 310.66 761.4 318.38 761.4C326.1 761.4 332.37 767.67 332.37 775.39C332.37 783.12 326.1 789.38 318.38 789.38C310.66 789.38 304.39 783.12 304.39 775.39Z" fill="#FFFFFF" fill-opacity="1.000000" fill-rule="nonzero"/>
	</g>
	<g opacity="0.700000">
		<path id="XMLID_5138_" d="M302.06 800.68C302.06 804.3 305 807.24 308.62 807.24C312.24 807.24 315.18 804.31 315.18 800.68C315.18 797.06 312.25 794.12 308.62 794.12C305 794.12 302.06 797.06 302.06 800.68Z" fill="#FFFFFF" fill-opacity="1.000000" fill-rule="nonzero"/>
	</g>
	<g opacity="0.700000">
		<path id="XMLID_5136_" d="M302.76 825.75C302.76 818.7 308.47 812.99 315.51 812.99C322.55 812.99 328.26 818.7 328.26 825.75C328.26 832.79 322.55 838.5 315.51 838.5C308.47 838.5 302.76 832.79 302.76 825.75Z" fill="#FFFFFF" fill-opacity="1.000000" fill-rule="nonzero"/>
	</g>
	<g opacity="0.700000">
		<path id="XMLID_5134_" d="M331.03 844.36C331.03 839.52 334.96 835.59 339.81 835.59C344.65 835.59 348.58 839.52 348.58 844.36C348.58 849.21 344.65 853.14 339.81 853.14C334.96 853.13 331.03 849.21 331.03 844.36Z" fill="#FFFFFF" fill-opacity="1.000000" fill-rule="nonzero"/>
	</g>
	<g opacity="0.700000">
		<path id="XMLID_5132_" d="M298.55 785.8C298.55 788.27 296.54 790.27 294.07 790.27C291.6 790.27 289.6 788.27 289.6 785.8C289.6 783.33 291.6 781.32 294.07 781.32C296.54 781.32 298.55 783.33 298.55 785.8Z" fill="#FFFFFF" fill-opacity="1.000000" fill-rule="evenodd"/>
	</g>
	<g opacity="0.700000">
		<path id="XMLID_5130_" d="M398.73 767.3C398.73 770.55 396.09 773.19 392.84 773.19C389.58 773.19 386.94 770.55 386.94 767.3C386.94 764.04 389.58 761.41 392.84 761.41C396.09 761.41 398.73 764.04 398.73 767.3Z" fill="#FFFFFF" fill-opacity="1.000000" fill-rule="evenodd"/>
	</g>
	<g opacity="0.700000">
		<path id="XMLID_5128_" d="M392.8 796.21C392.8 792.93 395.45 790.28 398.73 790.28C402 790.28 404.66 792.93 404.66 796.21C404.66 799.48 402 802.14 398.73 802.14C395.45 802.14 392.8 799.48 392.8 796.21Z" fill="#FFFFFF" fill-opacity="1.000000" fill-rule="nonzero"/>
	</g>
	<g opacity="0.700000">
		<path id="XMLID_5126_" d="M331.35 801.01C331.35 797.73 334 795.08 337.28 795.08C340.55 795.08 343.21 797.73 343.21 801.01C343.21 804.28 340.55 806.94 337.28 806.94C334 806.94 331.35 804.28 331.35 801.01Z" fill="#FFFFFF" fill-opacity="1.000000" fill-rule="nonzero"/>
	</g>
	<path id="XMLID_5403_" d="M428.89 706.97L411.39 706.97L393.9 706.97C388.9 737.19 404.95 760.37 411.39 760.37C417.84 760.37 433.89 737.19 428.89 706.97Z" fill="#2786DE" fill-opacity="1.000000" fill-rule="nonzero"/>
	<g opacity="0.700000">
		<path id="XMLID_5398_" d="M428.89 706.97L411.39 706.97L393.9 706.97C388.9 737.19 404.95 760.37 411.39 760.37C417.84 760.37 433.89 737.19 428.89 706.97Z" fill="#FFFFFF" fill-opacity="1.000000" fill-rule="nonzero"/>
	</g>
	<path id="XMLID_5396_" d="M411.4 706.97L417.39 706.97C417.39 706.97 421.53 713.13 420.64 723.11C419.92 731.27 415 741.86 411.4 741.86C407.79 741.86 402.88 731.27 402.15 723.11C401.27 713.13 405.4 706.97 405.4 706.97L411.4 706.97Z" fill="#FFFFFF" fill-opacity="1.000000" fill-rule="nonzero"/>
	<path id="XMLID_5389_" d="M428.77 652.59L392.55 665.38L389.73 677.43C389.36 682.03 391.54 686.72 396.27 690.23C397.93 691.46 399.79 692.46 401.76 693.23C408.3 695.76 416.15 695.74 422.67 693.18C424.61 692.42 426.42 691.44 428.05 690.23C432.78 686.71 434.95 682.02 434.59 677.42L428.77 652.59Z" fill="#2786DE" fill-opacity="1.000000" fill-rule="nonzero"/>
	<g opacity="0.200000">
		<path id="XMLID_5387_" d="M428.77 652.59L392.55 665.38L389.73 677.43C389.36 682.03 391.54 686.72 396.27 690.23C397.93 691.46 399.79 692.46 401.76 693.23C408.3 695.76 416.15 695.74 422.67 693.18C424.61 692.42 426.42 691.44 428.05 690.23C432.78 686.71 434.95 682.02 434.59 677.42L428.77 652.59Z" fill="#FFFFFF" fill-opacity="1.000000" fill-rule="nonzero"/>
	</g>
	<path id="XMLID_5383_" d="M435.44 681.09L436.62 686.17C436.79 690.99 434.41 695.84 429.47 699.51C427.68 700.84 425.68 701.92 423.56 702.75C416.49 705.52 407.98 705.53 400.89 702.79C398.72 701.95 396.68 700.86 394.86 699.51C389.9 695.82 387.51 690.95 387.7 686.12L384.4 700.24C384.4 705 387.11 709.75 392.53 713.38C394.66 714.81 397.06 715.94 399.6 716.81C407.51 719.5 416.95 719.49 424.84 716.77C427.35 715.91 429.7 714.79 431.79 713.38C437.22 709.75 439.93 704.99 439.93 700.24L435.44 681.09Z" fill="#2786DE" fill-opacity="1.000000" fill-rule="nonzero"/>
	<g opacity="0.200000">
		<path id="XMLID_5381_" d="M435.44 681.09L436.62 686.17C436.79 690.99 434.41 695.84 429.47 699.51C427.68 700.84 425.68 701.92 423.56 702.75C416.49 705.52 407.98 705.53 400.89 702.79C398.72 701.95 396.68 700.86 394.86 699.51C389.9 695.82 387.51 690.95 387.7 686.12L384.4 700.24C384.4 705 387.11 709.75 392.53 713.38C394.66 714.81 397.06 715.94 399.6 716.81C407.51 719.5 416.95 719.49 424.84 716.77C427.35 715.91 429.7 714.79 431.79 713.38C437.22 709.75 439.93 704.99 439.93 700.24L435.44 681.09Z" fill="#FFFFFF" fill-opacity="1.000000" fill-rule="nonzero"/>
	</g>
	<path id="XMLID_5378_" d="M435.42 680.99L435.14 679.8L434.59 677.43C434.96 682.03 432.78 686.72 428.05 690.23C426.42 691.44 424.61 692.43 422.67 693.18C416.16 695.75 408.3 695.77 401.77 693.23C399.79 692.46 397.93 691.46 396.27 690.23C391.54 686.72 389.36 682.03 389.73 677.43L387.7 686.13C387.51 690.95 389.9 695.83 394.86 699.51C396.68 700.87 398.72 701.96 400.89 702.8C407.98 705.53 416.48 705.52 423.56 702.75C425.68 701.92 427.68 700.84 429.47 699.51C434.41 695.84 436.79 690.99 436.63 686.17L435.42 680.99Z" fill="#455A64" fill-opacity="1.000000" fill-rule="nonzero"/>
	<g opacity="0.150000">
		<path id="XMLID_5372_" d="M431.81 665.59L428.77 652.59L392.55 665.38L389.73 677.43L388.9 680.99L387.7 686.12L385.4 695.96C406 690.1 422.6 679.2 431.81 665.59Z" fill="#000000" fill-opacity="1.000000" fill-rule="nonzero"/>
	</g>
	<path id="XMLID_5369_" d="M305.22 706.97L287.72 706.97L270.23 706.97C265.23 737.19 281.28 760.37 287.72 760.37C294.17 760.37 310.22 737.19 305.22 706.97Z" fill="#2786DE" fill-opacity="1.000000" fill-rule="nonzero"/>
	<g opacity="0.700000">
		<path id="XMLID_5367_" d="M305.22 706.97L287.72 706.97L270.23 706.97C265.23 737.19 281.28 760.37 287.72 760.37C294.17 760.37 310.22 737.19 305.22 706.97Z" fill="#FFFFFF" fill-opacity="1.000000" fill-rule="nonzero"/>
	</g>
	<path id="XMLID_5365_" d="M287.72 706.97L293.72 706.97C293.72 706.97 297.85 713.13 296.96 723.11C296.24 731.27 291.32 741.86 287.72 741.86C284.12 741.86 279.2 731.27 278.48 723.11C277.59 713.13 281.73 706.97 281.73 706.97L287.72 706.97Z" fill="#FFFFFF" fill-opacity="1.000000" fill-rule="nonzero"/>
	<path id="XMLID_5358_" d="M305.1 652.59L271.99 652.59L266.06 677.43C265.69 682.03 267.87 686.72 272.6 690.23C274.26 691.47 276.12 692.46 278.1 693.23C284.63 695.77 292.49 695.75 299 693.18C300.94 692.42 302.75 691.44 304.38 690.23C309.11 686.72 311.29 682.03 310.92 677.43L305.1 652.59Z" fill="#2786DE" fill-opacity="1.000000" fill-rule="nonzero"/>
	<g opacity="0.200000">
		<path id="XMLID_5356_" d="M305.1 652.59L271.99 652.59L266.06 677.43C265.69 682.03 267.87 686.72 272.6 690.23C274.26 691.47 276.12 692.46 278.1 693.23C284.63 695.77 292.49 695.75 299 693.18C300.94 692.42 302.75 691.44 304.38 690.23C309.11 686.72 311.29 682.03 310.92 677.43L305.1 652.59Z" fill="#FFFFFF" fill-opacity="1.000000" fill-rule="nonzero"/>
	</g>
	<path id="XMLID_5354_" d="M311.47 679.8L311.75 680.99L312.95 686.17C313.12 690.99 310.73 695.84 305.79 699.51C304 700.84 302.01 701.92 299.88 702.75C292.81 705.52 284.3 705.53 277.22 702.79C275.05 701.95 273.01 700.86 271.18 699.51C266.23 695.82 263.84 690.95 264.02 686.12L260.72 700.24C260.72 705 263.44 709.76 268.85 713.38C270.98 714.81 273.38 715.94 275.92 716.81C283.84 719.5 293.26 719.49 301.17 716.77C303.67 715.91 306.02 714.79 308.12 713.38C313.54 709.76 316.25 704.99 316.25 700.24L311.47 679.8Z" fill="#2786DE" fill-opacity="1.000000" fill-rule="nonzero"/>
	<g opacity="0.200000">
		<path id="XMLID_5352_" d="M311.47 679.8L311.75 680.99L312.95 686.17C313.12 690.99 310.73 695.84 305.79 699.51C304 700.84 302.01 701.92 299.88 702.75C292.81 705.52 284.3 705.53 277.22 702.79C275.05 701.95 273.01 700.86 271.18 699.51C266.23 695.82 263.84 690.95 264.02 686.12L260.72 700.24C260.72 705 263.44 709.76 268.85 713.38C270.98 714.81 273.38 715.94 275.92 716.81C283.84 719.5 293.26 719.49 301.17 716.77C303.67 715.91 306.02 714.79 308.12 713.38C313.54 709.76 316.25 704.99 316.25 700.24L311.47 679.8Z" fill="#FFFFFF" fill-opacity="1.000000" fill-rule="nonzero"/>
	</g>
	<path id="XMLID_5350_" d="M311.75 680.99L311.47 679.8L310.92 677.43C311.28 682.03 309.1 686.72 304.37 690.23C302.75 691.44 300.93 692.43 299 693.18C292.48 695.75 284.62 695.77 278.09 693.23C276.11 692.46 274.26 691.46 272.6 690.23C267.87 686.72 265.69 682.03 266.05 677.43L264.02 686.13C263.83 690.95 266.22 695.83 271.18 699.51C273 700.87 275.04 701.96 277.21 702.8C284.3 705.53 292.81 705.52 299.88 702.75C302 701.92 304 700.84 305.79 699.51C310.73 695.84 313.12 690.99 312.95 686.17L311.75 680.99Z" fill="#455A64" fill-opacity="1.000000" fill-rule="nonzero"/>
	<g opacity="0.150000">
		<path id="XMLID_5344_" d="M271.99 652.59L268.92 665.47C278.08 679.1 294.66 690.02 315.24 695.91L311.47 679.8L310.92 677.43L305.1 652.59L271.99 652.59Z" fill="#000000" fill-opacity="1.000000" fill-rule="nonzero"/>
	</g>
	<path id="XMLID_5341_" d="M384.4 728.99L350.32 720.15L316.24 728.99C316.24 728.99 312.15 747.26 316.62 775.85C321.08 804.45 341 833.06 350.32 833.06C359.64 833.06 379.56 804.45 384.02 775.85C388.49 747.26 384.4 728.99 384.4 728.99Z" fill="#2786DE" fill-opacity="1.000000" fill-rule="nonzero"/>
	<g opacity="0.850000">
		<path id="XMLID_5339_" d="M384.4 728.99L350.32 720.15L316.24 728.99C316.24 728.99 312.15 747.26 316.62 775.85C321.08 804.45 341 833.06 350.32 833.06C359.64 833.06 379.56 804.45 384.02 775.85C388.49 747.26 384.4 728.99 384.4 728.99Z" fill="#FFFFFF" fill-opacity="1.000000" fill-rule="nonzero"/>
	</g>
	<path id="XMLID_5337_" d="M372.63 733.11L349.3 733.11L325.98 733.11C319.32 773.41 340.72 804.32 349.3 804.32C357.89 804.32 379.29 773.41 372.63 733.11Z" fill="#2786DE" fill-opacity="1.000000" fill-rule="nonzero"/>
	<path id="XMLID_5335_" d="M349.3 733.11L357.29 733.11C357.29 733.11 362.81 741.33 361.63 754.64C360.66 765.51 354.1 779.63 349.3 779.63C344.5 779.63 337.94 765.51 336.98 754.64C335.8 741.33 341.31 733.11 341.31 733.11L349.3 733.11Z" fill="#FFFFFF" fill-opacity="1.000000" fill-rule="nonzero"/>
	<path id="XMLID_5328_" d="M380.23 690.87L376.48 674.81L360.93 674.81L339.88 674.81L324.17 674.81L320.42 690.87C319.93 697 322.84 703.25 329.14 707.93C331.35 709.58 333.83 710.91 336.47 711.93C345.18 715.31 355.65 715.29 364.34 711.87C366.92 710.85 369.34 709.54 371.51 707.93C377.81 703.25 380.72 697 380.23 690.87Z" fill="#2786DE" fill-opacity="1.000000" fill-rule="nonzero"/>
	<g opacity="0.500000">
		<path id="XMLID_5326_" d="M380.23 690.87L376.48 674.81L360.93 674.81L339.88 674.81L324.17 674.81L320.42 690.87C319.93 697 322.84 703.25 329.14 707.93C331.35 709.58 333.83 710.91 336.47 711.93C345.18 715.31 355.65 715.29 364.34 711.87C366.92 710.85 369.34 709.54 371.51 707.93C377.81 703.25 380.72 697 380.23 690.87Z" fill="#FFFFFF" fill-opacity="1.000000" fill-rule="nonzero"/>
	</g>
	<path id="XMLID_5324_" d="M380.97 694.03L381.34 695.61L382.94 702.52C383.17 708.94 379.98 715.41 373.4 720.31C371.01 722.09 368.35 723.53 365.51 724.63C356.08 728.32 344.74 728.34 335.29 724.69C332.4 723.58 329.68 722.12 327.25 720.31C320.64 715.4 317.45 708.9 317.7 702.46L313.3 721.28L313.3 721.29C313.3 727.63 316.92 733.97 324.15 738.81C326.98 740.71 330.18 742.23 333.57 743.38C344.12 746.97 356.7 746.96 367.23 743.33C370.56 742.18 373.7 740.68 376.49 738.81C383.72 733.97 387.34 727.63 387.34 721.29L380.97 694.03Z" fill="#2786DE" fill-opacity="1.000000" fill-rule="nonzero"/>
	<g opacity="0.500000">
		<path id="XMLID_5322_" d="M380.97 694.03L381.34 695.61L382.94 702.52C383.17 708.94 379.98 715.41 373.4 720.31C371.01 722.09 368.35 723.53 365.51 724.63C356.08 728.32 344.74 728.34 335.29 724.69C332.4 723.58 329.68 722.12 327.25 720.31C320.64 715.4 317.45 708.9 317.7 702.46L313.3 721.28L313.3 721.29C313.3 727.63 316.92 733.97 324.15 738.81C326.98 740.71 330.18 742.23 333.57 743.38C344.12 746.97 356.7 746.96 367.23 743.33C370.56 742.18 373.7 740.68 376.49 738.81C383.72 733.97 387.34 727.63 387.34 721.29L380.97 694.03Z" fill="#FFFFFF" fill-opacity="1.000000" fill-rule="nonzero"/>
	</g>
	<path id="XMLID_5320_" d="M381.34 695.61L380.97 694.03L380.23 690.86C380.72 696.99 377.81 703.25 371.51 707.93C369.34 709.55 366.92 710.86 364.34 711.87C355.65 715.29 345.18 715.32 336.47 711.94C333.83 710.91 331.36 709.58 329.14 707.94C322.84 703.25 319.93 697 320.42 690.87L317.71 702.47C317.46 708.9 320.64 715.4 327.25 720.32C329.68 722.12 332.4 723.58 335.3 724.7C344.75 728.34 356.09 728.32 365.52 724.64C368.36 723.53 371.02 722.09 373.4 720.32C380 715.42 383.18 708.95 382.95 702.53L381.34 695.61Z" fill="#455A64" fill-opacity="1.000000" fill-rule="nonzero"/>
	<g opacity="0.150000">
		<path id="XMLID_5316_" d="M350.26 700.72C361.32 700.72 371.9 699.4 381.66 697.01L381.34 695.62L380.97 694.03L380.23 690.87L376.48 674.81L360.94 674.81L339.88 674.81L324.17 674.81L320.42 690.87L318.98 697.04C328.71 699.41 339.25 700.72 350.26 700.72Z" fill="#000000" fill-opacity="1.000000" fill-rule="nonzero"/>
	</g>
	<path id="XMLID_4715_" d="M318.06 546.01L216.48 508.61C216.37 503.89 216.48 499.56 216.91 495.58C217.01 494.23 217.19 492.95 217.37 491.67C217.54 490.43 217.76 489.18 218.01 488.01C218.27 486.77 218.57 485.58 218.9 484.43C219.06 483.83 219.26 483.26 219.45 482.68C219.58 482.24 219.71 481.79 219.85 481.37L219.88 481.38C222.62 473.7 227.02 468.18 233.21 464.68L246.24 457.18L247.63 456.37C251.39 454.24 255.83 452.85 260.95 452.14C271.99 450.65 281.76 448.52 289.97 445.18C292.84 442.8 295.29 440.07 297.32 436.98C307.23 421.85 309.71 389.31 309.07 373.15L323.53 364.8L332.48 537.7L317.35 532.12L317.35 532.59L318.06 546.01Z" fill="#37474F" fill-opacity="1.000000" fill-rule="nonzero"/>
	<path id="XMLID_4706_" d="M216.48 508.61L318.06 546.01L317.35 532.59L317.35 532.13L311.95 428.31L309.07 373.15C309.71 389.31 307.23 421.85 297.32 436.98C295.29 440.07 292.84 442.81 289.97 445.18C279.95 453.57 265.03 457.97 246.53 460.49C244.57 460.74 242.73 461.1 240.99 461.56C238.15 462.34 235.56 463.37 233.21 464.69C227.02 468.18 222.63 473.71 219.88 481.39L219.86 481.38C219.71 481.8 219.59 482.25 219.45 482.68C219.26 483.27 219.07 483.84 218.9 484.44C218.57 485.59 218.27 486.78 218.01 488.02C217.76 489.19 217.55 490.44 217.37 491.68C217.19 492.96 217.02 494.23 216.91 495.59C216.48 499.56 216.37 503.89 216.48 508.61Z" fill="#263238" fill-opacity="1.000000" fill-rule="nonzero"/>
	<path id="XMLID_4697_" d="M316.54 516.99L219.84 481.39C218.38 485.48 217.41 490.22 216.9 495.59L317.36 532.57L316.54 516.99Z" fill="#2786DE" fill-opacity="1.000000" fill-rule="nonzero"/>
	<g opacity="0.300000">
		<path id="XMLID_4690_" d="M316.54 516.99L219.84 481.39C218.38 485.48 217.41 490.22 216.9 495.59L317.36 532.57L316.54 516.99Z" fill="#000000" fill-opacity="1.000000" fill-rule="nonzero"/>
	</g>
	<path id="XMLID_5430_" d="M397.13 512.7C409.87 553.99 422.84 595.19 436.66 636.14C439.08 643.29 435.97 652.51 429.16 658.4C407.53 677.1 378.96 686.74 350.32 686.37C321.58 686.17 293.15 676.06 271.49 657.26C264.68 651.35 261.57 642.27 263.99 635.29C278.03 595.01 290.96 554.34 303.51 513.57C334.72 513.29 365.93 512.99 397.13 512.7Z" fill="#455A64" fill-opacity="1.000000" fill-rule="nonzero"/>
	<path id="XMLID_5429_" d="M350.32 654.14C379 655.09 411.33 644.21 432.83 624.79C434.37 629.37 435.13 631.64 436.65 636.14C439.08 643.29 435.97 652.51 429.16 658.4C407.53 677.1 378.87 686.66 350.32 686.37C321.66 686.09 293.14 676.06 271.48 657.26C264.67 651.35 261.56 642.27 263.99 635.29C265.51 630.9 266.27 628.69 267.81 624.21C290.45 644.25 320.61 653.17 350.32 654.14Z" fill="#263238" fill-opacity="1.000000" fill-rule="nonzero"/>
	<path id="XMLID_5428_" d="M350.32 559.17C324.95 559.28 306.06 554.7 292.31 549.53C296.79 535.37 299.03 528.16 303.51 513.58C320.36 513.42 328.79 513.34 345.65 513.18C347.2 513.2 348.72 513.23 350.32 513.22C351.92 513.21 353.44 513.14 355 513.1C371.85 512.94 380.28 512.86 397.14 512.7C401.62 527.36 403.86 534.62 408.34 548.92C394.59 554.28 375.69 559.06 350.32 559.17Z" fill="#263238" fill-opacity="1.000000" fill-rule="nonzero"/>
	<g opacity="0.500000">
		<path id="XMLID_5427_" d="M380.2 512.85C381.65 524.49 383.53 539.64 385.52 555.63C391.25 554.46 396.47 553.01 401.15 551.47C398.43 536.07 397.06 528.31 394.34 512.71C388.69 512.77 385.86 512.79 380.2 512.85Z" fill="#455A64" fill-opacity="1.000000" fill-rule="nonzero"/>
	</g>
	<g opacity="0.500000">
		<path id="XMLID_5424_" d="M271.47 657.26C293.22 676.06 321.62 686.13 350.34 686.36C352.31 686.38 354.26 686.34 356.16 686.28C358.07 686.22 359.94 686.1 361.77 685.97C362.74 685.9 363.69 685.81 364.61 685.71C366.02 685.55 367.5 685.4 368.88 685.23C369.81 685.12 370.72 684.97 371.61 684.79C372.54 684.65 373.42 684.5 374.3 684.33C375.82 684.04 377.31 683.78 378.78 683.46C379.07 683.39 379.32 683.33 379.61 683.26C381.32 682.87 383.01 682.43 384.65 681.98C386.68 681.41 388.69 680.82 390.61 680.18C391.75 679.8 392.86 679.38 393.96 679C395.42 678.48 396.86 677.9 398.23 677.33C400.93 676.2 403.57 675.01 406 673.81C406.62 673.5 407.24 673.16 407.84 672.86C408.57 672.49 409.3 672.1 409.96 671.73C410.98 671.18 411.97 670.58 412.92 670.01C414 669.38 415.04 668.74 416.02 668.13C417.03 667.5 418 666.85 418.94 666.23C419.86 665.63 420.73 664.98 421.61 664.36C419.58 653.44 418.57 647.92 416.52 636.8C411.16 640.01 404.8 643.22 397.19 646.08C397.92 651.45 398.85 655.69 398.65 656.46C391.08 684.33 324.79 689.27 271.47 657.26Z" fill="#455A64" fill-opacity="1.000000" fill-rule="nonzero"/>
	</g>
	<g opacity="0.100000">
		<path id="XMLID_5422_" d="M385.52 555.62C389.34 585.79 393.16 615.95 397.19 646.09C404.8 643.22 411.16 640.01 416.52 636.81C411.34 608.37 406.22 579.92 401.15 551.47C396.47 553.01 391.25 554.46 385.52 555.62Z" fill="#FFFFFF" fill-opacity="1.000000" fill-rule="nonzero"/>
	</g>
	<path id="XMLID_5312_" d="M379.18 546.01L480.76 508.61C480.87 503.89 480.76 499.56 480.33 495.58C480.22 494.23 480.05 492.95 479.87 491.67C479.69 490.43 479.48 489.18 479.23 488.01C478.97 486.77 478.67 485.58 478.34 484.43C478.18 483.83 477.98 483.26 477.79 482.68C477.66 482.24 477.53 481.79 477.39 481.37L477.36 481.38C474.62 473.7 470.22 468.18 464.03 464.68L451 457.18L449.61 456.37C445.85 454.24 441.41 452.85 436.29 452.14C425.25 450.65 415.48 448.52 407.27 445.18C404.39 442.8 401.95 440.07 399.92 436.97C390.01 421.85 387.53 389.31 388.16 373.15L373.71 364.8L364.76 537.7L379.89 532.12L379.89 532.59L379.18 546.01Z" fill="#37474F" fill-opacity="1.000000" fill-rule="nonzero"/>
	<path id="XMLID_5310_" d="M480.76 508.61L379.18 546.01L379.89 532.59L379.89 532.13L385.29 428.31L388.17 373.15C387.53 389.31 390.01 421.85 399.92 436.98C401.95 440.07 404.4 442.81 407.27 445.18C417.29 453.57 432.21 457.97 450.71 460.49C452.67 460.74 454.52 461.1 456.25 461.56C459.09 462.34 461.69 463.37 464.03 464.69C470.22 468.18 474.61 473.71 477.36 481.39L477.38 481.38C477.53 481.8 477.65 482.25 477.79 482.68C477.98 483.27 478.17 483.84 478.34 484.44C478.67 485.59 478.97 486.78 479.23 488.02C479.47 489.19 479.69 490.44 479.87 491.68C480.04 492.96 480.22 494.23 480.33 495.59C480.76 499.56 480.87 503.89 480.76 508.61Z" fill="#263238" fill-opacity="1.000000" fill-rule="nonzero"/>
	<path id="XMLID_5307_" d="M380.69 516.99L477.4 481.39C478.86 485.48 479.82 490.22 480.34 495.59L379.88 532.57L380.69 516.99Z" fill="#2786DE" fill-opacity="1.000000" fill-rule="nonzero"/>
	<g opacity="0.300000">
		<path id="XMLID_4557_" d="M380.69 516.99L477.4 481.39C478.86 485.48 479.82 490.22 480.34 495.59L379.88 532.57L380.69 516.99Z" fill="#000000" fill-opacity="1.000000" fill-rule="nonzero"/>
	</g>
	<path id="XMLID_5304_" d="M451.21 200.34C451.47 192.93 450.95 185.51 449.4 178.27C435.55 113.33 396.74 60.03 374.37 25.47C370.3 19.18 361.47 4.85 357.84 2.33C355.71 0.86 353.12 0 350.33 0C347.53 0 344.95 0.86 342.81 2.33C339.18 4.85 330.48 19.27 326.28 25.47C305.65 55.86 265.1 113.33 251.25 178.27C249.7 185.52 249.18 192.93 249.44 200.34L262.04 563.78C262.04 581.86 278.6 599.94 311.7 609.78C336.83 617.26 363.81 617.26 388.95 609.78C422.06 599.94 438.61 581.86 438.61 563.78L451.21 200.34Z" fill="#41C6F3" fill-opacity="1.000000" fill-rule="nonzero"/>
	<g opacity="0.300000">
		<path id="XMLID_4477_" d="M451.21 200.34C451.47 192.93 450.95 185.51 449.4 178.27C435.55 113.33 396.74 60.03 374.37 25.47C370.3 19.18 361.47 4.85 357.84 2.33C355.71 0.86 353.12 0 350.33 0C347.53 0 344.95 0.86 342.81 2.33C339.18 4.85 330.48 19.27 326.28 25.47C305.65 55.86 265.1 113.33 251.25 178.27C249.7 185.52 249.18 192.93 249.44 200.34L262.04 563.78C262.04 581.86 278.6 599.94 311.7 609.78C336.83 617.26 363.81 617.26 388.95 609.78C422.06 599.94 438.61 581.86 438.61 563.78L451.21 200.34Z" fill="#FFFFFF" fill-opacity="1.000000" fill-rule="nonzero"/>
	</g>
	<g opacity="0.350000">
		<path id="Vector" d="M449.4 178.27C435.55 113.33 396.74 60.03 374.37 25.47C373.47 24.08 372.31 22.25 371.05 20.28C371.03 20.25 371.01 20.22 370.99 20.18C389.34 66.85 418.38 141.7 420.26 246.44C421.38 308.24 416.96 474 413.16 599.54L413.17 599.53C417.37 597.07 421.04 594.43 424.2 591.65C424.27 591.59 424.34 591.53 424.41 591.46C426.59 589.53 428.51 587.53 430.18 585.48C430.39 585.22 430.6 584.96 430.8 584.71C431.25 584.13 431.69 583.54 432.11 582.96C432.36 582.6 432.59 582.24 432.82 581.88C433.38 581.04 433.89 580.2 434.36 579.34C434.65 578.83 434.94 578.31 435.2 577.79C435.41 577.35 435.62 576.91 435.81 576.47C436.08 575.87 436.32 575.27 436.55 574.66C436.68 574.31 436.83 573.95 436.95 573.6C437.27 572.66 437.54 571.73 437.77 570.79C437.84 570.51 437.88 570.22 437.94 569.94C438.1 569.19 438.23 568.43 438.33 567.68C438.37 567.38 438.41 567.08 438.44 566.78C438.55 565.78 438.62 564.78 438.62 563.77L438.62 563.77L451.22 200.33C451.47 192.93 450.95 185.51 449.4 178.27Z" fill="#FFFFFF" fill-opacity="1.000000" fill-rule="nonzero"/>
	</g>
	<g opacity="0.100000">
		<path id="Vector" d="M451.19 193.56C451.02 188.42 450.47 183.3 449.4 178.27C448.73 175.17 447.97 172.12 447.2 169.08C442.08 175 435.24 180.56 426.71 185.5C423.49 187.36 420.08 189.03 416.58 190.61C417.64 199.84 418.5 209.39 419.13 219.2C421.73 217.96 424.28 216.65 426.71 215.25C437.75 208.87 445.88 201.45 451.19 193.56Z" fill="#FFFFFF" fill-opacity="1.000000" fill-rule="nonzero"/>
	</g>
	<path id="XMLID_5299_" d="M356.67 1.65C354.79 0.61 352.63 0 350.33 0C347.53 0 344.95 0.86 342.81 2.33C339.18 4.84 330.49 19.27 326.28 25.47C305.65 55.86 265.1 113.33 251.25 178.27C249.7 185.52 249.18 192.93 249.44 200.34L262.04 563.78C262.04 581.86 278.59 599.94 311.7 609.78C312.15 609.92 312.62 610.01 313.08 610.14C306.46 458.82 276.93 213 306.94 114.92C323.28 61.52 345.83 -1.99 356.67 1.65Z" fill="#34AAD2" fill-opacity="1.000000" fill-rule="nonzero"/>
	<g opacity="0.100000">
		<path id="XMLID_5295_" d="M370.99 20.19C377.14 35.82 384.47 54.68 391.59 76.68C395.75 74.28 399.36 71.71 402.73 69.32C394.74 56.28 386.89 44.52 380.03 34.11C378.06 31.13 376.15 28.22 374.37 25.47C373.73 24.48 372.93 23.23 372.07 21.9C371.72 21.34 371.37 20.78 370.99 20.19Z" fill="#FFFFFF" fill-opacity="1.000000" fill-rule="nonzero"/>
	</g>
	<path id="XMLID_4470_" d="M272.58 215.24C315.14 239.8 384.15 239.8 426.71 215.24C437.81 208.84 445.96 201.38 451.27 193.44C451.15 187.97 450.57 182.52 449.44 177.17C448.83 174.34 448.18 171.55 447.49 168.76C442.34 174.8 435.4 180.47 426.72 185.5C384.16 210.06 315.15 210.06 272.59 185.5C264.48 180.81 257.91 175.52 252.88 169.94C252.3 172.33 251.74 174.75 251.22 177.17C249.95 183.15 249.4 189.25 249.38 195.37C254.69 202.58 262.4 209.35 272.58 215.24Z" fill="#455A64" fill-opacity="1.000000" fill-rule="nonzero"/>
	<path id="XMLID_5233_" d="M306.97 587.32L205.39 667.24L191.04 658.89C190.26 629.48 199.82 603.48 221.09 576.06C230.15 564.38 238.46 553.48 245.92 543.17C258.1 526.41 268.05 511.21 275.36 496.86C287.62 472.71 290.63 457.69 290.46 441.03C290.49 440.46 290.46 439.9 290.42 439.36C290.42 438.79 290.42 438.26 290.39 437.76L298.02 441.49L306.97 587.32Z" fill="#455A64" fill-opacity="1.000000" fill-rule="nonzero"/>
	<path id="XMLID_5229_" d="M194.38 627.9C192.93 633.66 191.97 639.51 191.45 645.46L205.77 653.73L205.85 653.28C206.37 647.52 207.31 641.87 208.71 636.28L208.73 636.18L194.38 627.9Z" fill="#2786DE" fill-opacity="1.000000" fill-rule="nonzero"/>
	<g opacity="0.600000">
		<path id="XMLID_4471_" d="M194.38 627.9C192.93 633.66 191.97 639.51 191.45 645.46L205.77 653.73L205.85 653.28C206.37 647.52 207.31 641.87 208.71 636.28L208.73 636.18L194.38 627.9Z" fill="#FFFFFF" fill-opacity="1.000000" fill-rule="nonzero"/>
	</g>
	<path id="XMLID_5227_" d="M298 441.51C298.63 456.95 296.14 475.66 286.23 502.25C277.13 526.67 259.24 553.7 235.44 584.38C214.17 611.81 204.6 637.81 205.39 667.23L306.97 587.34L298 441.51Z" fill="#37474F" fill-opacity="1.000000" fill-rule="nonzero"/>
	<path id="XMLID_5226_" d="M305.47 560.07L208.72 636.15C207.27 641.93 206.3 647.78 205.78 653.75L306.28 574.71L305.47 560.07Z" fill="#2786DE" fill-opacity="1.000000" fill-rule="nonzero"/>
	<path id="XMLID_4694_" d="M390.27 587.32L491.84 667.24L506.19 658.89C506.97 629.48 497.42 603.48 476.15 576.06C467.09 564.38 458.78 553.48 451.32 543.17C439.14 526.41 429.19 511.21 421.88 496.86C409.62 472.71 406.61 457.69 406.78 441.03C406.75 440.46 406.78 439.9 406.82 439.36C406.82 438.79 406.82 438.26 406.85 437.76L399.22 441.49L390.27 587.32Z" fill="#455A64" fill-opacity="1.000000" fill-rule="nonzero"/>
	<path id="XMLID_4558_" d="M502.86 627.9C504.3 633.66 505.27 639.51 505.78 645.46L491.46 653.73L491.39 653.28C490.86 647.52 489.92 641.87 488.52 636.28L488.5 636.18L502.86 627.9Z" fill="#2786DE" fill-opacity="1.000000" fill-rule="nonzero"/>
	<g opacity="0.600000">
		<path id="XMLID_4455_" d="M502.86 627.9C504.3 633.66 505.27 639.51 505.78 645.46L491.46 653.73L491.39 653.28C490.86 647.52 489.92 641.87 488.52 636.28L488.5 636.18L502.86 627.9Z" fill="#FFFFFF" fill-opacity="1.000000" fill-rule="nonzero"/>
	</g>
	<path id="XMLID_4556_" d="M399.23 441.51C398.61 456.95 401.1 475.66 411.01 502.26C420.1 526.67 437.99 553.7 461.79 584.38C483.06 611.81 492.63 637.81 491.84 667.23L390.26 587.34L399.23 441.51Z" fill="#37474F" fill-opacity="1.000000" fill-rule="nonzero"/>
	<path id="XMLID_4555_" d="M391.76 560.07L488.51 636.15C489.97 641.93 490.94 647.78 491.45 653.75L390.95 574.71L391.76 560.07Z" fill="#2786DE" fill-opacity="1.000000" fill-rule="nonzero"/>
	<path id="XMLID_5244_" d="M268.43 235.58C271.48 237.34 273.94 241.61 273.94 245.12C273.94 248.64 271.48 250.06 268.44 248.31C265.39 246.55 262.92 242.28 262.92 238.77C262.92 235.25 265.39 233.83 268.43 235.58Z" fill="#37474F" fill-opacity="1.000000" fill-rule="nonzero"/>
	<path id="XMLID_5243_" d="M268.22 258.19C271.11 259.85 273.45 263.9 273.45 267.23C273.45 270.57 271.11 271.92 268.22 270.25C265.34 268.58 263 264.54 263 261.2C263 257.87 265.34 256.52 268.22 258.19Z" fill="#37474F" fill-opacity="1.000000" fill-rule="nonzero"/>
	<path id="XMLID_5242_" d="M268.49 280.8C271.22 282.37 273.43 286.2 273.43 289.35C273.43 292.5 271.21 293.78 268.49 292.21C265.76 290.63 263.55 286.8 263.55 283.65C263.55 280.5 265.76 279.22 268.49 280.8Z" fill="#37474F" fill-opacity="1.000000" fill-rule="nonzero"/>
	<path id="XMLID_5241_" d="M269.11 303.42C271.68 304.9 273.76 308.51 273.76 311.48C273.76 314.45 271.68 315.65 269.11 314.17C266.54 312.68 264.45 309.07 264.45 306.1C264.45 303.14 266.54 301.93 269.11 303.42Z" fill="#37474F" fill-opacity="1.000000" fill-rule="nonzero"/>
	<path id="XMLID_5240_" d="M269.96 326.04C272.37 327.43 274.32 330.82 274.32 333.61C274.32 336.39 272.37 337.52 269.96 336.13C267.54 334.74 265.59 331.35 265.59 328.56C265.59 325.77 267.54 324.65 269.96 326.04Z" fill="#37474F" fill-opacity="1.000000" fill-rule="nonzero"/>
	<path id="XMLID_5239_" d="M270.91 348.65C273.16 349.95 274.99 353.12 274.99 355.73C274.99 358.33 273.16 359.39 270.91 358.09C268.65 356.79 266.82 353.62 266.82 351.01C266.82 348.41 268.65 347.35 270.91 348.65Z" fill="#37474F" fill-opacity="1.000000" fill-rule="nonzero"/>
	<path id="XMLID_5238_" d="M271.84 371.26C273.93 372.47 275.64 375.42 275.64 377.84C275.64 380.27 273.93 381.25 271.84 380.04C269.74 378.82 268.04 375.88 268.04 373.45C268.03 371.03 269.74 370.05 271.84 371.26Z" fill="#37474F" fill-opacity="1.000000" fill-rule="nonzero"/>
	<path id="XMLID_4741_" d="M432.22 235.58C429.18 237.34 426.71 241.61 426.71 245.12C426.71 248.64 429.18 250.06 432.22 248.31C435.26 246.55 437.72 242.28 437.72 238.77C437.73 235.25 435.26 233.83 432.22 235.58Z" fill="#455A64" fill-opacity="1.000000" fill-rule="nonzero"/>
	<path id="XMLID_4740_" d="M432.43 258.19C429.54 259.85 427.2 263.9 427.2 267.23C427.2 270.57 429.54 271.92 432.43 270.25C435.31 268.58 437.65 264.54 437.65 261.2C437.65 257.87 435.31 256.52 432.43 258.19Z" fill="#455A64" fill-opacity="1.000000" fill-rule="nonzero"/>
	<path id="XMLID_4739_" d="M432.16 280.8C429.43 282.37 427.22 286.2 427.22 289.35C427.22 292.5 429.43 293.78 432.16 292.21C434.88 290.63 437.1 286.8 437.1 283.65C437.1 280.5 434.89 279.22 432.16 280.8Z" fill="#455A64" fill-opacity="1.000000" fill-rule="nonzero"/>
	<path id="XMLID_4738_" d="M431.54 303.42C428.97 304.9 426.89 308.51 426.89 311.48C426.89 314.45 428.97 315.65 431.54 314.17C434.11 312.68 436.2 309.07 436.2 306.1C436.2 303.14 434.11 301.93 431.54 303.42Z" fill="#455A64" fill-opacity="1.000000" fill-rule="nonzero"/>
	<path id="XMLID_4737_" d="M430.69 326.04C428.28 327.43 426.32 330.82 426.32 333.61C426.32 336.39 428.28 337.52 430.69 336.13C433.1 334.74 435.06 331.35 435.06 328.56C435.06 325.77 433.1 324.65 430.69 326.04Z" fill="#455A64" fill-opacity="1.000000" fill-rule="nonzero"/>
	<path id="XMLID_4735_" d="M429.74 348.65C427.49 349.95 425.66 353.12 425.66 355.73C425.66 358.33 427.49 359.39 429.74 358.09C432 356.79 433.83 353.62 433.83 351.01C433.83 348.41 432 347.35 429.74 348.65Z" fill="#455A64" fill-opacity="1.000000" fill-rule="nonzero"/>
	<path id="XMLID_4724_" d="M428.81 371.26C426.72 372.47 425.01 375.42 425.01 377.84C425.01 380.27 426.72 381.25 428.81 380.04C430.91 378.82 432.61 375.88 432.61 373.45C432.62 371.03 430.91 370.05 428.81 371.26Z" fill="#455A64" fill-opacity="1.000000" fill-rule="nonzero"/>
	<path id="Vector" d="M356.85 296.62C379.01 300.21 394.05 321.09 390.46 343.24C386.86 365.39 365.99 380.44 343.83 376.84C321.68 373.25 306.64 352.37 310.23 330.22C313.83 308.07 334.7 293.02 356.85 296.62Z" fill="#37474F" fill-opacity="1.000000" fill-rule="evenodd"/>
	<path id="Vector" d="M379.88 336.72C379.88 353.05 366.64 366.28 350.32 366.28C334 366.28 320.76 353.05 320.76 336.72C320.76 320.4 334 307.17 350.32 307.17C366.64 307.17 379.88 320.4 379.88 336.72Z" fill="#2786DE" fill-opacity="1.000000" fill-rule="evenodd"/>
	<path id="XMLID_3962_" d="M242.37 1011.2C243.06 984.52 264.91 963.13 291.76 963.13C318.57 963.13 340.47 984.51 341.15 1011.2C341.2 1011.67 341.2 1012.1 341.2 1012.57C341.2 1013.05 341.2 1013.48 341.15 1013.95C340.6 1020.79 335.78 1027.51 326.7 1032.75C307.43 1043.9 276.1 1043.9 256.78 1032.75C247.75 1027.5 242.93 1020.79 242.37 1013.95C242.33 1013.48 242.33 1013.05 242.33 1012.57C242.33 1012.1 242.33 1011.67 242.37 1011.2Z" fill="#8EDDF8" fill-opacity="1.000000" fill-rule="nonzero"/>
	<g opacity="0.600000">
		<path id="XMLID_3960_" d="M242.37 1011.2C243.06 984.52 264.91 963.13 291.76 963.13C318.57 963.13 340.47 984.51 341.15 1011.2C341.2 1011.67 341.2 1012.1 341.2 1012.57C341.2 1013.05 341.2 1013.48 341.15 1013.95C340.6 1020.79 335.78 1027.51 326.7 1032.75C307.43 1043.9 276.1 1043.9 256.78 1032.75C247.75 1027.5 242.93 1020.79 242.37 1013.95C242.33 1013.48 242.33 1013.05 242.33 1012.57C242.33 1012.1 242.33 1011.67 242.37 1011.2Z" fill="#FFFFFF" fill-opacity="1.000000" fill-rule="nonzero"/>
	</g>
	<g opacity="0.500000">
		<path id="XMLID_3956_" d="M270.32 968.07C276.81 964.94 284.07 963.13 291.76 963.13C318.57 963.13 340.47 984.52 341.16 1011.2C341.2 1011.67 341.2 1012.1 341.2 1012.58C341.2 1013.05 341.2 1013.48 341.16 1013.96C340.6 1020.79 335.78 1027.51 326.7 1032.76C319.66 1036.82 311 1039.39 301.91 1040.49C314.73 1038.28 323.02 1023.97 319.08 1008.16C314.51 989.83 295.98 963.33 270.32 968.07Z" fill="#FFFFFF" fill-opacity="1.000000" fill-rule="nonzero"/>
	</g>
	<g opacity="0.100000">
		<path id="XMLID_3954_" d="M242.37 1013.95C242.33 1013.48 242.33 1013.05 242.33 1012.57C242.33 1012.1 242.33 1011.67 242.37 1011.2C242.73 996.95 249.17 984.26 259.14 975.48C253.78 981 241.83 1001.81 254.81 1017.67C263.34 1028.1 303.85 1042.98 337.18 1023.85C334.77 1027.07 331.28 1030.1 326.7 1032.75C307.43 1043.9 276.1 1043.9 256.78 1032.75C247.75 1027.5 242.93 1020.79 242.37 1013.95Z" fill="#2786DE" fill-opacity="1.000000" fill-rule="nonzero"/>
	</g>
	<g opacity="0.500000">
		<path id="XMLID_3952_" d="M292.26 974.27C290.05 979.31 294.3 986.04 301.76 989.32C309.21 992.59 317.05 991.16 319.26 986.13C321.47 981.09 317.22 974.36 309.76 971.08C302.31 967.81 294.48 969.24 292.26 974.27Z" fill="#FFFFFF" fill-opacity="1.000000" fill-rule="nonzero"/>
	</g>
	<g opacity="0.500000">
		<path id="XMLID_3950_" d="M320.89 994.77C319.74 997.39 321.41 1000.67 324.63 1002.08C327.84 1003.49 331.38 1002.51 332.53 999.88C333.69 997.26 332.02 993.99 328.8 992.58C325.58 991.17 322.04 992.15 320.89 994.77Z" fill="#FFFFFF" fill-opacity="1.000000" fill-rule="nonzero"/>
	</g>
	<path id="XMLID_3962_" d="M457.01 1011.2C456.32 984.52 434.47 963.13 407.62 963.13C380.81 963.13 358.92 984.51 358.23 1011.2C358.18 1011.67 358.18 1012.1 358.18 1012.57C358.18 1013.05 358.18 1013.48 358.23 1013.95C358.78 1020.79 363.6 1027.51 372.68 1032.75C391.96 1043.9 423.28 1043.9 442.6 1032.75C451.64 1027.5 456.45 1020.79 457.01 1013.95C457.05 1013.48 457.05 1013.05 457.05 1012.57C457.05 1012.1 457.05 1011.67 457.01 1011.2Z" fill="#8EDDF8" fill-opacity="1.000000" fill-rule="nonzero"/>
	<g opacity="0.600000">
		<path id="XMLID_3960_" d="M457.01 1011.2C456.32 984.52 434.47 963.13 407.62 963.13C380.81 963.13 358.92 984.51 358.23 1011.2C358.18 1011.67 358.18 1012.1 358.18 1012.57C358.18 1013.05 358.18 1013.48 358.23 1013.95C358.78 1020.79 363.6 1027.51 372.68 1032.75C391.96 1043.9 423.28 1043.9 442.6 1032.75C451.64 1027.5 456.45 1020.79 457.01 1013.95C457.05 1013.48 457.05 1013.05 457.05 1012.57C457.05 1012.1 457.05 1011.67 457.01 1011.2Z" fill="#FFFFFF" fill-opacity="1.000000" fill-rule="nonzero"/>
	</g>
	<g opacity="0.500000">
		<path id="XMLID_3956_" d="M429.06 968.07C422.57 964.94 415.31 963.13 407.62 963.13C380.81 963.13 358.91 984.52 358.23 1011.2C358.18 1011.67 358.18 1012.1 358.18 1012.58C358.18 1013.05 358.18 1013.48 358.23 1013.96C358.78 1020.79 363.6 1027.51 372.68 1032.76C379.72 1036.82 388.38 1039.39 397.47 1040.49C384.65 1038.28 376.36 1023.97 380.3 1008.16C384.87 989.83 403.4 963.33 429.06 968.07Z" fill="#FFFFFF" fill-opacity="1.000000" fill-rule="nonzero"/>
	</g>
	<g opacity="0.100000">
		<path id="XMLID_3954_" d="M457.01 1013.95C457.05 1013.48 457.05 1013.05 457.05 1012.57C457.05 1012.1 457.05 1011.67 457.01 1011.2C456.65 996.95 450.21 984.26 440.24 975.48C445.61 981 457.55 1001.81 444.57 1017.67C436.04 1028.1 395.53 1042.98 362.2 1023.85C364.61 1027.07 368.1 1030.1 372.68 1032.75C391.96 1043.9 423.28 1043.9 442.6 1032.75C451.64 1027.5 456.45 1020.79 457.01 1013.95Z" fill="#2786DE" fill-opacity="1.000000" fill-rule="nonzero"/>
	</g>
	<g opacity="0.500000">
		<path id="XMLID_3952_" d="M407.12 974.27C409.33 979.31 405.08 986.04 397.62 989.32C390.17 992.59 382.33 991.16 380.13 986.13C377.91 981.09 382.16 974.36 389.62 971.08C397.07 967.81 404.91 969.24 407.12 974.27Z" fill="#FFFFFF" fill-opacity="1.000000" fill-rule="nonzero"/>
	</g>
	<g opacity="0.500000">
		<path id="XMLID_3950_" d="M378.49 994.77C379.64 997.39 377.97 1000.67 374.76 1002.08C371.54 1003.49 368 1002.51 366.85 999.88C365.7 997.26 367.37 993.99 370.58 992.58C373.8 991.17 377.34 992.15 378.49 994.77Z" fill="#FFFFFF" fill-opacity="1.000000" fill-rule="nonzero"/>
	</g>
	<path id="XMLID_3947_" d="M328.84 1028.47C329.12 1017.6 338.02 1008.9 348.95 1008.9C359.87 1008.9 368.79 1017.61 369.06 1028.47C369.08 1028.66 369.08 1028.84 369.08 1029.03C369.08 1029.22 369.08 1029.4 369.06 1029.59C368.84 1032.38 366.87 1035.11 363.18 1037.25C355.32 1041.78 342.57 1041.78 334.7 1037.25C331.03 1035.11 329.06 1032.37 328.84 1029.59C328.82 1029.4 328.82 1029.22 328.82 1029.03C328.82 1028.84 328.82 1028.66 328.84 1028.47Z" fill="#2786DE" fill-opacity="1.000000" fill-rule="nonzero"/>
	<g opacity="0.900000">
		<path id="XMLID_3944_" d="M328.84 1028.47C329.12 1017.6 338.02 1008.9 348.95 1008.9C359.87 1008.9 368.79 1017.61 369.06 1028.47C369.08 1028.66 369.08 1028.84 369.08 1029.03C369.08 1029.22 369.08 1029.4 369.06 1029.59C368.84 1032.38 366.87 1035.11 363.18 1037.25C355.32 1041.78 342.57 1041.78 334.7 1037.25C331.03 1035.11 329.06 1032.37 328.84 1029.59C328.82 1029.4 328.82 1029.22 328.82 1029.03C328.82 1028.84 328.82 1028.66 328.84 1028.47Z" fill="#FFFFFF" fill-opacity="1.000000" fill-rule="nonzero"/>
	</g>
	<g opacity="0.600000">
		<path id="XMLID_3942_" d="M340.22 1010.91C342.87 1009.63 345.82 1008.9 348.96 1008.9C359.87 1008.9 368.79 1017.61 369.07 1028.47C369.09 1028.66 369.09 1028.84 369.09 1029.03C369.09 1029.22 369.09 1029.4 369.07 1029.59C368.84 1032.38 366.88 1035.11 363.18 1037.25C360.31 1038.91 356.78 1039.94 353.09 1040.4C358.3 1039.5 361.68 1033.67 360.08 1027.23C358.22 1019.77 350.67 1008.98 340.22 1010.91Z" fill="#FFFFFF" fill-opacity="1.000000" fill-rule="nonzero"/>
	</g>
	<g opacity="0.100000">
		<path id="XMLID_3940_" d="M328.84 1029.59C328.82 1029.4 328.82 1029.22 328.82 1029.03C328.82 1028.84 328.82 1028.67 328.84 1028.47C328.99 1022.67 331.61 1017.5 335.67 1013.93C333.49 1016.18 328.63 1024.65 333.91 1031.1C337.38 1035.35 353.88 1041.42 367.45 1033.63C366.47 1034.93 365.05 1036.17 363.19 1037.25C355.33 1041.78 342.58 1041.78 334.71 1037.25C331.03 1035.11 329.07 1032.38 328.84 1029.59Z" fill="#2786DE" fill-opacity="1.000000" fill-rule="nonzero"/>
	</g>
	<g opacity="0.500000">
		<path id="XMLID_3938_" d="M349.16 1013.44C348.26 1015.49 349.99 1018.23 353.02 1019.56C356.06 1020.89 359.25 1020.31 360.15 1018.26C361.05 1016.21 359.32 1013.47 356.29 1012.14C353.25 1010.8 350.06 1011.38 349.16 1013.44Z" fill="#FFFFFF" fill-opacity="1.000000" fill-rule="nonzero"/>
	</g>
	<g opacity="0.500000">
		<path id="XMLID_3936_" d="M360.82 1021.78C360.35 1022.85 361.03 1024.18 362.34 1024.76C363.65 1025.32 365.09 1024.93 365.56 1023.87C366.03 1022.8 365.35 1021.46 364.04 1020.89C362.73 1020.31 361.29 1020.71 360.82 1021.78Z" fill="#FFFFFF" fill-opacity="1.000000" fill-rule="nonzero"/>
	</g>
</svg>
